<svg width="22" height="14" viewBox="0 0 22 14" fill="none" xmlns="http://www.w3.org/2000/svg">
<path d="M5.02292 6.97627L4.99943 6.99977M16.9994 6.97621L16.9759 6.99971M3.19966 13H18.7997C19.7938 13 20.5997 12.1941 20.5997 11.2V2.8C20.5997 1.80589 19.7938 1 18.7997 1H3.19966C2.20555 1 1.39966 1.80589 1.39966 2.8V11.2C1.39966 12.1941 2.20555 13 3.19966 13ZM13.3997 7C13.3997 8.32548 12.3251 9.4 10.9997 9.4C9.67417 9.4 8.59966 8.32548 8.59966 7C8.59966 5.67452 9.67417 4.6 10.9997 4.6C12.3251 4.6 13.3997 5.67452 13.3997 7Z" stroke="#EAD7BC" stroke-width="2" stroke-linecap="round" stroke-linejoin="round"/>
</svg>
