<svg width="22" height="14" viewBox="0 0 22 14" fill="none" xmlns="http://www.w3.org/2000/svg">
<path d="M5.02268 6.97627L4.99918 6.99977M16.9992 6.97621L16.9757 6.99971M3.19941 13H18.7994C19.7935 13 20.5994 12.1941 20.5994 11.2V2.8C20.5994 1.80589 19.7935 1 18.7994 1H3.19941C2.2053 1 1.39941 1.80589 1.39941 2.8V11.2C1.39941 12.1941 2.2053 13 3.19941 13ZM13.3994 7C13.3994 8.32548 12.3249 9.4 10.9994 9.4C9.67393 9.4 8.59941 8.32548 8.59941 7C8.59941 5.67452 9.67393 4.6 10.9994 4.6C12.3249 4.6 13.3994 5.67452 13.3994 7Z" stroke="#EAD7BC" stroke-width="2" stroke-linecap="round" stroke-linejoin="round"/>
</svg>
