<svg width="24" height="25" viewBox="0 0 24 25" fill="none" xmlns="http://www.w3.org/2000/svg">
<g opacity="0.8">
<g opacity="0.7" clip-path="url(#clip0_121_2145)">
<path d="M4 13.1042C3.83431 13.1042 3.7 12.9699 3.7 12.8042V4.80423C3.7 4.63854 3.83431 4.50423 4 4.50423H10C10.1657 4.50423 10.3 4.63854 10.3 4.80423V12.8042C10.3 12.9699 10.1657 13.1042 10 13.1042H4ZM4 21.1042C3.83431 21.1042 3.7 20.9699 3.7 20.8042V16.8042C3.7 16.6385 3.83432 16.5042 4 16.5042H10C10.1657 16.5042 10.3 16.6385 10.3 16.8042V20.8042C10.3 20.9699 10.1657 21.1042 10 21.1042H4ZM14 21.1042C13.8343 21.1042 13.7 20.9699 13.7 20.8042V12.8042C13.7 12.6385 13.8343 12.5042 14 12.5042H20C20.1657 12.5042 20.3 12.6385 20.3 12.8042V20.8042C20.3 20.9699 20.1657 21.1042 20 21.1042H14ZM13.7 4.80423C13.7 4.63854 13.8343 4.50423 14 4.50423H20C20.1657 4.50423 20.3 4.63854 20.3 4.80423V8.80423C20.3 8.96992 20.1657 9.10423 20 9.10423H14C13.8343 9.10423 13.7 8.96992 13.7 8.80423V4.80423Z" stroke="white" stroke-width="1.4"/>
</g>
</g>
<defs>
<clipPath id="clip0_121_2145">
<rect width="24" height="24" fill="white" transform="translate(0 0.80423)"/>
</clipPath>
</defs>
</svg>
