<svg width="37" height="33" viewBox="0 0 37 33" fill="none" xmlns="http://www.w3.org/2000/svg">
<path d="M35.5183 13.2756C34.7793 12.6541 33.8182 12.3489 32.8229 12.3791C31.8246 12.4231 30.9038 12.8219 30.2318 13.5039L24.6712 19.1441C24.2034 17.6206 22.6821 16.5014 20.8822 16.5014H4.70396C2.64927 16.5014 0.979004 18.0441 0.979004 19.9389V29.5639C0.979004 31.4586 2.64927 33.0014 4.70396 33.0014H21.429L35.7895 18.1266C37.1483 16.7227 37.0276 14.5461 35.5183 13.277V13.2756ZM34.6779 17.2109L20.76 31.625H4.70396C3.47174 31.625 2.46899 30.6996 2.46899 29.5625V19.9375C2.46899 18.8004 3.47174 17.875 4.70396 17.875H20.8807C22.2291 17.875 23.3287 18.8884 23.3287 20.1327C23.3287 21.2493 22.4258 22.2104 21.2383 22.3671L12.8035 23.3805L12.9957 24.7431L21.4409 23.7284C22.9622 23.5276 24.1885 22.5211 24.6369 21.2204L31.3359 14.4279C31.7397 14.0181 32.294 13.7775 32.8944 13.7514C33.4874 13.7266 34.07 13.9164 34.5155 14.2917C35.4229 15.0549 35.4959 16.3639 34.6779 17.2109ZM6.93893 10.4569V9.625H8.42892V10.4569C8.42892 11.5142 9.36165 12.375 10.5074 12.375H13.8018C14.9476 12.375 15.8803 11.5142 15.8803 10.4569C15.8803 9.515 15.1502 8.72025 14.1445 8.56625L9.92188 7.91587C8.19499 7.6505 6.94042 6.28512 6.94042 4.66813C6.94042 2.85175 8.54067 1.375 10.5089 1.375H11.4104V0H12.9004V1.375H13.8018C15.7686 1.375 17.3703 2.85175 17.3703 4.66813V5.5H15.8803V4.66813C15.8803 3.61075 14.9476 2.75 13.8018 2.75H10.5074C9.36165 2.75 8.42892 3.61075 8.42892 4.66813C8.42892 5.61 9.15901 6.40475 10.1647 6.55875L14.3874 7.20913C16.1142 7.4745 17.3688 8.83988 17.3688 10.4569C17.3688 12.2732 15.7686 13.75 13.8003 13.75H12.8989V15.125H11.4089V13.75H10.5074C8.54067 13.75 6.93893 12.2732 6.93893 10.4569ZM30.3048 6.875H20.3488V5.5H30.363L25.8111 1.29937L26.8645 0.32725L31.6056 4.7025C32.4772 5.50688 32.4772 6.81587 31.6056 7.62025L26.8645 11.9955L25.8111 11.0234L30.3048 6.875Z" fill="white"/>
</svg>
