<svg width="252" height="259" viewBox="0 0 252 259" fill="none" xmlns="http://www.w3.org/2000/svg">
<path d="M232.441 47.9353C233.599 49.0346 234.853 50.1338 236.204 51.1331C237.555 52.2324 239.099 52.6321 240.739 52.2324C242.669 51.8327 244.695 51.5329 246.625 51.1331C247.011 51.0332 247.397 50.7334 247.879 50.4336C247.204 49.834 246.818 49.4343 246.335 49.0346C239.002 42.7389 231.669 36.5431 224.432 30.2475C222.503 28.5486 220.766 26.8498 219.705 24.4514C217.582 19.3549 213.722 15.9573 208.898 13.8587C196.065 8.26253 182.749 6.66362 169.048 8.76218C161.618 9.96136 154.575 8.96205 148.207 4.56506C145.312 2.56643 142.031 1.36725 138.558 0.667733C133.347 -0.431513 129.488 1.96684 128.137 7.26321C126.304 14.4583 127.172 21.2536 131.997 27.1496C137.207 33.5452 143.865 36.9429 151.873 37.3426C157.566 37.6424 163.066 36.743 168.566 35.344C170.495 34.8443 172.425 34.5445 174.355 34.0449C174.355 34.1448 174.451 34.2447 174.451 34.4446C174.065 34.7444 173.583 35.0442 173.101 35.244C170.978 36.3433 168.759 37.3426 166.636 38.3419C157.662 42.7389 148.4 45.9367 138.365 46.6362C131.225 47.1359 124.374 49.1345 117.716 51.8327C106.909 56.2297 97.3571 62.6253 89.7345 71.719C81.6295 81.3125 77.0945 98.001 86.1645 113.191C88.9626 117.887 92.2432 122.284 95.9098 126.182C102.471 133.077 109.804 138.773 117.716 143.969C131.514 152.963 146.18 159.859 161.329 165.855C165.767 167.653 170.495 168.353 175.223 168.053C187.477 167.353 197.03 161.458 203.88 151.065C213.047 137.174 209.477 118.887 196.161 109.593C190.662 105.796 184.583 104.197 178.118 105.896C171.46 107.594 166.346 111.392 163.934 118.387C161.811 124.583 163.934 130.978 169.145 134.376C170.978 135.575 173.004 136.175 175.513 135.575C174.741 134.976 174.162 134.576 173.68 134.176C172.136 132.977 170.978 131.378 170.302 129.38C168.855 124.683 170.978 120.386 175.416 118.987C179.662 117.688 183.521 118.487 186.802 121.585C193.942 128.18 193.46 139.573 185.837 145.668C181.302 149.266 176.092 150.165 170.495 149.766C165.671 149.466 161.136 147.767 156.601 146.168C146.18 142.371 136.146 137.674 126.883 131.278C119.357 126.082 112.602 120.086 107.392 112.391C104.304 107.794 101.989 102.898 101.603 97.2016C101.024 88.6075 103.05 81.0127 109.418 75.1167C116.172 68.7211 123.891 63.8244 132.093 60.027C139.523 56.6294 147.242 56.3296 154.768 59.9271C155.25 60.127 155.733 60.2269 156.215 60.4268C156.891 57.7286 157.469 55.2303 158.338 52.732C161.522 43.1386 167.794 37.4425 177.636 36.0435C185.837 34.9442 192.205 38.4418 197.512 44.5377C197.898 44.9374 197.995 45.537 198.284 46.0366C196.837 45.6369 195.775 44.9374 194.618 44.3378C192.205 43.1386 189.793 41.7396 187.188 40.9401C180.337 38.8416 173.969 40.1407 168.855 45.437C163.645 50.7334 161.618 57.129 163.548 64.424C165.575 71.9189 170.109 77.2153 177.636 78.7142C184.39 80.1133 191.047 79.114 196.74 74.717C197.03 74.5171 197.223 74.3173 197.512 74.2173C198.67 73.6177 199.731 73.4179 200.696 74.8169C198.381 78.8142 193.653 79.014 190.083 81.912C191.337 82.2118 192.205 82.6116 193.074 82.7115C194.714 82.9114 196.258 83.1112 197.898 83.2112C204.363 83.7108 210.538 85.3097 216.327 88.2077C217.582 88.8073 218.836 89.5068 220.091 90.0065C223.95 91.6054 227.81 91.5055 231.38 89.207C235.529 86.5089 237.651 82.3118 238.423 77.3152C238.52 76.9155 238.423 76.6157 238.327 75.9162C237.458 76.5157 236.783 77.0154 236.108 77.5151C232.827 79.8135 229.16 81.1126 225.204 80.3131C220.476 79.4138 216.038 77.615 212.178 74.4172C211.696 74.0175 211.31 73.6177 210.731 72.9182C212.854 72.3186 214.687 72.8183 216.327 73.4179C217.968 74.0175 219.608 74.9168 221.248 75.5164C229.16 78.5144 236.976 75.2166 240.836 67.5219C241.607 66.0229 241.8 64.7238 240.932 63.2248C239.774 61.0264 238.713 58.8279 237.362 56.7293C235.239 53.5315 232.923 50.5336 230.801 47.5356C230.511 47.1359 230.318 46.6362 230.125 46.1366C230.318 45.9367 230.608 45.8368 230.801 45.6369C231.38 46.5363 231.862 47.3357 232.441 47.9353ZM162.969 30.847C155.154 31.1468 147.531 30.1475 140.873 25.3508C137.207 22.7526 134.602 19.4549 134.119 14.7581C133.926 13.2591 134.023 11.7601 134.312 10.2612C134.891 7.66294 136.628 6.36383 139.233 6.56369C141.452 6.76356 143.382 7.66294 145.215 8.76218C147.531 10.2612 149.364 12.2598 150.908 14.5582C152.163 16.4569 153.32 18.4555 154.768 20.2543C156.312 22.2529 158.145 23.9518 159.785 25.7505C159.785 25.8505 159.689 26.0503 159.689 26.1503C158.917 25.7505 158.048 25.4507 157.277 25.051C154.575 23.552 152.452 21.3535 150.522 18.9552C148.786 16.7567 146.952 14.7581 145.119 12.7594C143.479 10.9607 141.259 10.1612 139.04 9.56164C136.821 9.06198 135.76 10.2612 136.242 12.5596C136.917 15.6575 138.172 18.4555 140.198 20.8539C144.926 26.7499 151.101 29.1482 158.338 29.2481C160.075 29.2481 161.715 29.2481 163.452 29.2481C164.031 29.2481 164.61 29.448 165.285 29.5479C164.706 30.847 163.741 30.847 162.969 30.847ZM216.52 41.0401C216.038 40.7403 215.556 40.4405 215.073 40.0407C213.529 38.7416 211.985 37.4425 210.442 36.1434C208.512 34.5445 206.389 33.6451 203.784 33.7451C201.179 33.845 199.153 32.8457 197.898 30.3474C197.03 28.6486 195.486 27.949 193.749 27.6492C192.495 27.4494 191.24 27.1496 190.083 26.8498C190.083 26.6499 190.083 26.4501 190.083 26.2502C190.855 26.0503 191.626 25.7505 192.398 25.6506C195.582 25.5507 198.67 25.5507 201.854 25.6506C204.266 25.7505 206.293 26.7499 207.836 28.7485C210.538 32.2461 213.336 35.6437 216.038 39.1414C216.424 39.5411 216.617 40.1407 216.906 40.6403C216.81 40.8402 216.617 40.9401 216.52 41.0401Z" fill="#B6B6B6"/>
<path d="M219.415 254.394C221.537 254.394 223.467 254.394 225.397 254.394C225.879 252.495 226.072 193.935 225.397 191.137C216.809 213.422 208.511 235.906 200.117 258.291C199.056 258.291 198.091 258.291 197.029 258.291C187.573 235.107 178.214 212.023 168.662 188.639C168.083 190.537 167.89 250.197 168.372 254.394C171.653 254.394 175.03 254.394 178.504 254.394C178.504 255.393 178.504 256.093 178.504 256.892C171.653 256.892 164.899 256.892 158.048 256.892C158.048 256.192 157.951 255.493 157.855 254.594C160.46 254.594 162.872 254.594 165.188 254.594C165.767 252.695 165.96 189.039 165.478 184.642C163.065 184.642 160.557 184.642 157.951 184.642C157.951 183.542 157.951 182.843 157.951 181.943C167.6 181.943 177.056 181.943 186.705 181.943C193.363 198.432 200.02 215.021 206.871 232.109C209.283 226.213 211.213 220.617 213.336 215.121C215.459 209.624 217.485 204.128 219.511 198.632C221.634 193.036 223.66 187.44 225.783 181.943C234.467 181.943 242.861 181.943 251.545 181.943C251.545 182.843 251.545 183.542 251.545 184.542C249.519 184.542 247.493 184.542 245.37 184.542C245.37 207.926 245.37 231.01 245.37 254.394C247.396 254.394 249.326 254.394 251.545 254.394C251.545 255.393 251.545 256.093 251.545 256.992C240.835 256.992 230.221 256.992 219.608 256.992C219.511 256.692 219.318 256.492 219.318 256.192C219.318 255.593 219.318 255.193 219.415 254.394Z" fill="#B6B6B6"/>
<path d="M93.1116 53.2319C92.6292 54.3312 92.1468 55.3305 91.6643 56.4297C88.0942 63.5249 82.9804 69.0211 76.2262 72.8185C70.7263 75.9164 65.9019 79.8137 61.9458 84.8103C57.8933 90.0067 55.1917 95.9027 55.1917 102.798C55.2881 111.192 58.3758 117.988 64.8405 123.084C69.8579 126.981 75.5507 129.38 81.6295 130.779C85.4891 131.678 89.4451 131.878 93.3046 132.378C94.0765 132.478 94.9449 132.478 95.5239 132.877C98.901 135.076 102.278 137.374 105.945 139.972C105.076 140.272 104.497 140.472 104.015 140.572C90.5065 143.77 77.0946 143.57 63.9721 138.573C57.6039 136.175 52.0075 132.578 47.762 126.981C39.464 115.989 38.7886 104.097 44.3849 91.6056C46.7007 86.4092 50.3672 82.2121 54.8057 78.6145C57.0249 76.8158 59.2442 75.1169 61.4634 73.4181C62.0423 72.9184 62.6213 72.4188 63.0072 71.5194C62.5248 71.6193 62.0423 71.5194 61.6564 71.7193C58.4723 73.2182 54.9987 74.5173 52.0075 76.416C42.3587 82.6118 36.5694 91.7056 35.315 103.497C33.8677 116.788 38.5956 127.481 48.5339 135.975C54.9987 141.471 62.3318 144.569 70.4368 146.068C77.4805 147.367 84.4277 148.367 91.5678 147.767C97.2607 147.267 102.761 146.168 107.971 144.07C109.997 143.27 111.444 143.37 112.988 144.769C113.374 145.169 113.857 145.469 114.436 145.868C113.857 146.268 113.471 146.768 112.892 146.968C104.69 151.764 96.0063 154.662 86.6469 155.762C73.621 157.361 60.981 155.262 48.5339 151.265C38.6921 148.167 32.1309 140.872 27.21 131.778C18.8155 116.289 22.0961 91.7056 38.4991 78.9143C43.999 74.6173 49.8848 71.4195 56.7355 69.9205C64.937 68.1217 72.8491 65.4236 80.1822 61.2264C83.8488 59.1279 87.3223 56.5297 90.8924 54.1313C91.4713 53.7316 92.0503 53.3319 92.5327 52.9321C92.9187 53.0321 93.0152 53.132 93.1116 53.2319Z" fill="#B6B6B6"/>
<path d="M57.5072 210.824C58.4721 210.824 59.051 210.824 60.1124 210.824C60.1124 215.821 60.2088 220.817 60.0159 226.014C59.244 226.114 58.5685 226.114 57.8931 226.114C57.7001 225.814 57.6037 225.614 57.6037 225.414C57.4107 224.715 57.4107 224.015 57.2177 223.316C56.5423 221.317 54.709 220.318 52.7792 220.917C52.1038 221.117 51.5249 221.417 50.8495 221.717C43.2269 225.314 35.3148 227.513 26.9203 227.213C20.938 227.013 15.3417 225.514 10.4208 221.717C3.18412 216.221 0.0964885 208.626 0 199.532C0 190.938 3.57008 184.142 9.64885 178.646C15.1487 173.65 21.5169 170.352 28.2711 167.754C44.7707 161.358 61.7527 158.76 79.3136 159.559C88.7694 159.959 97.9359 158.36 106.62 154.563C108.453 153.763 110.286 152.864 112.023 151.865C113.663 150.865 115.111 149.566 116.848 148.267C118.198 149.266 119.646 150.266 120.997 151.365C121.383 151.665 121.769 152.364 121.865 152.964C122.637 157.261 122.347 161.458 120.804 165.455C118.874 170.552 115.207 173.55 110.19 175.049C105.848 176.348 101.313 176.448 96.8745 175.748C86.1643 174.149 75.454 172.95 64.6473 172.85C51.3319 172.85 38.113 174.149 25.473 178.846C21.131 180.445 17.0785 182.544 13.5084 185.442C3.3771 193.736 4.05252 207.027 9.93832 215.221C13.2189 219.718 17.8504 222.017 22.9643 223.316C30.2974 225.214 37.534 224.715 44.6742 222.616C47.9548 221.617 51.2354 220.218 54.4195 218.919C56.4458 218.119 57.3142 216.52 57.3142 214.222C57.4107 213.123 57.5072 212.023 57.5072 210.824Z" fill="#B6B6B6"/>
<path d="M116.365 184.242C116.365 196.334 116.365 207.826 116.365 219.418C116.654 219.518 116.847 219.718 117.04 219.618C121.093 219.418 125.242 219.418 129.294 218.918C133.057 218.419 134.601 216.52 135.277 212.623C135.566 211.024 135.663 209.425 135.856 207.726C136.435 207.626 137.11 207.626 137.785 207.526C137.978 207.826 138.171 208.026 138.171 208.226C138.268 208.625 138.268 209.025 138.268 209.425C138.268 217.219 138.268 224.914 138.268 232.709C138.268 233.209 138.171 233.608 138.171 234.208C137.399 234.208 136.627 234.208 135.856 234.208C135.663 232.409 135.47 230.81 135.277 229.111C134.794 225.714 133.057 223.615 129.68 223.016C125.338 222.216 120.996 222.316 116.461 222.316C116.461 233.009 116.461 243.502 116.461 254.294C118.97 254.294 121.382 254.294 123.891 254.294C123.891 255.293 123.891 255.893 123.891 256.792C112.795 256.792 101.699 256.792 90.506 256.792C90.4095 256.393 90.4095 256.093 90.313 255.693C90.313 255.393 90.313 255.094 90.4095 254.394C92.4357 254.394 94.462 254.394 96.6812 254.394C96.6812 230.91 96.6812 207.826 96.6812 184.442C94.655 184.442 92.6287 184.442 90.506 184.442C90.4095 183.443 90.4095 182.743 90.4095 181.844C110.286 181.844 129.97 181.844 149.846 181.844C149.846 189.439 149.846 196.933 149.846 204.428C149.46 204.528 149.171 204.628 148.882 204.628C148.496 204.628 148.11 204.528 147.627 204.528C147.434 202.43 147.241 200.431 147.048 198.332C147.048 197.833 146.952 197.333 146.855 196.933C145.504 189.638 141.645 185.741 134.119 185.042C128.329 184.442 122.444 184.442 116.365 184.242Z" fill="#B6B6B6"/>
<path d="M164.223 77.515C159.978 78.0146 155.829 78.1146 151.873 79.1139C140.487 81.812 132.672 88.9072 129.198 100.599C127.365 106.795 127.944 113.091 129.198 119.286C129.488 120.685 129.777 122.084 130.066 123.883C129.102 123.384 128.426 123.084 127.944 122.684C121.479 117.088 116.269 110.592 114.435 101.798C111.927 90.2063 114.628 80.2131 123.119 71.9188C128.619 66.6224 134.794 63.2248 142.321 62.3254C149.171 61.526 154.768 63.4246 158.82 69.5205C160.46 71.9188 162.197 74.2172 163.934 76.6156C163.934 76.9154 164.03 77.2152 164.223 77.515Z" fill="#B6B6B6"/>
<path d="M76.129 21.2538C76.2255 19.7548 76.4185 18.2559 74.6817 17.4564C74.2957 17.2566 74.0063 16.8568 73.7168 16.4571C70.1467 11.7603 65.5153 10.5612 60.1119 11.8603C52.4893 13.759 46.893 22.5529 48.5333 30.4475C49.8841 37.043 53.4542 42.1395 59.8225 44.5379C65.0328 46.5365 70.4362 47.0361 76.0325 46.6364C83.4621 46.0368 90.3128 43.6385 96.9705 40.3407C98.5144 39.5413 100.155 38.8418 101.988 38.542C101.795 38.8418 101.602 39.1416 101.409 39.3414C94.2689 45.1375 86.4533 49.5344 77.3834 50.9335C70.1467 52.0327 63.0066 51.4331 56.1559 49.0348C50.7525 47.1361 46.507 43.6385 43.5159 38.6419C42.358 36.7432 41.6826 34.4448 40.7177 32.0464C40.5247 33.6453 40.9107 34.9444 41.2967 36.0437C45.3492 46.0368 52.4893 52.3325 62.9101 54.1313C68.6994 55.1306 74.3922 54.9307 80.085 53.4318C81.2429 53.132 82.4008 53.032 83.5586 52.8322C83.6551 53.032 83.6551 53.132 83.7516 53.3318C83.3657 53.6316 82.9797 54.0314 82.5938 54.2312C76.322 57.7288 69.6643 58.7281 62.6206 57.3291C59.6295 56.7295 56.7348 56.03 53.8402 55.1306C44.2878 52.1326 38.9809 44.7377 38.788 34.3449C38.6915 29.9479 39.0774 25.5509 40.7177 21.4537C44.0948 12.7596 49.8841 7.06355 59.147 6.06423C71.8835 4.66519 80.3745 15.2579 79.1202 26.4503C78.3482 32.9458 73.2344 37.7425 67.1556 37.4427C60.1119 37.043 55.0945 28.7487 57.7962 22.0533C60.3049 15.9574 67.445 14.1587 72.366 18.4557C73.4273 19.455 74.3922 20.6542 75.3571 21.7535C75.8396 21.4537 75.936 21.3537 76.129 21.2538Z" fill="#B6B6B6"/>
<path d="M45.6389 184.842C45.6389 195.235 45.6389 205.827 45.6389 216.52C47.1828 216.52 48.8231 216.52 50.5599 216.52C47.6652 219.618 32.0341 222.816 26.0518 220.517C26.0518 208.725 26.0518 196.734 26.0518 184.642C24.5079 184.642 23.2536 184.642 21.8063 184.642C22.8676 183.243 25.6658 181.944 27.4991 181.844C27.885 181.844 28.271 181.844 28.657 181.844C44.5776 181.844 60.5947 181.844 76.5153 181.844C77.3837 181.844 78.1556 181.844 79.1205 181.844C79.1205 189.538 79.1205 196.933 79.1205 204.628C78.3485 204.628 77.6731 204.728 76.7082 204.828C76.6118 203.829 76.6118 203.129 76.6118 202.33C76.5153 200.931 76.4188 199.432 76.2258 198.033C75.0679 190.238 71.9803 186.341 63.4893 185.241C57.7965 184.542 51.9107 184.842 46.2179 184.742C46.0249 184.542 45.9284 184.642 45.6389 184.842Z" fill="#B6B6B6"/>
<path d="M137.882 113.491C138.268 112.591 138.751 111.892 139.04 110.992C142.996 98.3011 151.487 90.4065 163.548 86.4093C165.285 85.8097 167.118 85.31 168.951 85.31C175.223 85.1102 181.398 85.0102 187.67 84.9103C188.732 84.9103 189.793 85.1102 190.951 85.7098C190.468 85.9096 189.986 86.1095 189.407 86.2094C183.618 87.1088 177.828 88.208 172.425 90.6064C162.487 94.9035 154.961 101.899 150.233 111.992C147.627 117.588 146.856 123.584 146.759 129.68C146.759 131.478 146.663 133.277 146.566 135.476C145.601 134.876 144.926 134.576 144.443 134.177C141.935 132.278 139.522 130.279 137.11 128.381C135.856 127.381 135.084 125.982 134.698 124.383C134.119 121.885 133.444 119.487 132.865 116.988C129.681 102.498 138.268 87.8083 152.452 83.6112C156.794 82.3121 161.232 81.9124 165.767 82.2122C166.153 82.2122 166.539 82.3121 166.925 82.3121C167.022 82.3121 167.215 82.512 167.504 82.7118C165.864 83.0116 164.417 83.2115 162.969 83.5113C152.162 85.8097 144.154 92.0054 139.233 102.198C137.689 105.296 136.917 108.594 137.014 112.092C137.014 112.491 137.11 112.891 137.11 113.291C137.303 113.191 137.496 113.291 137.882 113.491Z" fill="#B6B6B6"/>
<path d="M19.6837 256.792C19.6837 256.193 19.5872 255.793 19.5872 255.393C19.5872 255.194 19.6836 254.894 19.7801 254.494C21.7099 254.494 23.7362 254.494 25.9554 254.494C26.1484 251.696 26.0519 249.098 26.0519 246.5C26.0519 243.901 26.0519 241.203 26.0519 238.605C26.0519 236.007 26.0519 233.408 26.0519 230.51C32.7096 230.61 39.0778 229.511 45.5426 227.413C45.5426 236.506 45.5426 245.3 45.5426 253.894C45.832 254.094 45.9285 254.294 46.1215 254.294C51.3319 254.294 56.6388 254.494 61.8491 254.094C72.3664 253.195 76.3224 246 77.4803 238.305C77.7697 236.207 77.9627 234.008 78.1557 231.71C78.8311 231.61 79.603 231.61 80.4714 231.51C80.4714 240.004 80.4714 248.398 80.4714 256.892C60.2088 256.792 40.0427 256.792 19.6837 256.792Z" fill="#B6B6B6"/>
<path d="M89.445 64.0236C88.3837 62.9243 89.0591 62.4247 89.445 61.8251C93.0151 56.4288 96.7782 51.1324 101.313 46.6355C107.778 40.1399 114.146 33.5445 120.611 26.949C121.383 26.1495 122.155 25.45 122.927 24.7505C126.497 28.1482 129.681 31.9456 133.54 34.7436C137.303 37.4418 141.838 39.1406 146.47 41.439C124.856 42.4384 105.848 49.6334 89.445 64.0236Z" fill="#B6B6B6"/>
<path d="M248.554 53.8312C247.01 56.7292 245.756 59.1276 244.309 62.0256C243.054 59.3274 242.379 56.9291 241.51 54.2309C243.826 54.131 245.852 53.5314 248.554 53.8312Z" fill="#B6B6B6"/>
<path d="M43.4198 67.422C44.0952 66.9224 44.7706 66.1229 45.5425 65.8231C49.3056 64.2242 55.9633 62.9251 60.4018 62.8252C59.2439 63.7246 46.7004 67.522 43.7093 67.8218C43.6128 67.7218 43.5163 67.522 43.4198 67.422Z" fill="#B6B6B6"/>
</svg>
