<svg width="252" height="259" viewBox="0 0 252 259" fill="none" xmlns="http://www.w3.org/2000/svg">
<path d="M232.441 47.7566C233.599 48.8559 234.853 49.9551 236.204 50.9544C237.555 52.0537 239.099 52.4534 240.739 52.0537C242.669 51.6539 244.695 51.3541 246.625 50.9544C247.011 50.8545 247.397 50.5547 247.879 50.2549C247.204 49.6553 246.818 49.2556 246.335 48.8559C239.002 42.5602 231.669 36.3644 224.432 30.0687C222.503 28.3699 220.766 26.6711 219.705 24.2727C217.582 19.1762 213.722 15.7785 208.898 13.68C196.065 8.08382 182.749 6.48491 169.048 8.58347C161.618 9.78265 154.575 8.78334 148.207 4.38635C145.312 2.38772 142.031 1.18854 138.558 0.489022C133.347 -0.610224 129.488 1.78813 128.137 7.0845C126.304 14.2796 127.172 21.0749 131.997 26.9709C137.207 33.3665 143.865 36.7642 151.873 37.1639C157.566 37.4637 163.066 36.5643 168.566 35.1653C170.495 34.6656 172.425 34.3658 174.355 33.8661C174.355 33.9661 174.451 34.066 174.451 34.2659C174.065 34.5657 173.583 34.8655 173.101 35.0653C170.978 36.1646 168.759 37.1639 166.636 38.1632C157.662 42.5602 148.4 45.758 138.365 46.4575C131.225 46.9572 124.374 48.9558 117.716 51.654C106.909 56.0509 97.3571 62.4466 89.7345 71.5403C81.6295 81.1337 77.0945 97.8223 86.1645 113.012C88.9626 117.709 92.2432 122.106 95.9098 126.003C102.471 132.898 109.804 138.594 117.716 143.791C131.514 152.785 146.18 159.68 161.329 165.676C165.767 167.475 170.495 168.174 175.223 167.874C187.477 167.175 197.03 161.279 203.88 150.886C213.047 136.995 209.477 118.708 196.161 109.414C190.662 105.617 184.583 104.018 178.118 105.717C171.46 107.416 166.346 111.213 163.934 118.208C161.811 124.404 163.934 130.8 169.145 134.197C170.978 135.397 173.004 135.996 175.513 135.397C174.741 134.797 174.162 134.397 173.68 133.998C172.136 132.798 170.978 131.199 170.302 129.201C168.855 124.504 170.978 120.207 175.416 118.808C179.662 117.509 183.521 118.308 186.802 121.406C193.942 128.002 193.46 139.394 185.837 145.49C181.302 149.087 176.092 149.987 170.495 149.587C165.671 149.287 161.136 147.588 156.601 145.989C146.18 142.192 136.146 137.495 126.883 131.1C119.357 125.903 112.602 119.907 107.392 112.212C104.304 107.616 101.989 102.719 101.603 97.0229C101.024 88.4287 103.05 80.8339 109.418 74.938C116.172 68.5424 123.891 63.6457 132.093 59.8483C139.523 56.4507 147.242 56.1509 154.768 59.7484C155.25 59.9483 155.733 60.0482 156.215 60.2481C156.891 57.5499 157.469 55.0516 158.338 52.5533C161.522 42.9599 167.794 37.2638 177.636 35.8648C185.837 34.7655 192.205 38.2631 197.512 44.359C197.898 44.7587 197.995 45.3583 198.284 45.8579C196.837 45.4582 195.775 44.7587 194.618 44.1591C192.205 42.9599 189.793 41.5609 187.188 40.7614C180.337 38.6628 173.969 39.962 168.855 45.2583C163.645 50.5547 161.618 56.9503 163.548 64.2453C165.575 71.7402 170.109 77.0366 177.636 78.5355C184.39 79.9346 191.047 78.9352 196.74 74.5383C197.03 74.3384 197.223 74.1385 197.512 74.0386C198.67 73.439 199.731 73.2392 200.696 74.6382C198.381 78.6355 193.653 78.8353 190.083 81.7333C191.337 82.0331 192.205 82.4329 193.074 82.5328C194.714 82.7327 196.258 82.9325 197.898 83.0324C204.363 83.5321 210.538 85.131 216.327 88.029C217.582 88.6286 218.836 89.3281 220.091 89.8278C223.95 91.4267 227.81 91.3268 231.38 89.0283C235.529 86.3302 237.651 82.1331 238.423 77.1365C238.52 76.7368 238.423 76.437 238.327 75.7374C237.458 76.337 236.783 76.8367 236.108 77.3363C232.827 79.6348 229.16 80.9339 225.204 80.1344C220.476 79.2351 216.038 77.4363 212.178 74.2385C211.696 73.8387 211.31 73.439 210.731 72.7395C212.854 72.1399 214.687 72.6396 216.327 73.2392C217.968 73.8387 219.608 74.7381 221.248 75.3377C229.16 78.3357 236.976 75.0379 240.836 67.3432C241.607 65.8442 241.8 64.5451 240.932 63.0461C239.774 60.8476 238.713 58.6492 237.362 56.5506C235.239 53.3528 232.923 50.3548 230.801 47.3569C230.511 46.9572 230.318 46.4575 230.125 45.9578C230.318 45.758 230.608 45.6581 230.801 45.4582C231.38 46.3576 231.862 47.157 232.441 47.7566ZM162.969 30.6683C155.154 30.9681 147.531 29.9688 140.873 25.1721C137.207 22.5739 134.602 19.2761 134.119 14.5794C133.926 13.0804 134.023 11.5814 134.312 10.0824C134.891 7.48423 136.628 6.18512 139.233 6.38498C141.452 6.58485 143.382 7.48423 145.215 8.58347C147.531 10.0824 149.364 12.0811 150.908 14.3795C152.163 16.2782 153.32 18.2768 154.768 20.0756C156.312 22.0742 158.145 23.7731 159.785 25.5718C159.785 25.6718 159.689 25.8716 159.689 25.9715C158.917 25.5718 158.048 25.272 157.277 24.8723C154.575 23.3733 152.452 21.1748 150.522 18.7765C148.786 16.578 146.952 14.5794 145.119 12.5807C143.479 10.782 141.259 9.98252 139.04 9.38293C136.821 8.88327 135.76 10.0824 136.242 12.3809C136.917 15.4787 138.172 18.2768 140.198 20.6752C144.926 26.5711 151.101 28.9695 158.338 29.0694C160.075 29.0694 161.715 29.0694 163.452 29.0694C164.031 29.0694 164.61 29.2693 165.285 29.3692C164.706 30.6683 163.741 30.6683 162.969 30.6683ZM216.52 40.8614C216.038 40.5616 215.556 40.2618 215.073 39.862C213.529 38.5629 211.985 37.2638 210.442 35.9647C208.512 34.3658 206.389 33.4664 203.784 33.5663C201.179 33.6663 199.153 32.667 197.898 30.1687C197.03 28.4698 195.486 27.7703 193.749 27.4705C192.495 27.2707 191.24 26.9709 190.083 26.6711C190.083 26.4712 190.083 26.2713 190.083 26.0715C190.855 25.8716 191.626 25.5718 192.398 25.4719C195.582 25.372 198.67 25.372 201.854 25.4719C204.266 25.5718 206.293 26.5711 207.836 28.5698C210.538 32.0674 213.336 35.465 216.038 38.9626C216.424 39.3624 216.617 39.962 216.906 40.4616C216.81 40.6615 216.617 40.7614 216.52 40.8614Z" fill="black"/>
<path d="M219.415 254.215C221.537 254.215 223.467 254.215 225.397 254.215C225.879 252.316 226.072 193.756 225.397 190.958C216.809 213.243 208.511 235.728 200.117 258.112C199.056 258.112 198.091 258.112 197.029 258.112C187.573 234.928 178.214 211.844 168.662 188.46C168.083 190.359 167.89 250.018 168.372 254.215C171.653 254.215 175.03 254.215 178.504 254.215C178.504 255.214 178.504 255.914 178.504 256.713C171.653 256.713 164.899 256.713 158.048 256.713C158.048 256.014 157.951 255.314 157.855 254.415C160.46 254.415 162.872 254.415 165.188 254.415C165.767 252.516 165.96 188.86 165.478 184.463C163.065 184.463 160.557 184.463 157.951 184.463C157.951 183.364 157.951 182.664 157.951 181.765C167.6 181.765 177.056 181.765 186.705 181.765C193.363 198.253 200.02 214.842 206.871 231.93C209.283 226.034 211.213 220.438 213.336 214.942C215.459 209.446 217.485 203.949 219.511 198.453C221.634 192.857 223.66 187.261 225.783 181.765C234.467 181.765 242.861 181.765 251.545 181.765C251.545 182.664 251.545 183.364 251.545 184.363C249.519 184.363 247.493 184.363 245.37 184.363C245.37 207.747 245.37 230.831 245.37 254.215C247.396 254.215 249.326 254.215 251.545 254.215C251.545 255.214 251.545 255.914 251.545 256.813C240.835 256.813 230.221 256.813 219.608 256.813C219.511 256.513 219.318 256.314 219.318 256.014C219.318 255.414 219.318 255.014 219.415 254.215Z" fill="black"/>
<path d="M93.1116 53.0532C92.6292 54.1525 92.1468 55.1518 91.6643 56.251C88.0942 63.3462 82.9804 68.8424 76.2262 72.6398C70.7263 75.7377 65.9019 79.635 61.9458 84.6316C57.8933 89.828 55.1917 95.724 55.1917 102.619C55.2881 111.013 58.3758 117.809 64.8405 122.905C69.8579 126.803 75.5507 129.201 81.6295 130.6C85.4891 131.499 89.4451 131.699 93.3046 132.199C94.0765 132.299 94.9449 132.299 95.5239 132.699C98.901 134.897 102.278 137.196 105.945 139.794C105.076 140.094 104.497 140.293 104.015 140.393C90.5065 143.591 77.0946 143.391 63.9721 138.395C57.6039 135.996 52.0075 132.399 47.762 126.803C39.464 115.81 38.7886 103.918 44.3849 91.4269C46.7007 86.2305 50.3672 82.0333 54.8057 78.4358C57.0249 76.637 59.2442 74.9382 61.4634 73.2394C62.0423 72.7397 62.6213 72.2401 63.0072 71.3407C62.5248 71.4406 62.0423 71.3407 61.6564 71.5405C58.4723 73.0395 54.9987 74.3386 52.0075 76.2373C42.3587 82.4331 36.5694 91.5268 35.315 103.319C33.8677 116.61 38.5956 127.302 48.5339 135.797C54.9987 141.293 62.3318 144.391 70.4368 145.89C77.4805 147.189 84.4277 148.188 91.5678 147.588C97.2607 147.089 102.761 145.99 107.971 143.891C109.997 143.091 111.444 143.191 112.988 144.59C113.374 144.99 113.857 145.29 114.436 145.69C113.857 146.089 113.471 146.589 112.892 146.789C104.69 151.586 96.0063 154.484 86.6469 155.583C73.621 157.182 60.981 155.083 48.5339 151.086C38.6921 147.988 32.1309 140.693 27.21 131.599C18.8155 116.11 22.0961 91.5268 38.4991 78.7356C43.999 74.4386 49.8848 71.2407 56.7355 69.7418C64.937 67.943 72.8491 65.2449 80.1822 61.0477C83.8488 58.9492 87.3223 56.3509 90.8924 53.9526C91.4713 53.5529 92.0503 53.1531 92.5327 52.7534C92.9187 52.8533 93.0152 52.9533 93.1116 53.0532Z" fill="black"/>
<path d="M57.5072 210.646C58.4721 210.646 59.051 210.646 60.1124 210.646C60.1124 215.642 60.2088 220.639 60.0159 225.835C59.244 225.935 58.5685 225.935 57.8931 225.935C57.7001 225.635 57.6037 225.435 57.6037 225.235C57.4107 224.536 57.4107 223.836 57.2177 223.137C56.5423 221.138 54.709 220.139 52.7792 220.739C52.1038 220.938 51.5249 221.238 50.8495 221.538C43.2269 225.136 35.3148 227.334 26.9203 227.034C20.938 226.834 15.3417 225.335 10.4208 221.538C3.18412 216.042 0.0964885 208.447 0 199.353C0 190.759 3.57008 183.964 9.64885 178.468C15.1487 173.471 21.5169 170.173 28.2711 167.575C44.7707 161.179 61.7527 158.581 79.3136 159.381C88.7694 159.78 97.9359 158.181 106.62 154.384C108.453 153.585 110.286 152.685 112.023 151.686C113.663 150.687 115.111 149.387 116.848 148.088C118.198 149.088 119.646 150.087 120.997 151.186C121.383 151.486 121.769 152.186 121.865 152.785C122.637 157.082 122.347 161.279 120.804 165.277C118.874 170.373 115.207 173.371 110.19 174.87C105.848 176.169 101.313 176.269 96.8745 175.57C86.1643 173.971 75.454 172.771 64.6473 172.672C51.3319 172.672 38.113 173.971 25.473 178.667C21.131 180.266 17.0785 182.365 13.5084 185.263C3.3771 193.557 4.05252 206.848 9.93832 215.042C13.2189 219.539 17.8504 221.838 22.9643 223.137C30.2974 225.036 37.534 224.536 44.6742 222.437C47.9548 221.438 51.2354 220.039 54.4195 218.74C56.4458 217.94 57.3142 216.342 57.3142 214.043C57.4107 212.944 57.5072 211.845 57.5072 210.646Z" fill="black"/>
<path d="M116.365 184.063C116.365 196.155 116.365 207.647 116.365 219.239C116.654 219.339 116.847 219.539 117.04 219.439C121.093 219.239 125.242 219.239 129.294 218.74C133.057 218.24 134.601 216.341 135.277 212.444C135.566 210.845 135.663 209.246 135.856 207.547C136.435 207.447 137.11 207.447 137.785 207.347C137.978 207.647 138.171 207.847 138.171 208.047C138.268 208.447 138.268 208.846 138.268 209.246C138.268 217.041 138.268 224.736 138.268 232.53C138.268 233.03 138.171 233.43 138.171 234.029C137.399 234.029 136.627 234.029 135.856 234.029C135.663 232.23 135.47 230.631 135.277 228.933C134.794 225.535 133.057 223.436 129.68 222.837C125.338 222.037 120.996 222.137 116.461 222.137C116.461 232.83 116.461 243.323 116.461 254.115C118.97 254.115 121.382 254.115 123.891 254.115C123.891 255.115 123.891 255.714 123.891 256.614C112.795 256.614 101.699 256.614 90.506 256.614C90.4095 256.214 90.4095 255.914 90.313 255.514C90.313 255.215 90.313 254.915 90.4095 254.215C92.4357 254.215 94.462 254.215 96.6812 254.215C96.6812 230.731 96.6812 207.647 96.6812 184.263C94.655 184.263 92.6287 184.263 90.506 184.263C90.4095 183.264 90.4095 182.564 90.4095 181.665C110.286 181.665 129.97 181.665 149.846 181.665C149.846 189.26 149.846 196.755 149.846 204.25C149.46 204.349 149.171 204.449 148.882 204.449C148.496 204.449 148.11 204.349 147.627 204.349C147.434 202.251 147.241 200.252 147.048 198.154C147.048 197.654 146.952 197.154 146.855 196.755C145.504 189.46 141.645 185.562 134.119 184.863C128.329 184.263 122.444 184.263 116.365 184.063Z" fill="black"/>
<path d="M164.223 77.3363C159.978 77.8359 155.829 77.9359 151.873 78.9352C140.487 81.6333 132.672 88.7285 129.198 100.42C127.365 106.616 127.944 112.912 129.198 119.108C129.488 120.507 129.777 121.906 130.066 123.704C129.102 123.205 128.426 122.905 127.944 122.505C121.479 116.909 116.269 110.414 114.435 101.62C111.927 90.0276 114.628 80.0344 123.119 71.7401C128.619 66.4437 134.794 63.0461 142.321 62.1467C149.171 61.3472 154.768 63.2459 158.82 69.3418C160.46 71.7401 162.197 74.0385 163.934 76.4369C163.934 76.7367 164.03 77.0365 164.223 77.3363Z" fill="black"/>
<path d="M76.129 21.0751C76.2255 19.5761 76.4185 18.0772 74.6817 17.2777C74.2957 17.0778 74.0063 16.6781 73.7168 16.2784C70.1467 11.5816 65.5153 10.3824 60.1119 11.6816C52.4893 13.5802 46.893 22.3742 48.5333 30.2688C49.8841 36.8643 53.4542 41.9608 59.8225 44.3591C65.0328 46.3578 70.4362 46.8574 76.0325 46.4577C83.4621 45.8581 90.3128 43.4598 96.9705 40.162C98.5144 39.3626 100.155 38.6631 101.988 38.3633C101.795 38.6631 101.602 38.9629 101.409 39.1627C94.2689 44.9587 86.4533 49.3557 77.3834 50.7548C70.1467 51.854 63.0066 51.2544 56.1559 48.8561C50.7525 46.9574 46.507 43.4598 43.5159 38.4632C42.358 36.5645 41.6826 34.2661 40.7177 31.8677C40.5247 33.4666 40.9107 34.7657 41.2967 35.865C45.3492 45.8581 52.4893 52.1538 62.9101 53.9526C68.6994 54.9519 74.3922 54.752 80.085 53.253C81.2429 52.9533 82.4008 52.8533 83.5586 52.6535C83.6551 52.8533 83.6551 52.9533 83.7516 53.1531C83.3657 53.4529 82.9797 53.8526 82.5938 54.0525C76.322 57.5501 69.6643 58.5494 62.6206 57.1504C59.6295 56.5508 56.7348 55.8513 53.8402 54.9519C44.2878 51.9539 38.9809 44.559 38.788 34.1661C38.6915 29.7692 39.0774 25.3722 40.7177 21.275C44.0948 12.5809 49.8841 6.88483 59.147 5.88552C71.8835 4.48648 80.3745 15.0792 79.1202 26.2715C78.3482 32.7671 73.2344 37.5638 67.1556 37.264C60.1119 36.8643 55.0945 28.57 57.7962 21.8746C60.3049 15.7787 67.445 13.98 72.366 18.277C73.4273 19.2763 74.3922 20.4755 75.3571 21.5748C75.8396 21.275 75.936 21.175 76.129 21.0751Z" fill="black"/>
<path d="M45.6391 184.663C45.6391 195.056 45.6391 205.649 45.6391 216.341C47.1829 216.341 48.8232 216.341 50.56 216.341C47.6653 219.439 32.0342 222.637 26.0519 220.339C26.0519 208.547 26.0519 196.555 26.0519 184.463C24.5081 184.463 23.2537 184.463 21.8064 184.463C22.8678 183.064 25.6659 181.765 27.4992 181.665C27.8852 181.665 28.2711 181.665 28.6571 181.665C44.5777 181.665 60.5948 181.665 76.5154 181.665C77.3838 181.665 78.1557 181.665 79.1206 181.665C79.1206 189.36 79.1206 196.755 79.1206 204.449C78.3487 204.449 77.6732 204.549 76.7084 204.649C76.6119 203.65 76.6119 202.95 76.6119 202.151C76.5154 200.752 76.4189 199.253 76.2259 197.854C75.0681 190.059 71.9804 186.162 63.4894 185.063C57.7966 184.363 51.9108 184.663 46.218 184.563C46.025 184.363 45.9285 184.463 45.6391 184.663Z" fill="black"/>
<path d="M137.882 113.312C138.268 112.413 138.751 111.713 139.04 110.814C142.996 98.1224 151.487 90.2278 163.548 86.2306C165.285 85.631 167.118 85.1313 168.951 85.1313C175.223 84.9315 181.398 84.8315 187.67 84.7316C188.732 84.7316 189.793 84.9315 190.951 85.531C190.468 85.7309 189.986 85.9308 189.407 86.0307C183.618 86.9301 177.828 88.0293 172.425 90.4277C162.487 94.7247 154.961 101.72 150.233 111.813C147.627 117.409 146.856 123.405 146.759 129.501C146.759 131.3 146.663 133.098 146.566 135.297C145.601 134.697 144.926 134.398 144.443 133.998C141.935 132.099 139.522 130.1 137.11 128.202C135.856 127.202 135.084 125.803 134.698 124.205C134.119 121.706 133.444 119.308 132.865 116.81C129.681 102.32 138.268 87.6296 152.452 83.4325C156.794 82.1334 161.232 81.7337 165.767 82.0334C166.153 82.0334 166.539 82.1334 166.925 82.1334C167.022 82.1334 167.215 82.3332 167.504 82.5331C165.864 82.8329 164.417 83.0328 162.969 83.3326C152.162 85.631 144.154 91.8267 139.233 102.02C137.689 105.118 136.917 108.415 137.014 111.913C137.014 112.313 137.11 112.712 137.11 113.112C137.303 113.012 137.496 113.112 137.882 113.312Z" fill="black"/>
<path d="M19.6837 256.614C19.6837 256.014 19.5872 255.614 19.5872 255.215C19.5872 255.015 19.6836 254.715 19.7801 254.315C21.7099 254.315 23.7362 254.315 25.9554 254.315C26.1484 251.517 26.0519 248.919 26.0519 246.321C26.0519 243.723 26.0519 241.024 26.0519 238.426C26.0519 235.828 26.0519 233.23 26.0519 230.332C32.7096 230.432 39.0778 229.332 45.5426 227.234C45.5426 236.328 45.5426 245.122 45.5426 253.716C45.832 253.916 45.9285 254.115 46.1215 254.115C51.3319 254.115 56.6388 254.315 61.8491 253.916C72.3664 253.016 76.3224 245.821 77.4803 238.126C77.7697 236.028 77.9627 233.829 78.1557 231.531C78.8311 231.431 79.603 231.431 80.4714 231.331C80.4714 239.825 80.4714 248.22 80.4714 256.714C60.2088 256.614 40.0427 256.614 19.6837 256.614Z" fill="black"/>
<path d="M89.4449 63.8449C88.3836 62.7456 89.059 62.246 89.4449 61.6464C93.015 56.2501 96.7781 50.9537 101.313 46.4568C107.778 39.9612 114.146 33.3657 120.611 26.7703C121.383 25.9708 122.155 25.2713 122.926 24.5718C126.497 27.9694 129.681 31.7668 133.54 34.5649C137.303 37.2631 141.838 38.9619 146.47 41.2603C124.856 42.2597 105.848 49.4547 89.4449 63.8449Z" fill="black"/>
<path d="M248.554 53.6525C247.01 56.5505 245.756 58.9489 244.309 61.8469C243.054 59.1487 242.379 56.7504 241.51 54.0522C243.826 53.9523 245.852 53.3527 248.554 53.6525Z" fill="black"/>
<path d="M43.4199 67.2433C44.0953 66.7437 44.7708 65.9442 45.5427 65.6444C49.3057 64.0455 55.9634 62.7464 60.4019 62.6465C59.244 63.5459 46.7005 67.3433 43.7094 67.6431C43.6129 67.5431 43.5164 67.3433 43.4199 67.2433Z" fill="black"/>
</svg>
