<svg width="173" height="47" viewBox="0 0 173 47" fill="none" xmlns="http://www.w3.org/2000/svg">
<path fill-rule="evenodd" clip-rule="evenodd" d="M36.7602 5.08838H10.4682C7.52001 5.08838 5.13021 7.48365 5.13021 10.4384C5.13021 13.3932 7.52001 15.7883 10.4682 15.7883H23.8733L2.29442 37.4158C0.209478 39.5047 0.209478 42.8922 2.29442 44.9817C4.3789 47.0709 7.75878 47.0709 9.84326 44.9817L31.4221 23.3545V36.7893C31.4221 39.744 33.812 42.1393 36.7602 42.1393C39.7083 42.1393 42.0981 39.744 42.0981 36.7893V10.4384C42.0981 7.48365 39.7083 5.08838 36.7602 5.08838Z" fill="#CCCCCC"/>
<path fill-rule="evenodd" clip-rule="evenodd" d="M52.1255 41.9118H78.4176C81.3657 41.9118 83.7556 39.5167 83.7556 36.5619C83.7556 33.6071 81.3657 31.2119 78.4176 31.2119H65.0126L86.5914 9.58464C88.6762 7.49549 88.6762 4.10803 86.5914 2.01887C84.5068 -0.0707436 81.1271 -0.0707436 79.0426 2.01887L57.4635 23.6461V10.2109C57.4635 7.25618 55.0737 4.86103 52.1255 4.86103C49.1774 4.86103 46.7875 7.25618 46.7875 10.2109V36.5619C46.7875 39.5167 49.1774 41.9118 52.1255 41.9118Z" fill="#B6B6B6"/>
<path fill-rule="evenodd" clip-rule="evenodd" d="M107.223 18.3135C110.229 18.3135 111.359 15.722 111.359 13.152C111.359 10.4525 110.229 7.86083 107.223 7.86083C104.217 7.86083 103.087 10.4524 103.087 13.152C103.087 15.7219 104.217 18.3135 107.223 18.3135ZM107.223 5.01025C111.935 5.01025 114.706 8.57356 114.706 13.152C114.706 17.6008 111.935 21.1641 107.223 21.1641C102.511 21.1641 99.7395 17.6008 99.7395 13.152C99.7395 8.57356 102.511 5.01025 107.223 5.01025ZM115.857 9.92991H118.657V12.0161H118.699C119.238 10.6036 120.69 9.62564 122.122 9.62564C122.329 9.62564 122.578 9.66937 122.765 9.73456V12.6027C122.495 12.5375 122.059 12.4941 121.707 12.4941C119.55 12.4941 118.803 14.1237 118.803 16.1013V21.1641H115.857V9.92991ZM131.774 15.5113C131.226 15.9559 130.084 15.9771 129.079 16.1465C128.074 16.3369 127.16 16.6545 127.16 17.7555C127.16 18.8776 128.096 19.1528 129.147 19.1528C131.683 19.1528 131.774 17.2897 131.774 16.6335V15.5113ZM124.282 13.2884C124.465 10.4727 127.183 9.62564 129.832 9.62564C132.185 9.62564 135.017 10.1124 135.017 12.7378V18.4332C135.017 19.428 135.132 20.4229 135.429 20.8677H132.14C132.025 20.5289 131.934 20.169 131.911 19.8093C130.883 20.8041 129.376 21.1641 127.937 21.1641C125.698 21.1641 123.916 20.1268 123.916 17.8826C123.916 15.4055 125.927 14.8126 127.937 14.5584C129.924 14.2833 131.774 14.3468 131.774 13.1188C131.774 11.8275 130.815 11.6369 129.672 11.6369C128.439 11.6369 127.64 12.1027 127.525 13.2884H124.282ZM136.58 9.92991H139.464V11.4945H139.528C140.297 10.2342 141.622 9.62564 142.904 9.62564C146.13 9.62564 146.941 11.4727 146.941 14.2542V21.1641H143.908V14.8192C143.908 12.9721 143.374 12.0594 141.964 12.0594C140.319 12.0594 139.614 12.9941 139.614 15.2754V21.1641H136.58L136.58 9.92991ZM156.576 15.5363C156.576 13.6699 155.925 12.0033 153.86 12.0033C152.065 12.0033 151.279 13.5589 151.279 15.2696C151.279 16.9138 151.908 18.7137 153.86 18.7137C155.678 18.7137 156.576 17.1803 156.576 15.5363ZM159.605 20.6911C159.605 22.5799 158.932 25.7795 153.591 25.7795C151.302 25.7795 148.632 24.7128 148.474 22.091H151.638C151.93 23.2685 152.895 23.6686 154.017 23.6686C155.79 23.6686 156.598 22.4688 156.576 20.8244V19.3137H156.531C155.835 20.5134 154.444 21.0914 153.052 21.0914C149.574 21.0914 148.093 18.4693 148.093 15.3141C148.093 12.3365 149.821 9.62575 153.075 9.62575C154.601 9.62575 155.768 10.1369 156.531 11.4702H156.576V9.93672H159.605V20.6911ZM169.082 14.2198C168.792 12.6953 168.1 11.8911 166.56 11.8911C164.551 11.8911 163.971 13.373 163.926 14.2198H169.082ZM163.926 16.1251C164.015 18.0306 164.997 18.8986 166.761 18.8986C168.033 18.8986 169.06 18.1574 169.26 17.48H172.051C171.158 20.0632 169.26 21.1641 166.649 21.1641C163.011 21.1641 160.757 18.7929 160.757 15.4053C160.757 12.1239 163.145 9.62564 166.649 9.62564C170.578 9.62564 172.475 12.7588 172.252 16.1253L163.926 16.1251ZM107.302 36.8884H107.347L110.894 25.7795H115.857V41.9333H112.556V30.4852H112.511L108.581 41.9333H105.864L101.935 30.5983H101.889V41.9333H98.5883V25.7795H103.551L107.302 36.8884ZM123.905 39.668C125.993 39.668 126.617 37.9107 126.617 36.1746C126.617 34.4173 125.993 32.6602 123.905 32.6602C121.839 32.6602 121.215 34.4173 121.215 36.1746C121.215 37.9107 121.839 39.668 123.905 39.668ZM123.905 30.3949C127.413 30.3949 129.672 32.6816 129.672 36.1746C129.672 39.6466 127.413 41.9333 123.905 41.9333C120.419 41.9333 118.16 39.6466 118.16 36.1746C118.16 32.6816 120.419 30.3949 123.905 30.3949ZM130.824 30.6991H133.708V32.2638H133.772C134.541 31.0038 135.866 30.3949 137.147 30.3949C140.373 30.3949 141.185 32.2419 141.185 35.0235V41.9333H138.151V35.5883C138.151 33.7414 137.617 32.8289 136.207 32.8289C134.562 32.8289 133.857 33.7632 133.857 36.0447V41.9333H130.824L130.824 30.6991ZM150.662 34.9891C150.372 33.4647 149.68 32.6602 148.14 32.6602C146.131 32.6602 145.551 34.1424 145.506 34.9891H150.662ZM145.506 36.8946C145.595 38.7996 146.577 39.668 148.341 39.668C149.613 39.668 150.64 38.9268 150.841 38.2493H153.631C152.738 40.8321 150.841 41.9333 148.229 41.9333C144.591 41.9333 142.336 39.5618 142.336 36.1744C142.336 32.8934 144.725 30.3949 148.229 30.3949C152.157 30.3949 154.055 33.5283 153.831 36.8945L145.506 36.8946ZM160.679 42.884C160.006 44.6648 158.944 45.3949 156.819 45.3949C156.191 45.3949 155.562 45.3517 154.933 45.2873V42.7767C155.518 42.8196 156.125 42.9056 156.732 42.884C157.795 42.7767 158.142 41.6824 157.795 40.8026L153.849 30.3949H157.145L159.681 37.9914H159.725L162.175 30.3949H165.362L160.679 42.884Z" fill="#CCCCCC"/>
</svg>
