<svg width="25" height="36" viewBox="0 0 25 36" fill="none" xmlns="http://www.w3.org/2000/svg">
<path d="M6.22025 32.3544C5.6961 32.5285 5.41227 33.0944 5.58629 33.6186C5.76032 34.1427 6.32631 34.4266 6.85046 34.2526L6.22025 32.3544ZM12.9223 33.7276L12.8319 32.7317L12.9223 33.7276ZM16.7545 32.8794L17.1916 33.7788L16.7545 32.8794ZM20.4162 29.5615L19.6403 28.9306L19.6403 28.9306L20.4162 29.5615ZM17.9118 27.4855L17.2061 26.777L17.9118 27.4855ZM16.2254 29.1652L16.9311 29.8737H16.9311L16.2254 29.1652ZM11.6449 28.9106C11.0926 28.9106 10.6449 29.3583 10.6449 29.9106C10.6449 30.4629 11.0926 30.9106 11.6449 30.9106V28.9106ZM20.0268 27.2769L19.4736 28.1099V28.1099L20.0268 27.2769ZM7.83146 26.7204L8.27726 27.6155L8.27726 27.6155L7.83146 26.7204ZM12.4151 26.3027L12.6772 25.3377L12.4151 26.3027ZM14.2051 26.789L13.9429 27.754L14.2051 26.789ZM14.7722 28.9162L14.0665 28.2077L14.7722 28.9162ZM13.0682 29.2021C12.6769 29.5918 12.6756 30.225 13.0654 30.6163C13.4551 31.0076 14.0883 31.0088 14.4796 30.6191L13.0682 29.2021ZM6.85046 34.2526C6.97566 34.211 7.23803 34.1825 7.70196 34.2155C8.14551 34.247 8.66329 34.3244 9.25491 34.4169C10.3796 34.5929 11.7973 34.8338 13.0127 34.7235L12.8319 32.7317C11.9183 32.8146 10.7812 32.6314 9.56404 32.441C8.98472 32.3503 8.38479 32.259 7.84368 32.2205C7.32296 32.1835 6.73374 32.1839 6.22025 32.3544L6.85046 34.2526ZM13.0127 34.7235C14.6644 34.5736 15.4743 34.6135 17.1916 33.7788L16.3173 31.98C14.9866 32.6268 14.5577 32.5751 12.8319 32.7317L13.0127 34.7235ZM17.1916 33.7788C17.9912 33.3901 18.7635 32.7628 19.4282 32.1266C20.1026 31.4812 20.715 30.779 21.1921 30.1924L19.6403 28.9306C19.1946 29.4787 18.6396 30.113 18.0454 30.6817C17.4416 31.2596 16.8444 31.7238 16.3173 31.98L17.1916 33.7788ZM17.2061 26.777L15.5196 28.4567L16.9311 29.8737L18.6175 28.194L17.2061 26.777ZM14.4189 28.9106H11.6449V30.9106H14.4189V28.9106ZM15.5196 28.4567C15.2284 28.7469 14.8325 28.9106 14.4189 28.9106V30.9106C15.3604 30.9106 16.2641 30.5381 16.9311 29.8737L15.5196 28.4567ZM20.58 26.4438C19.5197 25.7397 18.1081 25.8785 17.2061 26.777L18.6175 28.194C18.8454 27.967 19.2043 27.9311 19.4736 28.1099L20.58 26.4438ZM21.1921 30.1924C22.182 28.9749 21.8081 27.2593 20.58 26.4438L19.4736 28.1099C19.799 28.326 19.8254 28.7029 19.6403 28.9306L21.1921 30.1924ZM1.85159 26.6694H5.25796V24.6694H1.85159V26.6694ZM5.10956 26.5176V34.1517H7.10956V26.5176H5.10956ZM5.25796 34H1.85159V36H5.25796V34ZM2 34.1517V26.5176H0V34.1517H2ZM1.85159 34C1.92982 34 2 34.0642 2 34.1517H0C0 35.1762 0.832724 36 1.85159 36V34ZM5.10956 34.1517C5.10956 34.0642 5.17974 34 5.25796 34V36C6.27683 36 7.10956 35.1762 7.10956 34.1517H5.10956ZM5.25796 26.6694C5.17973 26.6694 5.10956 26.6052 5.10956 26.5176H7.10956C7.10956 25.4932 6.27684 24.6694 5.25796 24.6694V26.6694ZM1.85159 24.6694C0.832718 24.6694 0 25.4932 0 26.5176H2C2 26.6052 1.92982 26.6694 1.85159 26.6694V24.6694ZM6.98115 28.261L8.27726 27.6155L7.38566 25.8252L6.08955 26.4707L6.98115 28.261ZM10.4974 27.0935H10.8466V25.0935H10.4974V27.0935ZM12.1529 27.2678L13.9429 27.754L14.4672 25.824L12.6772 25.3377L12.1529 27.2678ZM14.0665 28.2077L13.0682 29.2021L14.4796 30.6191L15.4779 29.6247L14.0665 28.2077ZM13.9429 27.754C14.1507 27.8105 14.2123 28.0624 14.0665 28.2077L15.4779 29.6247C16.7192 28.3883 16.1519 26.2816 14.4672 25.824L13.9429 27.754ZM10.8466 27.0935C11.2879 27.0935 11.7272 27.1521 12.1529 27.2678L12.6772 25.3377C12.0806 25.1756 11.465 25.0935 10.8466 25.0935V27.0935ZM8.27726 27.6155C8.9664 27.2723 9.72651 27.0935 10.4974 27.0935V25.0935C9.41734 25.0935 8.352 25.344 7.38566 25.8252L8.27726 27.6155ZM16.1803 19.7318C16.1803 21.0496 15.1066 22.1247 13.7739 22.1247V24.1247C16.2037 24.1247 18.1803 22.1617 18.1803 19.7318H16.1803ZM13.7739 22.1247C12.4412 22.1247 11.3675 21.0496 11.3675 19.7318H9.36752C9.36752 22.1617 11.344 24.1247 13.7739 24.1247V22.1247ZM11.3675 19.7318C11.3675 18.4139 12.4412 17.3389 13.7739 17.3389V15.3389C11.344 15.3389 9.36752 17.3019 9.36752 19.7318H11.3675ZM13.7739 17.3389C15.1066 17.3389 16.1803 18.4139 16.1803 19.7318H18.1803C18.1803 17.3019 16.2037 15.3389 13.7739 15.3389V17.3389ZM10.3675 18.7318C9.03478 18.7318 7.96115 17.6567 7.96115 16.3389H5.96115C5.96115 18.7687 7.93768 20.7318 10.3675 20.7318V18.7318ZM7.96115 16.3389C7.96115 15.021 9.03479 13.9459 10.3675 13.9459V11.9459C7.93768 11.9459 5.96115 13.909 5.96115 16.3389H7.96115ZM10.3675 13.9459C11.7003 13.9459 12.7739 15.021 12.7739 16.3389H14.7739C14.7739 13.909 12.7974 11.9459 10.3675 11.9459V13.9459Z" fill="#77808B"/>
<path d="M18.0639 3.64554C18.5881 3.47151 18.8719 2.90553 18.6979 2.38138C18.5239 1.85723 17.9579 1.5734 17.4337 1.74742L18.0639 3.64554ZM11.3619 2.27236L11.4523 3.26827L11.3619 2.27236ZM7.52972 3.12059L7.09255 2.22121L7.52972 3.12059ZM3.86801 6.43847L4.64389 7.06935L4.64389 7.06935L3.86801 6.43847ZM6.37242 8.51449L7.07812 9.22299V9.22299L6.37242 8.51449ZM8.05883 6.83473L7.35312 6.12623L7.35312 6.12623L8.05883 6.83473ZM12.6393 7.08941C13.1916 7.08941 13.6393 6.64169 13.6393 6.08941C13.6393 5.53712 13.1916 5.08941 12.6393 5.08941V7.08941ZM4.25736 8.72309L4.81055 7.89003V7.89003L4.25736 8.72309ZM16.4527 9.2796L16.0069 8.38446L16.0069 8.38446L16.4527 9.2796ZM11.8691 9.69723L11.6069 10.6623V10.6623L11.8691 9.69723ZM10.0791 9.21098L10.3413 8.24596V8.24596L10.0791 9.21098ZM9.51198 7.08378L10.2177 7.79228L9.51198 7.08378ZM11.216 6.79791C11.6073 6.40816 11.6085 5.77499 11.2188 5.3837C10.829 4.9924 10.1959 4.99115 9.80458 5.3809L11.216 6.79791ZM17.4337 1.74742C17.3085 1.78899 17.0461 1.81744 16.5822 1.78448C16.1387 1.75297 15.6209 1.6756 15.0293 1.58304C13.9046 1.40708 12.4869 1.16617 11.2715 1.27645L11.4523 3.26827C12.3659 3.18537 13.5029 3.36857 14.7201 3.559C15.2995 3.64964 15.8994 3.74102 16.4405 3.77946C16.9612 3.81645 17.5504 3.81602 18.0639 3.64554L17.4337 1.74742ZM11.2715 1.27645C9.61974 1.42634 8.80984 1.38648 7.09255 2.22121L7.96688 4.01997C9.29757 3.37316 9.72647 3.42487 11.4523 3.26827L11.2715 1.27645ZM7.09255 2.22121C6.29303 2.60984 5.52071 3.23717 4.85597 3.87336C4.18163 4.51873 3.56914 5.22094 3.09213 5.80758L4.64389 7.06935C5.08956 6.52124 5.64463 5.88692 6.23881 5.31826C6.8426 4.74041 7.4398 4.27618 7.96688 4.01997L7.09255 2.22121ZM7.07812 9.22299L8.76454 7.54323L7.35312 6.12623L5.66671 7.80598L7.07812 9.22299ZM9.86533 7.08941H12.6393V5.08941L9.86533 5.08941V7.08941ZM8.76454 7.54323C9.05581 7.25311 9.4517 7.08941 9.86533 7.08941V5.08941C8.92382 5.08941 8.02007 5.46191 7.35312 6.12623L8.76454 7.54323ZM3.70418 9.55615C4.76447 10.2602 6.17604 10.1215 7.07812 9.22299L5.66671 7.80598C5.43881 8.03298 5.0799 8.06889 4.81055 7.89003L3.70418 9.55615ZM3.09213 5.80758C2.10217 7.02507 2.47605 8.74063 3.70418 9.55615L4.81055 7.89003C4.48516 7.67396 4.45873 7.29706 4.64389 7.06935L3.09213 5.80758ZM22.4326 9.33057H19.0262V11.3306H22.4326V9.33057ZM19.1746 9.48233V1.84824H17.1746V9.48233H19.1746ZM19.0262 2.00002H22.4326V1.62125e-05H19.0262V2.00002ZM22.2842 1.84824V9.48233H24.2842V1.84824H22.2842ZM22.4326 2.00002C22.3544 2.00002 22.2842 1.93579 22.2842 1.84824H24.2842C24.2842 0.823764 23.4515 1.62125e-05 22.4326 1.62125e-05V2.00002ZM19.1746 1.84824C19.1746 1.93579 19.1044 2.00002 19.0262 2.00002V1.62125e-05C18.0073 1.62125e-05 17.1746 0.823764 17.1746 1.84824H19.1746ZM19.0262 9.33057C19.1044 9.33057 19.1746 9.39479 19.1746 9.48233H17.1746C17.1746 10.5068 18.0073 11.3306 19.0262 11.3306V9.33057ZM22.4326 11.3306C23.4515 11.3306 24.2842 10.5068 24.2842 9.48233H22.2842C22.2842 9.39479 22.3544 9.33057 22.4326 9.33057V11.3306ZM17.303 7.73897L16.0069 8.38446L16.8985 10.1747L18.1946 9.52923L17.303 7.73897ZM13.7868 8.90645H13.4376V10.9065H13.7868V8.90645ZM12.1312 8.7322L10.3413 8.24596L9.81697 10.176L11.6069 10.6623L12.1312 8.7322ZM10.2177 7.79228L11.216 6.79791L9.80458 5.3809L8.80627 6.37528L10.2177 7.79228ZM10.3413 8.24596C10.1335 8.18951 10.0719 7.93753 10.2177 7.79228L8.80627 6.37528C7.56502 7.61163 8.13225 9.71835 9.81697 10.176L10.3413 8.24596ZM13.4376 8.90645C12.9963 8.90645 12.5569 8.84784 12.1312 8.7322L11.6069 10.6623C12.2036 10.8243 12.8192 10.9065 13.4376 10.9065V8.90645ZM16.0069 8.38446C15.3178 8.72767 14.5577 8.90645 13.7868 8.90645V10.9065C14.8668 10.9065 15.9322 10.656 16.8985 10.1747L16.0069 8.38446Z" fill="#77808B"/>
</svg>
