<svg width="47" height="46" viewBox="0 0 47 46" fill="none" xmlns="http://www.w3.org/2000/svg">
<path d="M42.9412 8.47797C43.1551 8.67404 43.3868 8.87012 43.6364 9.04837C43.8859 9.24445 44.1711 9.31575 44.4742 9.24445C44.8307 9.17315 45.205 9.11967 45.5615 9.04837C45.6328 9.03055 45.7041 8.97707 45.7932 8.9236C45.6685 8.81664 45.5971 8.74535 45.508 8.67404C44.1533 7.55106 42.7986 6.44589 41.4617 5.3229C41.1052 5.01988 40.7843 4.71685 40.5883 4.28904C40.1961 3.37996 39.4831 2.7739 38.5918 2.39957C36.2211 1.40136 33.7612 1.11615 31.23 1.49048C29.8575 1.70439 28.5562 1.52613 27.3798 0.741825C26.845 0.385321 26.239 0.171418 25.5973 0.0466419C24.6347 -0.149435 23.9217 0.278369 23.6721 1.22311C23.3335 2.50652 23.4939 3.71863 24.3851 4.77032C25.3477 5.91114 26.5777 6.51719 28.0571 6.5885C29.1088 6.64197 30.1249 6.48154 31.1409 6.23199C31.4974 6.14286 31.8539 6.08939 32.2104 6.00026C32.2104 6.01809 32.2282 6.03591 32.2282 6.07156C32.1569 6.12504 32.0678 6.17851 31.9787 6.21416C31.5865 6.41024 31.1766 6.5885 30.7844 6.76675C29.1267 7.55106 27.4154 8.12146 25.5616 8.24624C24.2425 8.33536 22.977 8.69187 21.747 9.17315C19.7506 9.95746 17.9859 11.0983 16.5777 12.7204C15.0804 14.4316 14.2426 17.4084 15.9182 20.1178C16.4351 20.9556 17.0412 21.7399 17.7185 22.4351C18.9306 23.665 20.2853 24.6811 21.747 25.608C24.296 27.2123 27.0055 28.4422 29.804 29.5117C30.624 29.8326 31.4974 29.9573 32.3708 29.9039C34.6346 29.7791 36.3993 28.7274 37.6649 26.8736C39.3583 24.3959 38.6988 21.1339 36.2389 19.4761C35.2229 18.7988 34.0999 18.5136 32.9056 18.8166C31.6757 19.1196 30.7309 19.797 30.2853 21.0447C29.8931 22.1499 30.2853 23.2907 31.2479 23.8968C31.5865 24.1107 31.9609 24.2176 32.4243 24.1107C32.2817 24.0037 32.1748 23.9324 32.0856 23.8611C31.8004 23.6472 31.5865 23.362 31.4618 23.0055C31.1944 22.1677 31.5865 21.4012 32.4065 21.1517C33.1908 20.92 33.9038 21.0626 34.5099 21.6151C35.8289 22.7916 35.7398 24.8237 34.3316 25.911C33.4938 26.5527 32.5313 26.7132 31.4974 26.6419C30.6061 26.5884 29.7684 26.2854 28.9306 26.0002C27.0055 25.3228 25.1516 24.485 23.4404 23.3442C22.05 22.4173 20.8023 21.3478 19.8397 19.9752C19.2693 19.1553 18.8415 18.2818 18.7702 17.2658C18.6633 15.7328 19.0376 14.3781 20.214 13.3264C21.4618 12.1856 22.8878 11.3122 24.403 10.6348C25.7755 10.0288 27.2015 9.97528 28.5919 10.617C28.681 10.6526 28.7702 10.6705 28.8593 10.7061C28.9841 10.2248 29.091 9.77921 29.2514 9.33358C29.8397 7.62236 30.9983 6.60632 32.8165 6.35677C34.3316 6.16069 35.5081 6.78457 36.4885 7.87191C36.5598 7.94321 36.5776 8.05016 36.6311 8.13929C36.3637 8.06799 36.1676 7.94321 35.9537 7.83626C35.5081 7.62236 35.0625 7.3728 34.5812 7.2302C33.3156 6.85587 32.1391 7.0876 31.1944 8.03234C30.2318 8.97707 29.8575 10.1179 30.214 11.4191C30.5883 12.756 31.4261 13.7008 32.8165 13.9681C34.0642 14.2177 35.2942 14.0394 36.3459 13.2551C36.3993 13.2195 36.435 13.1838 36.4885 13.166C36.7024 13.059 36.8984 13.0234 37.0767 13.273C36.6489 13.986 35.7755 14.0216 35.1159 14.5385C35.3477 14.592 35.5081 14.6633 35.6685 14.6811C35.9715 14.7168 36.2567 14.7524 36.5598 14.7703C37.7541 14.8594 38.8949 15.1446 39.9644 15.6615C40.1961 15.7685 40.4278 15.8933 40.6596 15.9824C41.3726 16.2676 42.0856 16.2498 42.7451 15.8398C43.5116 15.3585 43.9038 14.6098 44.0464 13.7186C44.0642 13.6473 44.0464 13.5938 44.0285 13.469C43.8681 13.576 43.7433 13.6651 43.6185 13.7542C43.0125 14.1642 42.3351 14.3959 41.6043 14.2533C40.7309 14.0929 39.9109 13.7721 39.1979 13.2016C39.1088 13.1303 39.0375 13.059 38.9305 12.9343C39.3227 12.8273 39.6614 12.9164 39.9644 13.0234C40.2674 13.1303 40.5704 13.2908 40.8735 13.3977C42.3351 13.9325 43.779 13.3443 44.492 11.9717C44.6346 11.7043 44.6702 11.4726 44.5098 11.2052C44.2959 10.8131 44.0998 10.4209 43.8503 10.0466C43.4581 9.47618 43.0303 8.94142 42.6382 8.40667C42.5847 8.33537 42.549 8.24624 42.5134 8.15711C42.549 8.12146 42.6025 8.10364 42.6382 8.06799C42.7451 8.22841 42.8342 8.37101 42.9412 8.47797ZM30.107 5.42986C28.6632 5.48333 27.255 5.30508 26.0251 4.44947C25.3477 3.98601 24.8664 3.39778 24.7773 2.56C24.7417 2.29262 24.7595 2.02524 24.813 1.75786C24.9199 1.29441 25.2408 1.06268 25.722 1.09833C26.132 1.13398 26.4885 1.29441 26.8272 1.49048C27.255 1.75786 27.5937 2.11437 27.8789 2.52435C28.1106 2.86303 28.3245 3.21953 28.5919 3.54038C28.8771 3.89689 29.2158 4.19992 29.5188 4.52077C29.5188 4.53859 29.501 4.57424 29.501 4.59207C29.3584 4.52077 29.198 4.46729 29.0554 4.39599C28.5562 4.12862 28.1641 3.73646 27.8076 3.30865C27.4867 2.9165 27.1481 2.56 26.8094 2.20349C26.5063 1.88264 26.0964 1.74004 25.6864 1.63309C25.2764 1.54396 25.0803 1.75786 25.1695 2.16784C25.2942 2.72042 25.526 3.21953 25.9003 3.64734C26.7737 4.69902 27.9145 5.12683 29.2514 5.14465C29.5723 5.14465 29.8753 5.14465 30.1962 5.14465C30.3031 5.14465 30.4101 5.1803 30.5348 5.19813C30.4279 5.42986 30.2496 5.42986 30.107 5.42986ZM40 7.24803C39.9109 7.19455 39.8218 7.14108 39.7327 7.06978C39.4475 6.83805 39.1622 6.60632 38.877 6.37459C38.5205 6.08939 38.1284 5.92896 37.6471 5.94679C37.1658 5.96461 36.7915 5.78636 36.5598 5.34073C36.3993 5.0377 36.1141 4.91292 35.7933 4.85945C35.5616 4.8238 35.3298 4.77032 35.1159 4.71685C35.1159 4.6812 35.1159 4.64555 35.1159 4.6099C35.2585 4.57424 35.4011 4.52077 35.5437 4.50294C36.132 4.48512 36.7024 4.48512 37.2906 4.50294C37.7362 4.52077 38.1106 4.69902 38.3958 5.05553C38.8949 5.67941 39.4118 6.28546 39.9109 6.90935C39.9822 6.98065 40.0179 7.0876 40.0713 7.17672C40.0535 7.21238 40.0179 7.2302 40 7.24803Z" fill="#DFBC8A"/>
<path d="M40.5346 45.3048C40.9268 45.3048 41.2833 45.3048 41.6398 45.3048C41.7289 44.9661 41.7645 34.5206 41.6398 34.0215C40.0533 37.9965 38.5204 42.0071 36.9696 46C36.7735 46 36.5952 46 36.3991 46C34.6523 41.8645 32.9232 37.7469 31.1585 33.5758C31.0516 33.9145 31.0159 44.5562 31.1051 45.3048C31.7111 45.3048 32.335 45.3048 32.9767 45.3048C32.9767 45.4831 32.9767 45.6078 32.9767 45.7504C31.7111 45.7504 30.4634 45.7504 29.1978 45.7504C29.1978 45.6257 29.1799 45.5009 29.1621 45.3405C29.6434 45.3405 30.089 45.3405 30.5168 45.3405C30.6238 45.0018 30.6594 33.6471 30.5703 32.8628C30.1247 32.8628 29.6612 32.8628 29.1799 32.8628C29.1799 32.6667 29.1799 32.542 29.1799 32.3815C30.9625 32.3815 32.7093 32.3815 34.4919 32.3815C35.7218 35.3227 36.9517 38.2817 38.2173 41.3298C38.663 40.2781 39.0195 39.2799 39.4116 38.2995C39.8038 37.3191 40.1781 36.3387 40.5524 35.3583C40.9446 34.3601 41.3189 33.3619 41.7111 32.3815C43.3153 32.3815 44.8661 32.3815 46.4704 32.3815C46.4704 32.542 46.4704 32.6667 46.4704 32.845C46.0961 32.845 45.7217 32.845 45.3296 32.845C45.3296 37.0161 45.3296 41.1337 45.3296 45.3048C45.7039 45.3048 46.0604 45.3048 46.4704 45.3048C46.4704 45.4831 46.4704 45.6078 46.4704 45.7683C44.4918 45.7683 42.531 45.7683 40.5702 45.7683C40.5524 45.7148 40.5168 45.6791 40.5168 45.6257C40.5168 45.5187 40.5168 45.4474 40.5346 45.3048Z" fill="#DFBC8A"/>
<path d="M17.2015 9.42262C17.1124 9.61869 17.0233 9.79695 16.9341 9.99302C16.2746 11.2586 15.3299 12.239 14.0821 12.9164C13.0661 13.4689 12.1748 14.1641 11.444 15.0554C10.6953 15.9823 10.1962 17.034 10.1962 18.2639C10.214 19.7612 10.7844 20.9734 11.9787 21.8824C12.9056 22.5776 13.9573 23.0054 15.0803 23.255C15.7933 23.4154 16.5241 23.4511 17.2372 23.5402C17.3798 23.558 17.5402 23.558 17.6471 23.6293C18.271 24.0215 18.8949 24.4314 19.5723 24.8949C19.4118 24.9484 19.3049 24.984 19.2158 25.0019C16.7202 25.5723 14.2425 25.5366 11.8183 24.6453C10.6418 24.2175 9.60797 23.5758 8.82366 22.5776C7.29069 20.6169 7.16591 18.4956 8.19977 16.2675C8.62758 15.3406 9.30494 14.5919 10.1249 13.9502C10.5349 13.6294 10.9449 13.3263 11.3548 13.0233C11.4618 12.9342 11.5687 12.8451 11.64 12.6846C11.5509 12.7025 11.4618 12.6846 11.3905 12.7203C10.8023 12.9877 10.1605 13.2194 9.60797 13.5581C7.82545 14.6632 6.75593 16.2853 6.5242 18.3887C6.25683 20.7595 7.13026 22.6668 8.96626 24.1819C10.1605 25.1623 11.5153 25.7149 13.0126 25.9822C14.3138 26.214 15.5972 26.3922 16.9163 26.2853C17.968 26.1961 18.984 26.0001 19.9466 25.6257C20.3209 25.4831 20.5883 25.501 20.8735 25.7505C20.9448 25.8218 21.0339 25.8753 21.1409 25.9466C21.0339 26.0179 20.9626 26.107 20.8557 26.1427C19.3405 26.9983 17.7363 27.5152 16.0072 27.7113C13.6008 27.9965 11.2657 27.6222 8.96626 26.9092C7.14809 26.3566 5.93597 25.0553 5.02689 23.4332C3.47609 20.6703 4.08215 16.2853 7.11244 14.0037C8.12847 13.2372 9.21581 12.6668 10.4814 12.3994C11.9965 12.0786 13.4582 11.5973 14.8129 10.8486C15.4903 10.4743 16.132 10.0108 16.7915 9.58304C16.8985 9.51174 17.0054 9.44044 17.0946 9.36914C17.1659 9.38697 17.1837 9.40479 17.2015 9.42262Z" fill="#DFBC8A"/>
<path d="M10.6238 37.533C10.8021 37.533 10.909 37.533 11.1051 37.533C11.1051 38.4243 11.1229 39.3156 11.0873 40.2425C10.9447 40.2603 10.8199 40.2603 10.6951 40.2603C10.6595 40.2068 10.6417 40.1712 10.6417 40.1355C10.606 40.0107 10.606 39.886 10.5704 39.7612C10.4456 39.4047 10.1069 39.2264 9.75039 39.3334C9.62562 39.369 9.51866 39.4225 9.39389 39.476C7.9857 40.1177 6.52403 40.5098 4.97324 40.4564C3.86807 40.4207 2.83421 40.1533 1.92512 39.476C0.588233 38.4956 0.0178252 37.1409 0 35.5188C0 33.9858 0.659533 32.7737 1.78252 31.7933C2.79856 30.9021 3.97502 30.3138 5.22279 29.8504C8.2709 28.7096 11.4081 28.2461 14.6523 28.3887C16.3992 28.46 18.0926 28.1748 19.6969 27.4974C20.0355 27.3548 20.3742 27.1944 20.6951 27.0162C20.9981 26.8379 21.2655 26.6062 21.5863 26.3745C21.8359 26.5527 22.1033 26.731 22.3528 26.927C22.4241 26.9805 22.4954 27.1053 22.5132 27.2122C22.6558 27.9787 22.6024 28.7274 22.3172 29.4404C21.9607 30.3495 21.2833 30.8842 20.3564 31.1516C19.5543 31.3833 18.7165 31.4012 17.8965 31.2764C15.9179 30.9912 13.9393 30.7773 11.9429 30.7595C9.48301 30.7595 7.04096 30.9912 4.70586 31.829C3.90372 32.1142 3.15506 32.4885 2.49553 33.0054C0.623883 34.4849 0.74866 36.8557 1.836 38.3173C2.44205 39.1195 3.29767 39.5295 4.2424 39.7612C5.59712 40.0999 6.93401 40.0107 8.25307 39.6364C8.85913 39.4582 9.46519 39.2086 10.0534 38.9769C10.4278 38.8343 10.5882 38.5491 10.5882 38.1391C10.606 37.943 10.6238 37.7469 10.6238 37.533Z" fill="#DFBC8A"/>
<path d="M21.4974 32.7915C21.4974 34.9484 21.4974 36.9983 21.4974 39.066C21.5509 39.0838 21.5865 39.1195 21.6222 39.1016C22.3708 39.066 23.1373 39.066 23.886 38.9769C24.5811 38.8877 24.8663 38.5491 24.9911 37.8539C25.0446 37.5687 25.0624 37.2835 25.0981 36.9804C25.205 36.9626 25.3298 36.9626 25.4546 36.9448C25.4902 36.9983 25.5259 37.0339 25.5259 37.0696C25.5437 37.1409 25.5437 37.2122 25.5437 37.2835C25.5437 38.6738 25.5437 40.0464 25.5437 41.4367C25.5437 41.5259 25.5259 41.5972 25.5259 41.7041C25.3833 41.7041 25.2407 41.7041 25.0981 41.7041C25.0624 41.3833 25.0268 41.0981 24.9911 40.795C24.902 40.189 24.5811 39.8146 23.9573 39.7077C23.1551 39.5651 22.353 39.5829 21.5152 39.5829C21.5152 41.4902 21.5152 43.3619 21.5152 45.287C21.9787 45.287 22.4243 45.287 22.8877 45.287C22.8877 45.4652 22.8877 45.5722 22.8877 45.7326C20.8378 45.7326 18.7879 45.7326 16.7202 45.7326C16.7024 45.6613 16.7024 45.6078 16.6846 45.5365C16.6846 45.4831 16.6846 45.4296 16.7024 45.3048C17.0767 45.3048 17.4511 45.3048 17.861 45.3048C17.861 41.1159 17.861 36.9983 17.861 32.8272C17.4867 32.8272 17.1124 32.8272 16.7202 32.8272C16.7024 32.6489 16.7024 32.5241 16.7024 32.3637C20.3744 32.3637 24.0107 32.3637 27.6827 32.3637C27.6827 33.7184 27.6827 35.0553 27.6827 36.3922C27.6114 36.41 27.558 36.4279 27.5045 36.4279C27.4332 36.4279 27.3619 36.41 27.2727 36.41C27.2371 36.0357 27.2014 35.6792 27.1658 35.3049C27.1658 35.2157 27.148 35.1266 27.1301 35.0553C26.8806 33.7541 26.1676 33.0589 24.7772 32.9341C23.7077 32.8272 22.6204 32.8272 21.4974 32.7915Z" fill="#DFBC8A"/>
<path d="M30.3383 13.7542C29.554 13.8433 28.7875 13.8612 28.0567 14.0394C25.9533 14.5207 24.5095 15.7863 23.8678 17.8718C23.5291 18.977 23.636 20.1 23.8678 21.2052C23.9212 21.4547 23.9747 21.7043 24.0282 22.0251C23.8499 21.936 23.7252 21.8825 23.636 21.8112C22.4417 20.813 21.4792 19.6544 21.1405 18.0857C20.677 16.018 21.1762 14.2355 22.7448 12.756C23.7608 11.8113 24.9016 11.2052 26.292 11.0448C27.5576 10.9022 28.5914 11.2409 29.3401 12.3282C29.6431 12.756 29.964 13.166 30.2848 13.5938C30.2848 13.6473 30.3027 13.7007 30.3383 13.7542Z" fill="#DFBC8A"/>
<path d="M14.064 3.71863C14.0818 3.45125 14.1175 3.18387 13.7966 3.04127C13.7253 3.00562 13.6718 2.93432 13.6184 2.86302C12.9588 2.02523 12.1032 1.81133 11.105 2.04306C9.69681 2.38174 8.66295 3.95035 8.96598 5.35855C9.21553 6.53501 9.87506 7.4441 11.0515 7.8719C12.0141 8.22841 13.0123 8.31753 14.0462 8.24623C15.4187 8.13928 16.6843 7.71148 17.9142 7.12324C18.1994 6.98064 18.5025 6.85587 18.8411 6.80239C18.8055 6.85587 18.7698 6.90934 18.7342 6.94499C17.4151 7.97885 15.9713 8.76316 14.2957 9.01271C12.9588 9.20879 11.6398 9.10184 10.3742 8.67404C9.37596 8.33536 8.59165 7.71147 8.03907 6.82021C7.82517 6.48153 7.70039 6.07156 7.52214 5.64375C7.48649 5.92895 7.55779 6.16068 7.62909 6.35676C8.37775 8.13928 9.69681 9.26227 11.6219 9.58312C12.6914 9.76137 13.7431 9.72572 14.7948 9.45834C15.0087 9.40487 15.2226 9.38705 15.4365 9.35139C15.4544 9.38705 15.4544 9.40487 15.4722 9.44052C15.4009 9.494 15.3296 9.5653 15.2583 9.60095C14.0996 10.2248 12.8697 10.4031 11.5685 10.1535C11.0159 10.0466 10.4811 9.9218 9.94637 9.76137C8.18167 9.22662 7.20128 7.90755 7.16563 6.05373C7.14781 5.26942 7.21911 4.48511 7.52214 3.75428C8.14602 2.20348 9.21553 1.18745 10.9268 1.0092C13.2797 0.759643 14.8483 2.64911 14.6166 4.64554C14.474 5.80418 13.5292 6.65979 12.4062 6.60631C11.105 6.53501 10.1781 5.05552 10.6772 3.86123C11.1407 2.77389 12.4597 2.45304 13.3688 3.21952C13.5649 3.39777 13.7431 3.61168 13.9214 3.80775C14.0105 3.75428 14.0283 3.73645 14.064 3.71863Z" fill="#DFBC8A"/>
<path d="M8.43115 32.8985C8.43115 34.7523 8.43115 36.6418 8.43115 38.5491C8.71635 38.5491 9.01938 38.5491 9.34023 38.5491C8.80548 39.1016 5.91779 39.672 4.81263 39.2621C4.81263 37.1587 4.81263 35.0197 4.81263 32.8628C4.52743 32.8628 4.2957 32.8628 4.02832 32.8628C4.2244 32.6133 4.74133 32.3815 5.08001 32.3637C5.15131 32.3637 5.22261 32.3637 5.29391 32.3637C8.23507 32.3637 11.1941 32.3637 14.1352 32.3637C14.2956 32.3637 14.4382 32.3637 14.6165 32.3637C14.6165 33.7362 14.6165 35.0553 14.6165 36.4279C14.4739 36.4279 14.3491 36.4457 14.1709 36.4635C14.153 36.2853 14.153 36.1605 14.153 36.0179C14.1352 35.7683 14.1174 35.5009 14.0817 35.2514C13.8678 33.861 13.2974 33.1658 11.7288 32.9698C10.6771 32.845 9.58979 32.8985 8.5381 32.8806C8.50245 32.845 8.48462 32.8628 8.43115 32.8985Z" fill="#DFBC8A"/>
<path d="M25.4726 20.1713C25.5439 20.0109 25.633 19.8861 25.6865 19.7256C26.4173 17.4618 27.9859 16.0537 30.2141 15.3406C30.5349 15.2337 30.8736 15.1446 31.2123 15.1446C32.3709 15.1089 33.5117 15.0911 34.6704 15.0733C34.8665 15.0733 35.0625 15.1089 35.2764 15.2159C35.1873 15.2515 35.0982 15.2872 34.9912 15.305C33.9217 15.4654 32.8522 15.6615 31.854 16.0893C30.018 16.8558 28.6276 18.1036 27.7542 19.9039C27.2729 20.9021 27.1303 21.9716 27.1125 23.059C27.1125 23.3798 27.0947 23.7007 27.0768 24.0928C26.8986 23.9859 26.7738 23.9324 26.6847 23.8611C26.2212 23.5224 25.7756 23.1659 25.33 22.8272C25.0982 22.649 24.9556 22.3994 24.8843 22.1142C24.7774 21.6686 24.6526 21.2408 24.5457 20.7952C23.9574 18.2105 25.5439 15.5902 28.1642 14.8415C28.9663 14.6098 29.7863 14.5385 30.6241 14.592C30.6954 14.592 30.7667 14.6098 30.838 14.6098C30.8558 14.6098 30.8914 14.6455 30.9449 14.6811C30.6419 14.7346 30.3745 14.7702 30.1071 14.8237C28.1107 15.2337 26.6312 16.3389 25.7221 18.157C25.4369 18.7096 25.2943 19.2978 25.3121 19.9217C25.3121 19.993 25.33 20.0643 25.33 20.1356C25.3656 20.1178 25.4013 20.1356 25.4726 20.1713Z" fill="#DFBC8A"/>
<path d="M3.63648 45.7327C3.63648 45.6257 3.61865 45.5544 3.61865 45.4831C3.61865 45.4475 3.63648 45.394 3.6543 45.3227C4.01081 45.3227 4.38514 45.3227 4.79512 45.3227C4.83077 44.8236 4.81294 44.3601 4.81294 43.8967C4.81294 43.4332 4.81294 42.9519 4.81294 42.4885C4.81294 42.025 4.81294 41.5616 4.81294 41.0446C6.04288 41.0625 7.21934 40.8664 8.41363 40.4921C8.41363 42.1142 8.41363 43.6828 8.41363 45.2157C8.46711 45.2514 8.48494 45.2871 8.52059 45.2871C9.48315 45.2871 10.4635 45.3227 11.4261 45.2514C13.369 45.091 14.0999 43.8076 14.3138 42.435C14.3673 42.0607 14.4029 41.6685 14.4386 41.2586C14.5633 41.2407 14.7059 41.2407 14.8664 41.2229C14.8664 42.738 14.8664 44.2354 14.8664 45.7505C11.1231 45.7327 7.3976 45.7327 3.63648 45.7327Z" fill="#DFBC8A"/>
<path d="M16.5242 11.3478C16.3281 11.1518 16.4529 11.0626 16.5242 10.9557C17.1837 9.99312 17.8789 9.04838 18.7167 8.24625C19.911 7.08761 21.0874 5.91115 22.2817 4.73468C22.4243 4.59208 22.5669 4.46731 22.7095 4.34253C23.3691 4.94859 23.9573 5.62594 24.6703 6.12505C25.3655 6.60633 26.2033 6.90936 27.0589 7.31934C23.066 7.49759 19.5545 8.78101 16.5242 11.3478Z" fill="#DFBC8A"/>
<path d="M45.9179 9.5296C45.6327 10.0465 45.401 10.4743 45.1336 10.9913C44.9019 10.51 44.7771 10.0822 44.6167 9.6009C45.0445 9.58308 45.4188 9.47613 45.9179 9.5296Z" fill="#DFBC8A"/>
<path d="M8.02148 11.9539C8.14626 11.8647 8.27104 11.7221 8.41364 11.6687C9.10882 11.3835 10.3388 11.1517 11.1587 11.1339C10.9448 11.2943 8.62754 11.9717 8.07496 12.0252C8.05714 12.0073 8.03931 11.9717 8.02148 11.9539Z" fill="#DFBC8A"/>
</svg>
