<svg width="27" height="27" viewBox="0 0 27 27" fill="none" xmlns="http://www.w3.org/2000/svg">
<path d="M16.875 22.5H5.625C4.13371 22.4982 2.704 21.905 1.6495 20.8505C0.594992 19.796 0.00178634 18.3663 0 16.875L0 5.625C0.00178634 4.13371 0.594992 2.704 1.6495 1.6495C2.704 0.594992 4.13371 0.00178634 5.625 0L16.875 0C18.3663 0.00178634 19.796 0.594992 20.8505 1.6495C21.905 2.704 22.4982 4.13371 22.5 5.625V16.875C22.4982 18.3663 21.905 19.796 20.8505 20.8505C19.796 21.905 18.3663 22.4982 16.875 22.5ZM5.625 2.25C4.72989 2.25 3.87145 2.60558 3.23851 3.23851C2.60558 3.87145 2.25 4.72989 2.25 5.625V16.875C2.25 17.7701 2.60558 18.6286 3.23851 19.2615C3.87145 19.8944 4.72989 20.25 5.625 20.25H16.875C17.7701 20.25 18.6286 19.8944 19.2615 19.2615C19.8944 18.6286 20.25 17.7701 20.25 16.875V5.625C20.25 4.72989 19.8944 3.87145 19.2615 3.23851C18.6286 2.60558 17.7701 2.25 16.875 2.25H5.625ZM27 21.375V6.75C27 6.45163 26.8815 6.16548 26.6705 5.9545C26.4595 5.74353 26.1734 5.625 25.875 5.625C25.5766 5.625 25.2905 5.74353 25.0795 5.9545C24.8685 6.16548 24.75 6.45163 24.75 6.75V21.375C24.75 22.2701 24.3944 23.1286 23.7615 23.7615C23.1286 24.3944 22.2701 24.75 21.375 24.75H6.75C6.45163 24.75 6.16548 24.8685 5.9545 25.0795C5.74353 25.2905 5.625 25.5766 5.625 25.875C5.625 26.1734 5.74353 26.4595 5.9545 26.6705C6.16548 26.8815 6.45163 27 6.75 27H21.375C22.8663 26.9982 24.296 26.405 25.3505 25.3505C26.405 24.296 26.9982 22.8663 27 21.375Z" fill="#DFBC8A"/>
</svg>
