<?xml version="1.0" encoding="UTF-8"?>
<svg xmlns="http://www.w3.org/2000/svg" xmlns:xlink="http://www.w3.org/1999/xlink" width="717.23pt" height="717.23pt" viewBox="0 0 717.23 717.23" version="1.1">
<g id="surface1">
<path style=" stroke:none;fill-rule:nonzero;fill:rgb(100%,39.988708%,0%);fill-opacity:1;" d="M 0 717.230469 L 717.226563 717.230469 L 717.226563 0.00390625 L 0 0.00390625 Z M 0 717.230469 "/>
<path style=" stroke:none;fill-rule:nonzero;fill:rgb(100%,100%,100%);fill-opacity:1;" d="M 88.277344 576.253906 C 68.640625 576.253906 65.054688 593.941406 65.054688 606.71875 C 65.054688 619.492188 68.640625 637.214844 88.277344 637.214844 C 107.910156 637.214844 111.496094 619.492188 111.496094 606.71875 C 111.496094 593.941406 107.910156 576.253906 88.277344 576.253906 M 88.277344 659.390625 C 62.304688 659.390625 38.875 642.855469 38.875 606.71875 C 38.875 570.578125 62.304688 554.046875 88.277344 554.046875 C 114.246094 554.046875 137.640625 570.578125 137.640625 606.71875 C 137.640625 642.855469 114.246094 659.390625 88.277344 659.390625 "/>
<path style=" stroke:none;fill-rule:nonzero;fill:rgb(100%,100%,100%);fill-opacity:1;" d="M 155.65625 556.679688 L 180.652344 556.679688 L 180.652344 568.410156 C 185.421875 562.074219 197.15625 554.621094 208.15625 554.621094 C 209.199219 554.621094 210.488281 554.621094 211.566406 554.761719 L 211.566406 579.445313 L 210.28125 579.445313 C 198.859375 579.445313 186.363281 581.222656 182.324219 590.097656 L 182.324219 656.488281 L 155.65625 656.488281 "/>
<path style=" stroke:none;fill-rule:nonzero;fill:rgb(100%,100%,100%);fill-opacity:1;" d="M 244.566406 626.769531 C 244.566406 633.488281 248.777344 639.757813 256.402344 639.757813 C 264.65625 639.757813 272.695313 636.347656 280.738281 629.242188 L 280.738281 605.605469 C 256.195313 608.632813 244.566406 614.96875 244.566406 626.769531 M 281.363281 647.796875 C 271.199219 654.480469 260.199219 657.71875 248.359375 657.71875 C 229.734375 657.71875 218.699219 645.328125 218.699219 628.6875 C 218.699219 606.335938 239.242188 594.535156 281.574219 589.761719 L 281.574219 584.195313 C 281.574219 576.953125 276.074219 572.707031 265.90625 572.707031 C 255.742188 572.707031 247.492188 576.742188 241.539063 584.195313 L 223.816406 574.097656 C 233.113281 561.078125 247.28125 554.566406 266.324219 554.566406 C 292.367188 554.566406 306.988281 565.847656 306.988281 584.195313 C 306.988281 584.195313 306.953125 656.363281 306.988281 656.539063 L 283.695313 656.539063 "/>
<path style=" stroke:none;fill-rule:nonzero;fill:rgb(100%,100%,100%);fill-opacity:1;" d="M 327.746094 559.335938 L 349.503906 556.34375 L 351.90625 568.179688 C 364.160156 559.195313 373.910156 554.429688 386.164063 554.429688 C 406.703125 554.429688 417.320313 565.324219 417.320313 586.910156 L 417.320313 656.398438 L 391.035156 656.398438 L 391.035156 591.472656 C 391.035156 579.246094 387.871094 573.75 378.363281 573.75 C 370.53125 573.75 362.699219 577.300781 353.753906 584.820313 L 353.753906 656.398438 L 327.746094 656.398438 "/>
<path style=" stroke:none;fill-rule:nonzero;fill:rgb(100%,100%,100%);fill-opacity:1;" d="M 528.46875 556.324219 L 528.46875 650.839844 C 528.46875 667.480469 527.148438 695.015625 479.628906 695.261719 C 459.992188 695.402344 441.785156 687.53125 438.164063 670.40625 L 464.066406 666.226563 C 465.144531 671.136719 468.175781 676.011719 482.867188 676.011719 C 496.480469 676.011719 503.023438 669.503906 503.023438 653.90625 L 503.023438 642.277344 L 502.675781 641.929688 C 498.496094 649.414063 492.160156 656.480469 476.910156 656.480469 C 453.621094 656.480469 435.308594 640.328125 435.308594 606.59375 C 435.308594 573.203125 454.214844 554.511719 475.414063 554.476563 C 495.363281 554.441406 502.710938 563.527344 504.449219 568.296875 L 504.097656 568.261719 L 506.292969 556.324219 Z M 481.609375 635.035156 C 501.527344 634.898438 503.230469 614.597656 503.230469 601.40625 C 503.230469 585.742188 495.605469 573.101563 481.4375 573.101563 C 472.003906 573.101563 461.453125 579.992188 461.453125 602.484375 C 461.453125 614.773438 462.324219 635.210938 481.609375 635.035156 "/>
<path style=" stroke:none;fill-rule:nonzero;fill:rgb(100%,100%,100%);fill-opacity:1;" d="M 610.988281 593.34375 C 610.988281 580.011719 603.324219 572.144531 590.863281 572.144531 C 578.992188 572.144531 571.574219 579.835938 570.53125 593.34375 Z M 591.277344 658.308594 C 561.859375 658.308594 544.320313 639.367188 544.320313 606.539063 C 544.320313 573.328125 562.074219 554.425781 590.863281 554.425781 C 619.652344 554.425781 636.78125 572.773438 636.78125 605.214844 C 636.78125 606.957031 636.574219 608.660156 636.574219 610.371094 L 570.113281 610.371094 C 570.285156 629.3125 578.15625 638.847656 593.613281 638.847656 C 603.535156 638.847656 610.113281 634.84375 616.277344 626.074219 L 635.492188 636.722656 C 627.03125 650.890625 611.785156 658.308594 591.277344 658.308594 "/>
<path style=" stroke:none;fill-rule:nonzero;fill:rgb(100%,100%,100%);fill-opacity:1;" d="M 621.003906 518.804688 L 621.003906 523.191406 L 631.3125 523.191406 L 631.3125 551.808594 L 636.773438 551.808594 L 636.773438 523.191406 L 647.113281 523.191406 L 647.113281 518.804688 Z M 681.753906 518.804688 L 672.074219 543.835938 L 662.226563 518.804688 L 653.800781 518.804688 L 653.800781 551.808594 L 659.261719 551.808594 L 659.261719 524.269531 L 659.402344 524.269531 L 670.230469 551.808594 L 673.710938 551.808594 L 684.46875 524.269531 L 684.644531 524.269531 L 684.644531 551.808594 L 690.070313 551.808594 L 690.070313 518.804688 "/>
</g>
</svg>
