<?xml version="1.0" encoding="utf-8"?>
<!-- Generator: Adobe Illustrator 27.6.1, SVG Export Plug-In . SVG Version: 6.00 Build 0)  -->
<svg version="1.1" id="katman_1" xmlns="http://www.w3.org/2000/svg" xmlns:xlink="http://www.w3.org/1999/xlink" x="0px" y="0px"
	 viewBox="0 0 841.9 841.9" style="enable-background:new 0 0 841.9 841.9;" xml:space="preserve">
<style type="text/css">
	.st0{fill:#FFDD00;}
	.st1{fill:#1D1D1B;}
</style>
<g>
	<path class="st0" d="M72.5,454c8.1,14,21.4,14,29.4,0l4.5-7.8L65.9,376H27.5C27.5,376,72.5,454,72.5,454z"/>
	<path class="st0" d="M157.9,424c-2.9,5.1-9.9,5.1-12.9,0l-27.8-48H78.8l45.1,78c8.1,14,21.3,14,29.4,0l30.2-52.3L168.6,376h-38.5
		C130.2,376,157.9,424,157.9,424z"/>
</g>
<g>
	<path class="st1" d="M224.6,454.3h13.1l0.1-0.4c8.1-30,11.4-42.9,12.8-50.8c1.3,7.9,4.5,20.9,12.2,50.8l0.1,0.4h13.4l18.7-68.7
		h-12.2l-0.1,0.4c-8.1,31.2-11.2,43.8-12.6,51.9c-1.6-8.6-5.2-22.9-12.7-51.9l-0.1-0.4h-12.8l-0.1,0.4
		c-7.9,30.9-11.2,44.1-12.6,52.7c-1.6-8.4-5-22.2-12.9-52.7l-0.1-0.4h-12.7l18.4,68.3C224.5,454,224.6,454.3,224.6,454.3z"/>
	<path class="st1" d="M315.7,455.3c9.9,0,19.3-5.4,23.1-13.5l-9.1-4.6h-0.2l-0.2,0.3c-1.1,2.3-5.1,7.6-13.5,7.6
		c-7.6,0-13.5-4.9-14.4-11.9h39v-0.5c0.3-9.6-2.4-17.5-7.6-22.8c-4.5-4.6-10.7-7-17.9-7c-7.2,0-13.6,2.7-18.3,7.6
		c-4.6,4.8-7.2,11.5-7.2,18.8C289.5,444.5,300.3,455.3,315.7,455.3z M315,412.8c7.2,0,12.7,4.6,13.3,11.1h-26.8
		C302.3,417.4,307.9,412.8,315,412.8z"/>
	<path class="st1" d="M365.2,455.3c12.8,0,20.7-5.9,20.7-15.5c0-11.3-10.3-14-18.6-16.2c-5.7-1.5-10.7-2.8-10.7-6.4
		c0-2.9,3.1-5,7.5-5c4.8,0,8.2,2.6,8.7,6.6l0.4,2.1h0.2l10.2-1.9c0-9.5-8.4-16.2-19.4-16.2s-19.1,6.2-19.1,15.1
		c0,10.8,10,13.4,18,15.6c5.8,1.6,10.8,2.9,10.8,6.7c0,3.3-3.2,5.3-8.4,5.3c-6.3,0-10.4-2.9-11-7.6l-0.1-0.8l-10.8,2
		C343.7,449.7,355.4,455.3,365.2,455.3z"/>
	<path class="st1" d="M394.9,445c0,5.7,3.6,10.3,9.6,10.3c7.4,0,9.6-1,9.6-1v-9.6c0,0-2.2,0.4-4.9,0.4c-1.7,0-3-1.1-3-2.6v-29h7.8
		l-0.1-9.7h-7.7v-14.4l-11.2,2.8v11.5h-5.9v9.7h5.9L394.9,445L394.9,445L394.9,445z"/>
	<path class="st1" d="M483,410.2v-6.4h-9.9v50.5H485l-0.1-30.9c0.1-3.1,1.2-5.5,3.1-7.1c2.5-2.1,6.4-2.8,11.5-2.1l0.6,0.1l0.1-10.5
		l-0.5-0.1C492.7,402.8,486.2,404.9,483,410.2L483,410.2z"/>
	<path class="st1" d="M532.5,402.8c-7.1,0-13.8,2.8-17.2,8.2v-7.2h-10.3v50.5h12v-27.1c0-8.7,4.5-13.9,12.2-13.9
		c5.2,0,11.4,2.3,11.4,13.2v27.9h12v-29.5C552.7,408.6,542.2,402.8,532.5,402.8L532.5,402.8z"/>
	<path class="st1" d="M617,425.9c0,11.7-5.5,18.1-15.6,18.1s-15.5-6.4-15.5-18.1v-40.2h-12.1v39.9c0,18.6,10.3,29.7,27.5,29.7
		c17.2,0,27.5-11.1,27.5-29.7v-39.9h-12L617,425.9L617,425.9z"/>
	<path class="st1" d="M663.6,402.8c-7.1,0-13.9,2.8-17.2,8.2v-7.2h-10.3v50.5h12v-27.1c0-8.7,4.5-13.9,12.2-13.9
		c5.2,0,11.4,2.3,11.4,13.2v27.9h12v-29.5C683.8,408.6,673.4,402.8,663.6,402.8L663.6,402.8z"/>
	<rect x="691.2" y="403.8" class="st1" width="11.9" height="50.5"/>
	<path class="st1" d="M697.2,385.2c-3.9,0-6.9,3-6.9,6.8c0,3.8,3.1,6.7,6.9,6.7c3.8,0,6.8-3,6.8-6.7
		C704,388.3,700.9,385.2,697.2,385.2z"/>
	<path class="st1" d="M735.2,402.8c-7.4,0-14.2,2.7-19.1,7.5c-4.9,4.8-7.6,11.5-7.6,18.8c0,15.2,11.2,26.3,26.6,26.3
		c15.4,0,26.7-11.1,26.7-26.3c0-7.3-2.7-14-7.6-18.8C749.4,405.4,742.6,402.8,735.2,402.8L735.2,402.8z M735.2,444.4
		c-8.6,0-15-6.6-15-15.4s6.4-15.4,15-15.4s15.2,6.6,15.2,15.4S743.9,444.4,735.2,444.4z"/>
	<path class="st1" d="M794.9,402.8c-7.1,0-13.8,2.8-17.2,8.2v-7.2h-10.3v50.5h12v-27.1c0-8.7,4.5-13.9,12.2-13.9
		c5.2,0,11.4,2.3,11.4,13.2v27.9h12v-29.5C815,408.6,804.6,402.8,794.9,402.8L794.9,402.8z"/>
	<path class="st1" d="M442.5,402.8c-7.1,0-13.6,2.7-18.3,7.6c-4.6,4.8-7.2,11.5-7.2,18.8c0,15.4,10.8,26.2,26.2,26.2
		c9.9,0,19.3-5.4,23.1-13.5l-9.1-4.6h-0.2l-0.2,0.3c-1.1,2.3-5.1,7.6-13.5,7.6c-7.6,0-13.5-4.9-14.4-11.9h39v-0.5
		c0.3-9.6-2.4-17.5-7.6-22.8C456,405.2,449.7,402.8,442.5,402.8L442.5,402.8z M429,423.8c0.8-6.4,6.4-11.1,13.5-11.1
		s12.7,4.6,13.3,11.1H429z"/>
</g>
</svg>
