<svg width="238" height="225" viewBox="0 0 238 225" fill="none" xmlns="http://www.w3.org/2000/svg">
<g opacity="0.05">
<path d="M219.286 41.5787C220.454 42.4748 221.621 43.5948 222.789 44.2669C223.956 45.1629 225.591 45.6109 226.992 45.1629C228.86 44.7149 230.728 44.4909 232.596 44.2669C233.063 44.2669 233.296 43.8189 233.763 43.5949C233.063 43.1468 232.829 42.6988 232.362 42.4748C225.357 37.0984 218.586 31.498 211.815 26.1217C209.947 24.5536 208.312 23.2095 207.378 20.9693C205.277 16.489 201.774 13.5768 197.104 11.7847C184.963 6.85639 172.587 5.5123 159.512 7.30442C152.507 8.4245 145.969 7.52842 139.898 3.72017C137.096 1.92805 134.061 1.03199 130.792 0.359949C125.888 -0.536111 122.152 1.48004 120.985 6.18435C119.35 12.4568 120.051 18.2812 124.721 23.4335C129.624 29.0339 135.928 31.9461 143.4 32.3941C148.771 32.6181 153.908 31.946 159.045 30.602C160.912 30.1539 162.78 29.9299 164.415 29.4819C164.415 29.4819 164.415 29.7059 164.415 29.9299C163.948 30.154 163.714 30.3779 163.247 30.602C161.146 31.498 159.278 32.3941 157.177 33.2902C148.771 37.0984 140.131 40.0106 130.558 40.4587C123.787 40.9067 117.482 42.6988 111.178 44.939C100.904 48.7472 92.0313 54.3475 84.7929 62.1881C77.0875 70.4766 72.8846 85.0376 81.524 98.2545C84.0924 102.287 87.1279 106.095 90.6303 109.679C96.7012 115.728 103.706 120.656 111.178 125.136C124.254 132.977 138.03 139.025 152.273 144.178C156.476 145.746 160.912 146.418 165.349 146.194C176.79 145.522 185.897 140.369 192.201 131.409C200.84 119.312 197.571 103.407 184.963 95.3423C179.826 91.9821 173.988 90.6379 167.917 92.206C161.613 93.7741 156.943 96.9104 154.608 103.183C152.507 108.559 154.608 114.16 159.512 117.072C161.146 118.192 163.247 118.64 165.582 118.192C164.882 117.744 164.415 117.296 163.948 117.072C162.547 115.952 161.379 114.608 160.679 112.815C159.278 108.783 161.38 104.975 165.582 103.855C169.552 102.735 173.288 103.407 176.323 106.095C183.095 111.919 182.628 121.776 175.389 127.152C171.186 130.289 166.283 130.961 160.913 130.737C156.476 130.513 152.04 128.945 147.837 127.6C138.03 124.24 128.69 120.208 119.817 114.608C112.812 110.127 106.275 104.751 101.371 98.2545C98.5692 94.2222 96.2342 89.9659 96.0007 85.0376C95.5337 77.6451 97.4016 70.9247 103.239 65.7723C109.543 60.1719 116.782 55.9157 124.487 52.5555C131.492 49.6433 138.73 49.4192 145.735 52.5555C146.202 52.7795 146.669 52.7794 147.136 53.0034C147.837 50.7633 148.304 48.5231 149.238 46.283C152.273 37.9944 158.111 33.0661 167.45 31.722C175.156 30.826 181.227 33.7382 186.13 39.1146C186.597 39.5626 186.597 40.0106 186.831 40.4587C185.43 40.0106 184.496 39.5626 183.328 38.8905C180.993 37.7705 178.892 36.6504 176.323 35.9784C169.785 34.1862 163.948 35.3063 159.045 39.7866C154.141 44.4909 152.273 49.8672 154.141 56.3637C156.009 62.8601 160.212 67.5644 167.45 68.9085C173.755 70.0286 180.059 69.3565 185.43 65.3243C185.663 65.1002 185.897 64.8763 186.13 64.8763C187.298 64.4282 188.232 64.2042 189.166 65.3243C187.064 68.9085 182.628 68.9085 179.125 71.5967C180.293 71.8207 181.227 72.2687 181.927 72.2687C183.562 72.4927 184.963 72.7168 186.364 72.7168C192.434 73.1648 198.272 74.5089 203.642 76.9731C204.81 77.4211 205.977 78.0932 207.145 78.5412C210.881 79.8853 214.383 79.8852 217.652 77.8691C221.621 75.629 223.489 71.8207 224.19 67.5644C224.19 67.1164 224.19 66.8924 224.19 66.4443C223.489 66.8924 222.789 67.3404 222.088 67.7884C219.053 69.8046 215.55 70.9247 211.815 70.2526C207.378 69.5806 203.175 68.0125 199.673 65.1003C199.206 64.6523 198.972 64.4282 198.272 63.7562C200.373 63.3082 202.008 63.7562 203.642 64.2042C205.277 64.6522 206.678 65.5483 208.312 65.9963C215.784 68.6845 223.022 65.7723 226.758 59.0519C227.459 57.7078 227.692 56.5877 226.758 55.2436C225.591 53.2275 224.657 51.4353 223.489 49.6432C221.388 46.955 219.286 44.2669 217.418 41.5787C217.185 41.1307 216.951 40.9067 216.718 40.4587C216.951 40.2346 217.185 40.2346 217.418 40.0106C218.352 40.4586 218.819 41.1307 219.286 41.5787ZM153.908 26.5697C146.669 26.7937 139.431 25.8977 133.127 21.8654C129.624 19.6252 127.289 16.713 126.822 12.6808C126.589 11.3367 126.822 9.99263 127.056 8.87255C127.523 6.63241 129.157 5.51235 131.726 5.73636C133.827 5.96037 135.695 6.63241 137.329 7.75248C139.431 9.09657 141.299 10.8887 142.7 12.9048C143.867 14.4729 145.035 16.265 146.436 17.8331C147.837 19.6253 149.705 20.9694 151.106 22.5375C151.106 22.5375 151.106 22.7614 151.106 22.9855C150.405 22.5374 149.471 22.3134 148.771 22.0894C146.202 20.7453 144.334 18.9532 142.466 16.7131C140.832 14.6969 139.197 13.1288 137.329 11.3367C135.695 9.76863 133.594 9.09656 131.726 8.64853C129.624 8.2005 128.69 9.3206 129.157 11.3367C129.858 14.0249 131.025 16.489 132.893 18.5052C137.329 23.6575 143.167 25.6737 149.938 25.8977C151.573 25.8977 153.207 25.8977 154.842 25.8977C155.309 25.8977 156.009 26.1217 156.476 26.1217C155.542 26.5697 154.608 26.5697 153.908 26.5697ZM204.343 35.5303C203.876 35.3063 203.409 35.0823 202.942 34.6343C201.541 33.5142 200.14 32.3941 198.505 31.274C196.637 29.9299 194.769 29.0339 192.201 29.2579C189.866 29.2579 187.765 28.5858 186.597 26.3457C185.897 24.7776 184.262 24.3296 182.628 24.1055C181.46 23.8815 180.293 23.6575 179.125 23.4335C179.125 23.2095 179.125 22.9855 179.125 22.9855C179.826 22.7614 180.526 22.5375 181.227 22.5375C184.262 22.5375 187.064 22.5375 190.099 22.5375C192.434 22.5375 194.302 23.4335 195.703 25.2256C198.272 28.3618 200.84 31.274 203.409 34.1862C203.876 34.6342 203.876 35.0823 204.109 35.5303C204.576 35.3063 204.343 35.5303 204.343 35.5303Z" fill="#020201"/>
<path d="M207.145 221.463C209.246 221.463 210.881 221.463 212.749 221.463C213.216 219.895 213.449 168.819 212.749 166.355C204.576 185.844 196.871 205.334 188.932 224.823C187.998 224.823 187.064 224.823 186.13 224.823C177.257 204.662 168.384 184.5 159.512 164.115C159.045 165.683 158.811 217.655 159.278 221.463C162.314 221.463 165.582 221.463 168.851 221.463C168.851 222.359 168.851 223.031 168.851 223.703C162.314 223.703 156.009 223.703 149.705 223.703C149.705 223.031 149.705 222.583 149.471 221.687C151.806 221.687 154.141 221.687 156.476 221.687C156.943 220.119 157.177 164.563 156.71 160.755C154.375 160.755 152.04 160.755 149.705 160.755C149.705 159.859 149.705 159.187 149.705 158.515C158.811 158.515 167.684 158.515 176.79 158.515C183.095 172.852 189.399 187.413 195.703 202.198C198.038 197.045 199.673 192.117 201.774 187.413C203.876 182.708 205.744 177.78 207.612 173.076C209.713 168.147 211.581 163.219 213.449 158.515C221.621 158.515 229.56 158.515 237.733 158.515C237.733 159.187 237.733 159.859 237.733 160.755C235.865 160.755 233.997 160.755 231.895 160.755C231.895 181.14 231.895 201.302 231.895 221.687C233.763 221.687 235.631 221.687 237.733 221.687C237.733 222.583 237.733 223.255 237.733 223.927C227.692 223.927 217.652 223.927 207.612 223.927C207.612 223.703 207.378 223.479 207.378 223.255C206.911 222.583 206.911 222.135 207.145 221.463Z" fill="#020201"/>
<path d="M88.2954 46.2829C87.8284 47.1789 87.3614 48.075 86.8944 48.9711C83.6255 55.2435 78.7221 59.9478 72.4177 63.308C67.2808 65.9962 62.6109 69.3564 58.8749 73.8367C55.139 78.317 52.5706 83.4694 52.5706 89.5178C52.5706 96.9102 55.606 102.735 61.6769 107.215C66.3468 110.575 71.7172 112.591 77.5546 113.935C81.2905 114.607 84.793 114.831 88.5289 115.279C89.2294 115.279 90.1634 115.279 90.6304 115.727C93.8993 117.744 96.9348 119.536 100.437 122C99.7367 122.224 99.0362 122.448 98.5692 122.448C85.9604 125.136 73.3517 125.136 60.9764 120.656C54.9055 118.64 49.7686 115.503 45.7992 110.575C38.0938 100.943 37.3933 90.6378 42.5302 79.6611C44.6317 75.1808 48.1342 71.3726 52.3371 68.2364C54.4385 66.6682 56.54 65.1001 58.6414 63.7561C59.1084 63.308 59.8089 62.86 60.0424 62.1879C59.5754 62.1879 59.1084 62.1879 58.8749 62.412C55.8395 63.756 52.5706 64.8761 49.7686 66.4442C40.6623 71.8205 35.2919 79.6611 34.1244 89.9657C32.7234 101.615 37.1599 110.799 46.4997 118.192C52.5706 122.896 59.5754 125.584 67.0473 126.928C73.5852 128.048 80.123 128.944 86.8944 128.496C92.2648 128.048 97.4017 127.152 102.305 125.36C104.173 124.688 105.574 124.688 106.975 126.032C107.442 126.48 107.676 126.704 108.376 126.928C107.909 127.376 107.442 127.6 106.975 127.824C99.2697 132.081 91.0974 134.545 82.2245 135.441C70.0827 136.785 58.1745 134.993 46.2662 131.633C36.9264 128.944 30.8554 122.672 26.1855 114.607C18.2467 101.166 21.2821 79.6611 36.6928 68.4604C41.8297 64.6521 47.4337 61.9639 53.7381 60.6199C61.4434 59.0518 68.9153 56.8116 75.6867 53.0033C79.1891 51.2112 82.458 48.9711 85.7269 46.7309C86.1939 46.2829 86.8945 46.0589 87.3614 45.6108C88.0619 46.0589 88.0619 46.0588 88.2954 46.2829Z" fill="#020201"/>
<path d="M54.672 183.38C55.606 183.38 56.073 183.38 57.007 183.38C57.007 187.636 57.007 192.117 57.007 196.597C56.3065 196.597 55.606 196.597 54.9055 196.597C54.672 196.373 54.672 196.149 54.672 195.925C54.4385 195.253 54.4385 194.805 54.205 194.133C53.5045 192.341 51.8701 191.445 50.0021 192.117C49.3016 192.341 48.8346 192.565 48.1341 192.789C40.8957 195.925 33.4239 197.941 25.7186 197.493C20.1147 197.269 14.7442 195.925 10.3078 192.789C3.53645 188.084 0.500977 181.364 0.500977 173.523C0.500977 166.131 3.76994 160.083 9.60733 155.378C14.7442 151.122 20.8151 148.21 27.1195 145.97C42.5302 140.369 58.6414 138.129 75.2196 138.801C84.0924 139.249 92.7318 137.681 100.904 134.545C102.539 133.873 104.407 132.977 106.041 132.305C107.676 131.409 108.843 130.289 110.477 129.168C111.645 130.065 113.046 130.961 114.447 131.857C114.914 132.081 115.147 132.753 115.147 133.201C115.848 137.009 115.614 140.593 114.213 144.177C112.345 148.658 108.843 151.122 104.173 152.466C100.204 153.586 95.7672 153.586 91.5643 153.138C81.524 151.794 71.4837 150.674 61.2099 150.674C48.6011 150.674 36.2258 151.794 24.3176 155.826C20.3481 157.17 16.3787 158.962 13.1098 161.651C3.53644 168.819 4.23691 180.468 9.84081 187.636C12.8762 191.445 17.3127 193.461 21.9826 194.581C28.9875 196.149 35.7588 195.701 42.2967 193.909C45.3321 193.013 48.3676 191.893 51.4031 190.773C53.271 190.1 54.205 188.756 54.205 186.74C54.672 185.396 54.672 184.5 54.672 183.38Z" fill="#020201"/>
<path d="M110.01 160.307C110.01 170.836 110.01 180.916 110.01 190.997C110.244 190.997 110.478 191.221 110.711 191.221C114.447 190.997 118.416 190.997 122.152 190.549C125.655 190.101 127.056 188.533 127.756 185.172C127.99 183.828 128.223 182.484 128.223 180.916C128.69 180.916 129.391 180.916 130.091 180.692C130.325 180.916 130.558 181.14 130.558 181.364C130.558 181.812 130.558 182.036 130.558 182.484C130.558 189.205 130.558 195.925 130.558 202.87C130.558 203.318 130.558 203.542 130.558 204.214C129.858 204.214 129.157 204.214 128.457 204.214C128.223 202.646 127.99 201.301 127.99 199.733C127.523 196.821 125.888 195.029 122.619 194.357C118.65 193.685 114.447 193.685 110.244 193.685C110.244 203.094 110.244 212.054 110.244 221.463C112.579 221.463 114.914 221.463 117.249 221.463C117.249 222.359 117.249 222.807 117.249 223.703C106.742 223.703 96.4677 223.703 85.9604 223.703C85.9604 223.255 85.9604 223.031 85.7269 222.807C85.7269 222.583 85.7269 222.359 85.7269 221.687C87.5949 221.687 89.4629 221.687 91.5643 221.687C91.5643 201.302 91.5643 181.14 91.5643 160.755C89.6964 160.755 87.8284 160.755 85.7269 160.755C85.7269 159.859 85.7269 159.187 85.7269 158.515C104.407 158.515 122.853 158.515 141.532 158.515C141.532 165.235 141.532 171.732 141.532 178.228C141.065 178.228 140.832 178.452 140.598 178.452C140.131 178.452 139.898 178.452 139.431 178.452C139.197 176.66 138.964 174.868 138.964 173.076C138.964 172.628 138.964 172.18 138.73 171.956C137.563 165.683 133.827 162.099 126.822 161.651C121.452 160.531 115.848 160.531 110.01 160.307Z" fill="#020201"/>
<path d="M155.075 67.3404C151.106 67.7884 147.136 67.7883 143.4 68.6844C132.66 70.9245 125.421 77.197 122.152 87.5017C120.518 92.8781 120.985 98.4784 122.152 103.855C122.386 104.975 122.619 106.319 122.853 107.887C121.919 107.439 121.218 107.215 120.751 106.767C114.68 101.839 109.777 96.2383 108.143 88.6218C105.808 78.5411 108.376 69.8045 116.315 62.636C121.452 57.9317 127.289 55.0195 134.294 54.3475C140.832 53.6754 145.969 55.2436 149.705 60.6199C151.339 62.6361 152.974 64.6522 154.608 66.8923C154.842 66.8923 154.842 67.1164 155.075 67.3404Z" fill="#020201"/>
<path d="M72.1842 18.2809C72.1842 16.9368 72.4177 15.5927 70.7832 14.9207C70.3163 14.6967 70.0828 14.4727 69.8493 14.0246C66.5803 9.99238 62.1439 8.87234 57.007 9.99241C49.7686 11.5605 44.6317 19.401 46.0327 26.1214C47.2002 31.9458 50.7026 36.2021 56.54 38.4423C61.4434 40.2344 66.5803 40.6824 71.7172 40.2344C78.7221 39.7864 85.26 37.5463 91.3308 34.8581C92.7318 34.186 94.3663 33.514 96.0008 33.2899C95.7673 33.514 95.5338 33.7379 95.5338 33.962C88.7624 39.1143 81.524 42.9226 72.8847 44.0426C66.1133 44.9387 59.3419 44.4907 52.8041 42.4746C47.6671 40.9065 43.6978 37.7703 40.8958 33.514C39.7283 31.9459 39.2613 29.9297 38.3274 27.6896C38.0939 29.0337 38.5608 30.1537 38.7943 31.2738C42.5302 40.0104 49.3016 45.3868 59.1085 46.9549C64.4789 47.8509 69.8493 47.6269 75.2197 46.2828C76.3871 46.0588 77.3211 45.8348 78.4886 45.8348C78.4886 46.0588 78.4886 46.0588 78.7221 46.2828C78.2551 46.5068 78.0216 46.9549 77.5546 46.9549C71.7172 50.0911 65.4128 50.7631 58.875 49.643C56.073 49.195 53.2711 48.5229 50.7026 47.6269C41.8298 44.9387 36.6928 38.6663 36.4594 29.4817C36.4594 25.6734 36.6929 21.8652 38.3274 18.2809C41.5963 10.6644 46.9667 5.73609 55.606 4.84003C67.5143 3.71995 75.6867 12.9046 74.2857 22.5373C73.5852 28.1376 68.6818 32.3939 63.0779 32.1699C56.54 31.7218 51.6366 24.5534 54.205 18.729C56.54 13.3526 63.3114 11.7845 67.9813 15.5928C68.9153 16.4888 69.8493 17.6089 70.7832 18.5049C71.9507 18.5049 72.1842 18.5049 72.1842 18.2809Z" fill="#020201"/>
<path d="M43.6977 160.755C43.6977 169.715 43.6977 179.124 43.6977 188.308C45.0986 188.308 46.7331 188.308 48.3676 188.308C45.5656 190.997 30.8554 193.685 25.2515 191.893C25.2515 181.588 25.2515 171.059 25.2515 160.531C23.8506 160.531 22.6831 160.531 21.2821 160.531C22.2161 159.41 25.018 158.29 26.6525 158.066C27.1195 158.066 27.353 158.066 27.82 158.066C42.7637 158.066 57.9409 158.066 72.8846 158.066C73.5851 158.066 74.5191 158.066 75.2196 158.066C75.2196 164.787 75.2196 171.283 75.2196 178.004C74.5191 178.004 73.8186 178.004 72.8846 178.228C72.8846 177.332 72.8846 176.66 72.8846 175.988C72.8846 174.868 72.6512 173.523 72.4177 172.179C71.2502 165.459 68.4482 162.099 60.5094 160.979C55.139 160.307 49.5351 160.531 44.1647 160.531C43.9312 160.531 43.9312 160.755 43.6977 160.755Z" fill="#020201"/>
<path d="M130.325 98.7026C130.792 98.0306 131.025 97.3585 131.492 96.4625C135.228 85.4857 143.167 78.5413 154.608 74.957C156.243 74.509 157.877 74.061 159.745 74.061C165.583 73.837 171.42 73.8369 177.257 73.6129C178.191 73.6129 179.359 73.8369 180.293 74.2849C179.826 74.5089 179.359 74.733 178.892 74.733C173.521 75.405 167.917 76.5251 163.014 78.5413C153.674 82.3495 146.669 88.3979 142.233 97.1345C139.898 102.063 138.964 107.215 138.964 112.591C138.964 114.16 138.964 115.728 138.731 117.744C137.797 117.296 137.096 117.072 136.629 116.624C134.294 115.056 131.959 113.264 129.624 111.471C128.457 110.575 127.756 109.455 127.289 107.887C126.822 105.647 126.122 103.631 125.655 101.391C122.619 88.8459 130.792 76.0771 144.101 72.2688C148.07 71.1487 152.273 70.7007 156.71 71.1487C157.177 71.1487 157.41 71.1487 157.877 71.1487C157.877 71.1487 158.111 71.3728 158.344 71.5968C156.71 71.8208 155.542 72.0448 154.141 72.2688C143.867 74.2849 136.396 79.6613 131.726 88.6219C130.325 91.3101 129.624 94.2223 129.624 97.1345C129.624 97.5825 129.624 97.8065 129.624 98.2545C129.858 98.4786 130.091 98.4786 130.325 98.7026Z" fill="#020201"/>
<path d="M19.1807 223.479C19.1807 223.031 19.1807 222.583 19.1807 222.359C19.1807 222.135 19.1807 221.911 19.4142 221.687C21.2821 221.687 23.1501 221.687 25.2516 221.687C25.4851 219.222 25.2516 216.982 25.2516 214.742C25.2516 212.502 25.2516 210.038 25.2516 207.798C25.2516 205.558 25.2516 203.317 25.2516 200.853C31.556 200.853 37.3933 199.957 43.6977 198.165C43.6977 206.006 43.6977 213.846 43.6977 221.239C43.9312 221.463 44.1647 221.687 44.1647 221.687C49.0681 221.687 53.9715 221.911 58.8749 221.463C68.6818 220.791 72.4177 214.518 73.5852 207.798C73.8187 206.006 74.0522 203.989 74.2857 201.973C74.9862 201.973 75.6866 201.973 76.3871 201.749C76.3871 209.142 76.3871 216.534 76.3871 223.927C57.2405 223.479 38.3273 223.479 19.1807 223.479Z" fill="#020201"/>
<path d="M84.793 55.6916C83.859 54.7956 84.326 54.3476 84.793 53.6755C88.062 48.9712 91.7979 44.2669 96.0008 40.4586C102.072 34.8583 108.143 29.0339 114.213 23.2095C114.914 22.5374 115.614 21.8654 116.315 21.1934C119.584 24.1056 122.619 27.4658 126.355 29.9299C129.858 32.1701 134.061 33.7382 138.497 35.7543C118.183 36.8744 100.204 43.1468 84.793 55.6916Z" fill="#020201"/>
<path d="M234.464 46.731C233.063 49.1951 231.895 51.4353 230.494 53.8995C229.327 51.6593 228.626 49.4192 227.926 47.179C230.027 46.955 231.895 46.507 234.464 46.731Z" fill="#020201"/>
<path d="M41.5962 58.604C42.2967 58.156 42.7637 57.484 43.6976 57.26C47.2001 55.9159 53.5045 54.7958 57.7074 54.5718C56.5399 55.2438 44.8652 58.604 42.0632 58.828C41.5962 58.828 41.5962 58.604 41.5962 58.604Z" fill="#020201"/>
</g>
</svg>
