<svg width="92" height="88" viewBox="0 0 92 88" fill="none" xmlns="http://www.w3.org/2000/svg">
<path d="M84.3184 17.0021C84.7854 17.4502 85.2524 17.6742 85.7194 18.1222C86.1864 18.5702 86.6534 18.5702 87.3539 18.5702C88.0544 18.3462 88.7548 18.3462 89.4553 18.1222C89.6888 18.1222 89.6888 17.8982 89.9223 17.8982C89.6888 17.6742 89.4553 17.4502 89.4553 17.4502C86.8869 15.434 84.0849 13.1939 81.5165 11.1777C80.816 10.5057 80.1155 10.0577 79.882 9.16162C79.1815 7.3695 77.7806 6.24942 75.9126 5.57738C71.2427 3.78526 66.3393 3.11322 61.4358 3.78526C58.6339 4.23329 56.2989 3.78526 53.964 2.44117C53.03 1.76912 51.629 1.3211 50.4616 1.09708C48.5936 0.649054 47.1926 1.54511 46.7256 3.33723C46.0251 5.80139 46.4921 8.04153 48.1266 10.0577C49.9946 12.2978 52.3295 13.4179 55.365 13.4179C57.4664 13.4179 59.3344 13.1939 61.4358 12.7459C62.1363 12.5218 62.8368 12.5218 63.5373 12.2978C63.5373 12.2978 63.5373 12.2978 63.5373 12.5218C63.3038 12.5218 63.3038 12.7459 63.0703 12.7459C62.3698 13.1939 61.4359 13.4179 60.7354 13.8659C57.4664 15.434 54.1975 16.3301 50.4616 16.5541C47.8931 16.7781 45.3247 17.4502 42.9897 18.3462C39.0203 19.9143 35.5178 21.9305 32.9494 25.0667C29.9139 28.2029 28.2795 33.8032 31.5484 38.9556C32.4824 40.5237 33.6499 42.0918 35.0508 43.4359C37.3858 45.676 40.1877 47.6922 42.9897 49.4843C47.8931 52.6205 53.2635 54.8606 58.8674 56.8768C60.5019 57.5488 62.1363 57.7728 64.0043 57.5488C68.4407 57.3248 71.9432 55.3087 74.2781 51.7244C77.5471 47.0201 76.3796 40.9717 71.4762 37.8355C69.1412 36.4914 67.0397 35.8194 64.7048 36.4914C62.3698 37.1635 60.5019 38.2835 59.5679 40.7477C58.8674 42.7638 59.5679 45.004 61.4358 46.1241C62.1363 46.5721 62.8368 46.7961 63.7708 46.5721C63.5373 46.3481 63.3038 46.1241 63.0703 46.1241C62.6033 45.676 62.1363 45.228 61.9029 44.556C61.4359 42.9879 62.1363 41.4198 63.7708 40.9717C65.4053 40.5237 66.8063 40.7477 67.9737 41.8678C70.5422 44.1079 70.3087 47.9162 67.7402 49.9323C66.1058 51.0524 64.2378 51.5004 62.1363 51.2764C60.5019 51.2764 58.6339 50.6044 56.9994 50.1563C53.2635 48.8122 49.5276 47.2441 46.2586 45.228C43.4567 43.4359 41.1217 41.4197 39.2538 38.9556C38.0863 37.3875 37.3858 35.8194 37.1523 33.8033C36.9188 30.8911 37.6193 28.4269 39.9542 26.4108C42.2892 24.1706 45.0912 22.6025 48.1266 21.2584C50.9285 20.1383 53.497 19.9143 56.2989 21.2584C56.5324 21.2584 56.5324 21.2584 56.7659 21.4824C56.9994 20.5864 57.2329 19.6903 57.4664 18.7943C58.6339 15.658 60.9689 13.6419 64.4713 13.1939C67.5067 12.7458 69.8417 14.0899 71.7097 16.1061C71.9432 16.3301 71.9432 16.5541 71.9432 16.5541C71.4762 16.3301 71.0092 16.1061 70.5422 15.8821C69.6082 15.434 68.9077 14.986 67.7402 14.762C65.1718 14.0899 63.0703 14.538 61.2024 16.3301C59.3344 18.1222 58.6339 20.3624 59.3344 22.8265C60.0349 25.2907 61.6693 27.0828 64.4713 27.5308C66.8063 27.9789 69.3747 27.7549 71.4762 26.1867L71.7097 25.9627C72.1767 25.7387 72.4102 25.7387 72.8771 26.1867C71.9432 27.5308 70.3087 27.5308 69.1412 28.6509C69.6082 28.6509 69.8417 28.8749 70.3087 28.8749C71.0092 28.8749 71.4762 29.0989 71.9432 29.0989C74.2781 29.3229 76.6131 29.771 78.7145 30.8911C79.1815 31.1151 79.6485 31.3391 80.1155 31.5631C81.5165 32.0111 82.9175 32.0111 84.3184 31.3391C85.7194 30.443 86.6534 29.0989 86.8869 27.3068C86.8869 27.0828 86.8869 27.0828 86.8869 26.8588C86.6534 27.0828 86.4199 27.3068 86.1864 27.3068C85.0189 27.9789 83.6179 28.4269 82.217 28.2029C80.5825 27.9789 78.948 27.3068 77.5471 26.1867C77.3136 25.9627 77.3136 25.9627 77.0801 25.7387C77.7806 25.5147 78.481 25.7387 79.1815 25.9627C79.882 26.1868 80.349 26.4108 81.0495 26.6348C83.8514 27.7548 86.6534 26.6348 88.0544 23.9466C88.2879 23.4986 88.2879 23.0505 88.0544 22.6025C87.5874 21.9305 87.3539 21.0344 86.6534 20.3624C85.9529 19.2423 85.0189 18.3462 84.3184 17.2262C84.3184 17.0021 84.0849 17.0021 84.0849 16.7781C84.0849 16.7781 84.3184 16.7781 84.3184 16.5541C83.8514 16.5541 84.0849 16.7781 84.3184 17.0021ZM59.1009 11.1777C56.2989 11.1777 53.497 10.9537 51.1621 9.38563C49.7611 8.48957 48.8271 7.36949 48.8271 5.80139C48.8271 5.35336 48.8271 4.68132 48.8271 4.23329C49.0606 3.33723 49.7611 2.8892 50.695 2.8892C51.3955 2.8892 52.096 3.33723 52.7965 3.56124C53.7305 4.00927 54.1975 4.68132 54.898 5.57738C55.365 6.24942 55.832 6.92146 56.2989 7.59351C56.7659 8.26555 57.4664 8.9376 58.1669 9.38563C58.1669 9.38563 58.1669 9.38563 58.1669 9.60964C57.9334 9.38563 57.4664 9.38564 57.2329 9.16162C56.299 8.71359 55.5985 7.81753 54.898 7.14549C54.1975 6.47344 53.497 5.80139 53.03 5.12935C52.3295 4.4573 51.629 4.23329 50.9285 4.00927C50.2281 3.78526 49.7611 4.23329 49.9946 5.12935C50.2281 6.24942 50.6951 7.14547 51.3955 7.81752C53.03 9.83365 55.365 10.5057 57.9334 10.7297C58.6339 10.7297 59.1009 10.7297 59.8014 10.7297C60.0349 10.7297 60.2684 10.7297 60.5019 10.7297C59.8014 11.1777 59.3344 11.1777 59.1009 11.1777ZM78.481 14.538C78.2475 14.538 78.2476 14.314 78.0141 14.0899C77.5471 13.6419 76.8466 13.1939 76.3796 12.7459C75.6791 12.2978 74.9786 11.8498 74.0446 11.8498C73.1106 11.8498 72.4101 11.6258 71.9432 10.7297C71.7097 10.0577 71.0092 9.83366 70.5422 9.83366C70.0752 9.83366 69.6082 9.60964 69.1412 9.60964V9.38563C69.3747 9.38563 69.6082 9.16162 70.0752 9.16162C71.2427 9.16162 72.4102 9.16162 73.5776 9.16162C74.5116 9.16162 75.2121 9.60965 75.6791 10.2817C76.6131 11.4018 77.7806 12.5218 78.7145 13.8659C78.481 14.0899 78.481 14.3139 78.481 14.538Z" fill="#333333"/>
<path d="M79.6485 86.4469C80.349 86.4469 81.0495 86.4469 81.75 86.4469C81.9835 85.7749 81.9835 66.0616 81.75 65.1655C78.7145 72.558 75.6791 80.1745 72.6436 87.791C72.1766 87.791 71.9431 87.791 71.4761 87.791C67.9737 79.9505 64.7048 72.334 61.2023 64.2694C60.9688 64.9415 60.9688 84.8788 61.2023 86.4469C62.3698 86.4469 63.5373 86.4469 64.9383 86.4469C64.9383 86.8949 64.9383 87.1189 64.9383 87.343C62.3698 87.343 60.0349 87.343 57.4664 87.343C57.4664 87.1189 57.4664 86.8949 57.4664 86.6709C58.4004 86.6709 59.3344 86.6709 60.0349 86.6709C60.2683 85.9989 60.2683 64.7175 60.0349 63.1494C59.1009 63.1494 58.1669 63.1494 57.2329 63.1494C57.2329 62.7013 57.2329 62.4773 57.2329 62.2533C60.7353 62.2533 64.2378 62.2533 67.7402 62.2533C70.0752 67.8537 72.6436 73.4541 74.9786 79.0544C75.9126 77.0383 76.6131 75.2462 77.3135 73.23C78.014 71.2139 78.7145 69.4218 79.6485 67.6297C80.349 65.8375 81.0495 63.8214 81.9835 62.0293C85.0189 62.0293 88.0543 62.0293 91.3233 62.0293C91.3233 62.2533 91.3233 62.4773 91.3233 62.9254C90.6228 62.9254 89.9223 62.9254 88.9883 62.9254C88.9883 70.7659 88.9883 78.6064 88.9883 86.4469C89.6888 86.4469 90.3893 86.4469 91.3233 86.4469C91.3233 86.8949 91.3233 87.1189 91.3233 87.343C87.3539 87.343 83.6179 87.343 79.6485 87.343V87.119C79.415 86.6709 79.415 86.6709 79.6485 86.4469Z" fill="#333333"/>
<path d="M33.8834 18.7945C33.6499 19.2425 33.6499 19.4665 33.4164 19.9146C32.0154 22.3787 30.381 24.1708 27.8125 25.5149C25.711 26.635 24.0766 27.9791 22.6756 29.5472C21.2746 31.3393 20.3406 33.3554 20.3406 35.5956C20.3406 38.5078 21.5081 40.7479 23.8431 42.316C25.711 43.6601 27.8125 44.3322 29.9139 45.0042C31.3149 45.2282 32.7159 45.4522 34.1169 45.4522C34.3504 45.4522 34.8174 45.4522 34.8174 45.6763C35.9848 46.3483 37.1523 47.2444 38.5533 48.1404C38.3198 48.1404 38.0863 48.3644 37.8528 48.3644C32.9494 49.4845 28.046 49.4845 23.3761 47.6924C21.0411 46.7963 18.9397 45.6763 17.5387 43.8841C14.5032 40.0759 14.2697 36.2676 16.3712 32.0114C17.3052 30.2192 18.4727 28.8751 20.1071 27.5311C20.8076 26.859 21.7416 26.411 22.4421 25.7389C22.6756 25.5149 22.9091 25.2909 22.9091 25.0669C22.6756 25.0669 22.6756 25.0669 22.4421 25.0669C21.2746 25.5149 20.1071 25.963 18.9397 26.635C15.4372 28.6511 13.3358 31.7873 12.8688 35.8196C12.4018 40.2999 14.0362 43.8841 17.5387 46.7963C19.8736 48.5884 22.4421 49.7085 25.4775 50.1566C28.046 50.6046 30.6144 50.8286 33.1829 50.8286C35.2844 50.6046 37.1523 50.3806 39.0203 49.4845C39.7208 49.2605 40.1878 49.2605 40.8883 49.7085C41.1217 49.9325 41.1217 49.9325 41.3552 50.1566C41.1217 50.3806 41.1217 50.3806 40.8883 50.6046C37.8528 52.1727 34.8174 53.2928 31.3149 53.5168C26.645 53.9648 21.9751 53.2928 17.5387 51.9487C14.0362 50.8286 11.7013 48.3644 9.83332 45.4522C6.79788 40.2999 7.96536 32.0114 14.0362 27.7551C16.1377 26.411 18.2392 25.2909 20.5741 24.6189C23.6096 23.9468 26.4115 23.0508 28.98 21.7067C30.381 21.0346 31.5484 20.1386 32.9494 19.2425C33.1829 18.7945 33.4164 18.7945 33.8834 18.7945C33.8834 18.5705 33.8834 18.5705 33.8834 18.7945Z" fill="#333333"/>
<path d="M21.0411 71.662C21.2746 71.662 21.5081 71.662 21.9751 71.662C21.9751 73.4541 21.9751 75.0222 21.9751 76.8143C21.7416 76.8143 21.5081 76.8143 21.2746 76.8143V76.5903C21.2746 76.3663 21.2746 76.1423 21.0411 75.9183C20.8076 75.2462 20.1071 74.7982 19.4067 75.0222C19.1732 75.0222 18.9397 75.2462 18.7062 75.2462C15.9042 76.3663 13.1023 77.2624 10.0668 77.0383C7.96537 77.0383 5.8639 76.3663 3.99594 75.2462C1.42748 73.4541 0.26001 70.7659 0.26001 67.8537C0.26001 64.9415 1.66098 62.7014 3.76245 60.9093C5.86391 59.1172 7.96537 58.2211 10.5338 57.325C16.6047 55.0849 22.6756 54.1888 28.98 54.6369C32.4824 54.8609 35.7514 54.1888 38.7868 52.8448C39.4873 52.6207 40.1878 52.1727 40.6548 51.9487C41.3553 51.5007 41.8223 51.2766 42.2892 50.8286C42.7562 51.2766 43.2232 51.5007 43.6902 51.9487C43.9237 51.9487 43.9237 52.3967 43.9237 52.3967C44.1572 53.7408 44.1572 55.3089 43.4567 56.653C42.7562 58.4451 41.3553 59.3412 39.7208 59.7892C38.0863 60.2372 36.4519 60.2372 34.8174 60.0132C30.848 59.5652 27.112 59.1172 23.1426 59.1172C18.2392 59.1172 13.5693 59.5652 8.89935 61.1333C7.26488 61.5813 5.86391 62.4774 4.46293 63.3734C0.726999 66.0616 0.960499 70.5419 3.06196 73.4541C4.22944 75.0222 5.86391 75.6943 7.73187 76.1423C10.3003 76.8143 13.1023 76.5903 15.6707 75.9183C16.8382 75.4702 18.0057 75.0222 19.1732 74.5742C19.8736 74.3502 20.1071 73.6781 20.1071 73.0061C20.8076 72.5581 21.0411 72.11 21.0411 71.662Z" fill="#333333"/>
<path d="M42.2893 62.7013C42.2893 66.7336 42.2893 70.5419 42.2893 74.5741H42.5228C43.9238 74.5741 45.5582 74.5741 46.9592 74.3501C48.3602 74.1261 48.8272 73.4541 49.0607 72.334C49.0607 71.8859 49.2942 71.2139 49.2942 70.7659C49.5277 70.7659 49.7612 70.7659 49.9947 70.7659L50.2282 70.9899C50.2282 71.2139 50.2282 71.2139 50.2282 71.4379C50.2282 74.1261 50.2282 76.5903 50.2282 79.2784C50.2282 79.5024 50.2282 79.5025 50.2282 79.7265C49.9947 79.7265 49.7612 79.7265 49.2942 79.7265C49.2942 79.0544 49.0607 78.6064 49.0607 77.9343C48.8272 76.8143 48.3602 76.1422 46.9592 75.9182C45.3247 75.6942 43.9238 75.6942 42.2893 75.6942C42.2893 79.2784 42.2893 82.8627 42.2893 86.4469C43.2233 86.4469 44.1573 86.4469 45.0912 86.4469C45.0912 86.8949 45.0912 86.8949 45.0912 87.343C41.1218 87.343 37.1524 87.343 32.9495 87.343C32.9495 87.1189 32.9495 87.119 32.9495 86.8949C32.9495 86.8949 32.9495 86.6709 32.9495 86.4469C33.65 86.4469 34.3504 86.4469 35.2844 86.4469C35.2844 78.6064 35.2844 70.7659 35.2844 62.9254C34.5839 62.9254 33.8834 62.9254 32.9495 62.9254C32.9495 62.4773 32.9495 62.2533 32.9495 62.0293C40.1878 62.0293 47.1927 62.0293 54.4311 62.0293C54.4311 64.4935 54.4311 67.1816 54.4311 69.6458C54.1976 69.6458 54.1976 69.6458 54.1976 69.6458C53.9641 69.6458 53.9641 69.6458 53.7306 69.6458C53.7306 68.9738 53.4971 68.3017 53.4971 67.6297C53.4971 67.4057 53.4971 67.1816 53.4971 67.1816C53.0301 64.7175 51.6291 63.3734 48.8272 63.1494C46.4922 62.9254 44.3908 62.9253 42.2893 62.7013Z" fill="#333333"/>
<path d="M59.5679 26.8585C57.9335 27.0826 56.5325 27.0826 55.1315 27.3066C50.9286 28.2026 48.1266 30.6668 46.9592 34.475C46.2587 36.4912 46.4922 38.7313 46.9592 40.7475C46.9592 41.1955 47.1926 41.6435 47.1926 42.3156C46.9591 42.0915 46.4922 42.0916 46.4922 41.8675C44.1572 40.0754 42.2892 37.8353 41.5887 34.9231C40.6548 31.1148 41.5887 27.7546 44.6242 24.8424C46.7257 23.0503 48.8271 21.9302 51.6291 21.7062C54.1975 21.4822 56.0655 22.1542 57.7 24.1704C58.4004 25.0664 58.8674 25.7385 59.5679 26.6345V26.8585Z" fill="#333333"/>
<path d="M27.579 8.04133C27.579 7.5933 27.579 6.92125 27.112 6.69723C26.8785 6.69723 26.8785 6.47322 26.8785 6.2492C25.4776 4.6811 23.8431 4.23307 21.9751 4.6811C19.1732 5.35314 17.3052 8.26533 17.7722 10.9535C18.2392 13.1937 19.6402 14.9858 21.9751 15.6578C23.8431 16.3299 25.7111 16.5539 27.8125 16.3299C30.6145 16.1059 32.9494 15.2098 35.2844 14.3137C35.7514 14.0897 36.4519 13.8657 37.1524 13.6417L36.9189 13.8657C34.3504 15.8818 31.5485 17.2259 28.2795 17.674C25.7111 18.122 23.1426 17.898 20.5742 17.0019C18.7062 16.3299 17.0717 15.2098 15.9042 13.4177C15.4372 12.7456 15.2038 12.0736 14.9703 11.1775C14.9703 11.6256 14.9703 12.0736 15.2038 12.5216C16.6047 15.8818 19.1732 17.898 23.1426 18.57C25.2441 19.018 27.3455 18.794 29.447 18.346C29.914 18.346 30.381 18.122 30.6145 18.122C30.6145 18.122 30.6145 18.122 30.6145 18.346C30.381 18.346 30.381 18.57 30.1475 18.57C27.8125 19.6901 25.4776 20.1381 22.9091 19.6901C21.7416 19.4661 20.8077 19.2421 19.6402 19.018C16.1377 17.898 14.2698 15.4338 14.2698 12.0736C14.2698 10.5055 14.2698 9.16139 14.9703 7.8173C16.1377 4.90511 18.2392 2.88898 21.7416 2.66497C26.4115 2.21694 29.447 5.80117 28.98 9.60943C28.7465 11.8496 26.8785 13.4177 24.5436 13.4177C21.9751 13.1937 20.1072 10.5055 21.0412 8.26534C21.9751 6.24921 24.5436 5.57716 26.4115 7.14527C26.8785 7.5933 27.112 7.81731 27.579 8.26534C27.579 8.04133 27.579 8.04133 27.579 8.04133Z" fill="#333333"/>
<path d="M16.6047 62.9254C16.6047 66.5096 16.6047 70.0938 16.6047 73.6781C17.0717 73.6781 17.7722 73.6781 18.4726 73.6781C17.5387 74.7981 11.7013 75.6942 9.5998 75.0221C9.5998 70.9899 9.5998 66.9576 9.5998 62.9254C9.13281 62.9254 8.66582 62.9254 7.96533 62.9254C8.43232 62.4773 9.36631 62.0293 10.0668 62.0293C10.3003 62.0293 10.3003 62.0293 10.5338 62.0293C16.3712 62.0293 22.2086 62.0293 27.8125 62.0293C28.046 62.0293 28.513 62.0293 28.7464 62.0293C28.7464 64.7175 28.7464 67.1816 28.7464 69.6458C28.513 69.6458 28.2795 69.6458 27.8125 69.6458C27.8125 69.1978 27.8125 68.9738 27.8125 68.7497C27.8125 68.3017 27.8125 67.8537 27.579 67.4057C27.112 64.7175 25.9445 63.3734 22.9091 63.1494C21.0411 62.9254 18.9396 62.9254 16.6047 62.9254C16.8382 62.9254 16.8382 62.9254 16.6047 62.9254Z" fill="#333333"/>
<path d="M49.9946 38.9556C50.2281 38.7315 50.2281 38.5075 50.4616 38.0595C51.8626 33.8032 54.8981 31.115 59.3345 29.7709C60.035 29.5469 60.7354 29.3229 61.2024 29.3229C63.5374 29.3229 65.6388 29.3229 67.9738 29.0989C68.4408 29.0989 68.6743 29.0989 69.1413 29.3229C69.1413 29.771 68.9078 29.7709 68.6743 29.7709C66.5728 29.995 64.4714 30.443 62.6034 31.339C59.101 32.6831 56.299 35.1473 54.6646 38.5075C53.7306 40.2996 53.4971 42.3158 53.4971 44.5559C53.4971 45.228 53.4971 45.676 53.4971 46.5721C53.2636 46.348 52.7966 46.3481 52.7966 46.124C51.8626 45.452 50.9286 44.7799 50.2281 44.1079C49.7611 43.6599 49.5276 43.2118 49.2941 42.7638C49.0607 41.8678 48.8271 41.1957 48.5937 40.2996C47.4262 35.3713 50.4616 30.443 55.5985 29.0989C57.233 28.6509 58.8675 28.4269 60.5019 28.6509C60.7354 28.6509 60.7354 28.6509 60.9689 28.6509C60.9689 28.6509 60.9689 28.6509 61.2024 28.8749C60.5019 28.8749 60.035 29.0989 59.568 29.0989C55.1315 29.7709 52.3296 31.7871 50.4616 35.1473C49.9946 36.2674 49.5276 37.3875 49.7611 38.5075C49.7611 38.7315 49.7611 38.7315 49.7611 38.9556H49.9946Z" fill="#333333"/>
<path d="M7.26489 87.1189C7.26489 86.8948 7.26489 86.6708 7.26489 86.6708V86.4468C7.96538 86.4468 8.66587 86.4468 9.59985 86.4468C9.59985 85.5508 9.59985 84.6547 9.59985 83.7586C9.59985 82.8626 9.59985 81.9665 9.59985 81.0705C9.59985 80.1744 9.59985 79.2783 9.59985 78.3823C11.9348 78.3823 14.2698 77.9343 16.6047 77.2622C16.6047 80.3984 16.6047 83.3106 16.6047 86.2228L16.8382 86.4468C18.7062 86.4468 20.5741 86.4468 22.4421 86.4468C26.178 86.2228 27.579 83.7586 28.046 81.0705C28.046 80.3984 28.2795 79.7264 28.2795 78.8303C28.513 78.8303 28.7465 78.8303 29.2135 78.8303C29.2135 81.7425 29.2135 84.4307 29.2135 87.3429C21.9751 87.1189 14.7368 87.1189 7.26489 87.1189Z" fill="#333333"/>
<path d="M32.4824 22.3785C32.0154 21.9305 32.2489 21.9305 32.4824 21.7064C33.8834 19.9143 35.0508 18.1222 36.6853 16.5541C39.0203 14.314 41.3552 12.0738 43.6902 9.83366C43.9237 9.60964 44.1572 9.38564 44.6242 9.16162C46.0251 10.2817 46.9591 11.6258 48.3601 12.5218C49.7611 13.4179 51.3955 14.0899 53.03 14.762C45.3246 14.986 38.5533 17.4502 32.4824 22.3785Z" fill="#333333"/>
<path d="M90.1559 19.0185C89.6889 19.9146 89.2219 20.8106 88.5214 21.7067C88.0544 20.8106 87.8209 19.9146 87.5874 19.0185C88.2879 19.0185 89.2219 18.7945 90.1559 19.0185Z" fill="#333333"/>
<path d="M15.9042 23.4988C16.1377 23.2747 16.3712 23.0507 16.6047 23.0507C18.0056 22.6027 20.3406 22.1547 21.9751 21.9307C21.5081 22.1547 17.0717 23.4988 15.9042 23.4988Z" fill="#333333"/>
</svg>
