<svg width="50" height="47" viewBox="0 0 50 47" fill="none" xmlns="http://www.w3.org/2000/svg">
<path d="M46.4372 8.57109C46.6707 8.7951 46.9042 9.01909 47.1377 9.2431C47.3712 9.46712 47.6047 9.46707 48.0717 9.46707C48.5387 9.46707 48.7722 9.2431 49.2392 9.2431C49.2392 9.2431 49.4727 9.24316 49.4727 9.01915C49.2392 9.01915 49.2392 8.79505 49.2392 8.79505C47.8382 7.67497 46.4372 6.5549 45.0363 5.43483C44.5693 5.21081 44.3358 4.76278 44.1023 4.31475C43.6353 3.41869 42.9348 2.74673 42.0008 2.2987C39.4324 1.17863 36.8639 0.954556 34.2955 1.40259C32.8945 1.6266 31.4935 1.40261 30.326 0.730569C29.859 0.282539 29.1586 0.0585514 28.4581 0.0585514C27.5241 -0.165463 26.5901 0.282566 26.3566 1.17863C25.8896 2.52271 26.1231 3.64273 27.0571 4.76281C27.9911 5.88288 29.3921 6.5549 31.0265 6.5549C32.194 6.5549 33.128 6.55487 34.2955 6.10684C34.7625 6.10684 34.996 5.88288 35.4629 5.88288C35.4629 5.88288 35.2295 5.88283 35.2295 6.10684C34.7625 6.33086 34.2955 6.55498 34.062 6.779C32.194 7.67506 30.5595 8.12298 28.4581 8.34699C27.0571 8.34699 25.6561 8.79508 24.4886 9.2431C22.3872 10.1392 20.5192 11.2592 19.1182 12.8273C17.4838 14.6194 16.5498 17.5317 18.4178 20.4438C18.8847 21.3399 19.5852 22.0119 20.2857 22.908C21.4532 24.252 23.0877 25.1482 24.4886 26.0442C27.2906 27.6123 30.0925 28.9564 33.128 30.0765C34.062 30.3005 34.996 30.5245 35.9299 30.5245C38.2649 30.3005 40.1329 29.4044 41.5338 27.3883C43.4018 24.9241 42.7013 21.5639 40.1329 19.7718C38.9654 19.0998 37.7979 18.8758 36.6304 19.0998C35.2294 19.3238 34.2955 19.9959 33.8285 21.34C33.3615 22.46 33.8285 23.5801 34.7625 24.2521C35.2295 24.4761 35.4629 24.4761 35.9299 24.4761C35.6964 24.4761 35.6964 24.2521 35.4629 24.2521C35.2294 24.0281 34.996 23.804 34.7625 23.356C34.529 22.46 34.996 21.7879 35.6964 21.5639C36.6304 21.3399 37.3309 21.5639 38.0314 22.012C39.4324 23.1321 39.4324 25.3721 37.7979 26.2682C36.8639 26.9402 35.9299 27.1643 34.7625 26.9403C33.8285 26.9403 32.8945 26.4922 31.9605 26.2682C29.859 25.5961 27.9911 24.7002 26.1231 23.5801C24.7221 22.684 23.3212 21.564 22.3872 20.2199C21.6867 19.3238 21.2197 18.4277 21.2197 17.5317C21.2197 15.9636 21.4532 14.6195 22.8542 13.4994C24.2552 12.3794 25.6561 11.4833 27.2906 10.8112C28.6916 10.1392 30.326 10.1392 31.727 10.8112H31.9605C32.194 10.3632 32.194 9.9151 32.4275 9.46707C33.128 7.67495 34.2955 6.77891 36.1634 6.5549C37.7979 6.33088 38.9654 7.00296 40.1329 8.12303C40.1329 8.12303 40.1329 8.34699 40.3664 8.34699C40.1329 8.34699 39.8994 8.12303 39.6659 8.12303C39.1989 7.89902 38.7319 7.67503 38.2649 7.45101C36.8639 7.00298 35.6964 7.22692 34.7625 8.34699C33.8285 9.24305 33.3615 10.3631 33.8285 11.7072C34.2955 13.0513 34.996 13.9474 36.6304 14.3954C38.0314 14.6194 39.1989 14.3954 40.3664 13.7234C40.3664 13.7234 40.3664 13.7234 40.5998 13.7234C40.8333 13.7234 41.0668 13.4994 41.3003 13.7234C40.8333 14.3954 39.8994 14.3954 39.1989 15.0674C39.4324 15.0674 39.6659 15.2915 39.8994 15.2915C40.1329 15.2915 40.5998 15.2915 40.8333 15.2915C42.0008 15.2915 43.4018 15.7395 44.3358 16.1875C44.5693 16.1875 44.8028 16.4116 45.0363 16.4116C45.7368 16.6356 46.4373 16.6355 47.1377 16.1875C47.8382 15.7395 48.3052 14.8434 48.5387 13.9474V13.7234C48.3052 13.7234 48.3052 13.9474 48.0717 13.9474C47.3712 14.3954 46.6707 14.6194 45.9702 14.3954C45.0363 14.1714 44.1023 13.9474 43.4018 13.2753L43.1683 13.0514C43.6353 13.0514 43.8688 13.0514 44.3358 13.0514C44.5693 13.0514 45.0363 13.2754 45.2698 13.4994C46.9042 13.9475 48.3052 13.4994 49.0057 12.1553C49.2392 11.9313 49.2392 11.7073 49.0057 11.4833C48.7722 11.0352 48.5387 10.5872 48.3052 10.3632C47.8382 9.69113 47.3712 9.24308 47.1377 8.79505C47.1377 8.79505 47.1377 8.57109 46.9042 8.57109C46.9042 8.57109 46.9042 8.57109 47.1377 8.57109C46.2038 8.34707 46.4372 8.57109 46.4372 8.57109ZM32.8945 5.43483C31.26 5.43483 29.8591 5.21089 28.6916 4.53885C27.9911 4.09082 27.5241 3.41872 27.2906 2.52266C27.2906 2.29865 27.2906 2.07458 27.2906 1.62655C27.2906 1.17852 27.7576 0.954529 28.2246 0.954529C28.6916 0.954529 28.9251 1.17857 29.3921 1.40259C29.859 1.6266 30.0925 2.07463 30.5595 2.52266C30.793 2.97069 31.0265 3.1947 31.26 3.64273C31.4935 4.09076 31.9605 4.31483 32.194 4.53885C31.9605 4.53885 31.9605 4.31475 31.727 4.31475C31.26 4.09074 30.793 3.64271 30.326 3.19468C30.0925 2.74665 29.6255 2.52263 29.1586 2.0746C28.9251 1.85059 28.4581 1.6266 27.9911 1.40259C27.5241 1.40259 27.2906 1.62663 27.5241 1.85064C27.7576 2.52269 27.9911 2.97074 28.2246 3.41877C29.1586 4.53885 30.326 4.98677 31.727 4.98677C31.9605 4.98677 32.4275 4.98677 32.661 4.98677C32.661 4.98677 32.8945 4.98677 33.128 4.98677C33.128 5.4348 33.128 5.43483 32.8945 5.43483ZM43.4018 7.45101C43.4018 7.45101 43.1683 7.45093 43.1683 7.22692C42.9348 7.0029 42.4678 6.77891 42.2343 6.5549C41.7673 6.33088 41.5338 6.10684 40.8333 6.10684C40.3664 6.10684 39.8994 5.88285 39.6659 5.43483C39.4324 5.21081 39.1989 4.98677 38.9654 4.98677C38.7319 4.98677 38.4984 4.98682 38.2649 4.76281C38.4984 4.76281 38.4984 4.76281 38.7319 4.76281C39.4324 4.76281 39.8994 4.76281 40.5998 4.76281C41.0668 4.76281 41.5338 4.9868 41.7673 5.43483C42.2343 6.10687 42.9348 6.77889 43.4018 7.22692C43.4018 7.0029 43.4018 7.227 43.4018 7.45101Z" fill="#77808B"/>
<path d="M43.8688 45.9816C44.3358 45.9816 44.5693 45.9816 45.0363 45.9816C45.0363 45.5335 45.2698 35.0048 45.0363 34.5567C43.4018 38.589 41.7674 42.6213 40.1329 46.6536C39.8994 46.6536 39.6659 46.6536 39.4324 46.6536C37.5644 42.3973 35.6965 38.365 33.8285 34.1087C33.8285 34.5567 33.595 45.3095 33.8285 45.9816C34.529 45.9816 35.2295 45.9816 35.6965 45.9816C35.6965 46.2056 35.6965 46.2055 35.6965 46.4295C34.2955 46.4295 33.128 46.4295 31.7271 46.4295C31.7271 46.2055 31.7271 46.2056 31.7271 45.9816C32.194 45.9816 32.661 45.9816 33.128 45.9816C33.128 45.5335 33.3615 34.1088 33.128 33.2127C32.661 33.2127 32.194 33.2127 31.7271 33.2127C31.7271 32.9887 31.7271 32.9887 31.7271 32.7646C33.595 32.7646 35.463 32.7646 37.3309 32.7646C38.7319 35.6768 39.8994 38.813 41.3004 41.9492C41.7674 40.8291 42.2344 39.9332 42.4678 38.8131C42.9348 37.917 43.1683 36.797 43.6353 35.9009C44.1023 34.7808 44.3358 33.8847 44.8028 32.9886C46.4373 32.9886 48.0717 32.9886 49.9397 32.9886C49.9397 33.2126 49.9397 33.2127 49.9397 33.4367C49.4727 33.4367 49.2392 33.4367 48.7722 33.4367C48.7722 37.6929 48.7722 41.9493 48.7722 45.9816C49.2392 45.9816 49.4727 45.9816 49.9397 45.9816C49.9397 46.2056 49.9397 46.2055 49.9397 46.4295C47.8383 46.4295 45.7368 46.4295 43.6353 46.4295C43.6353 46.4295 43.6353 46.4296 43.6353 46.2055C43.8688 46.2055 43.8688 46.2056 43.8688 45.9816Z" fill="#77808B"/>
<path d="M19.3518 9.46696C19.3518 9.69098 19.1183 9.9151 19.1183 10.1391C18.4178 11.4832 17.4839 12.3792 16.0829 13.0513C14.9154 13.7233 13.9814 14.3954 13.2809 15.2914C12.5804 16.1875 11.88 17.3076 11.88 18.6517C11.88 20.2198 12.5805 21.3398 13.7479 22.2358C14.6819 22.9079 15.8494 23.356 17.0169 23.58C17.7174 23.804 18.6513 23.804 19.3518 23.804C19.5853 23.804 19.5853 23.804 19.8188 23.804C20.5193 24.252 21.2198 24.7 21.9203 25.148C21.6868 25.148 21.6868 25.148 21.4533 25.148C18.8848 25.82 16.0829 25.5961 13.5144 24.7001C12.347 24.2521 11.1795 23.58 10.2455 22.6839C8.61102 20.6678 8.37753 18.6516 9.54501 16.1874C10.012 15.2913 10.7125 14.3953 11.6465 13.7233C12.1135 13.4993 12.5805 13.0512 13.0474 12.8272C13.0474 12.8272 13.2809 12.6033 13.2809 12.3793H13.0474C12.347 12.6033 11.6465 12.8272 11.1795 13.2752C9.31151 14.3953 8.14403 15.9634 7.91054 18.2036C7.67704 20.6678 8.61102 22.4598 10.479 24.0279C11.6465 24.924 13.2809 25.5961 14.6819 25.8202C16.0829 26.0442 17.4839 26.2681 18.8848 26.0441C20.0523 26.0441 20.9863 25.8201 22.1538 25.3721C22.6208 25.1481 22.8543 25.148 23.0878 25.5961L23.3212 25.8202L23.0878 26.0441C21.4533 26.9402 19.8188 27.3882 17.9508 27.6122C15.3824 27.8363 13.0474 27.6122 10.479 26.7161C8.61102 26.0441 7.21005 24.9241 6.27606 23.132C4.64159 20.2198 5.34209 15.9635 8.37753 13.4993C9.54501 12.8273 10.7125 12.1552 11.88 11.9312C13.5144 11.7072 14.9154 11.0351 16.5499 10.3631C17.2504 9.91505 17.9508 9.46707 18.6513 9.01904C18.8848 9.69109 19.1183 9.69098 19.3518 9.46696C19.1183 9.46696 19.1183 9.46696 19.3518 9.46696Z" fill="#77808B"/>
<path d="M12.3469 38.141C12.5804 38.141 12.5804 38.141 12.8139 38.141C12.8139 39.037 12.8139 39.933 12.8139 40.8291C12.5804 40.8291 12.5804 40.8291 12.3469 40.8291C12.3469 40.8291 12.3469 40.8291 12.3469 40.6051C12.3469 40.3811 12.3469 40.3811 12.3469 40.157C12.1134 39.709 11.8799 39.709 11.4129 39.709C11.1795 39.709 11.1795 39.7091 10.946 39.9331C9.54498 40.6051 7.91051 41.0531 6.27604 40.8291C5.10856 40.8291 3.94109 40.6051 3.0071 39.9331C1.60613 39.037 0.90564 37.4689 0.90564 35.9008C0.90564 34.3327 1.60613 33.2126 2.7736 32.0926C3.94108 31.1965 5.10857 30.5244 6.50954 30.0764C9.77848 28.9563 13.0474 28.5082 16.5499 28.5082C18.4178 28.5082 20.2858 28.2843 21.9203 27.6123C22.3872 27.3882 22.6207 27.3882 23.0877 27.1642C23.3212 26.9402 23.7882 26.7162 24.0217 26.4922C24.2552 26.7162 24.4887 26.9402 24.7222 27.1642L24.9557 27.3882C25.1892 28.0602 24.9557 28.9563 24.7222 29.6283C24.2552 30.5244 23.5547 31.1965 22.6207 31.4205C21.6868 31.6446 20.9863 31.6445 20.0523 31.6445C17.9508 31.4205 15.8494 31.1964 13.7479 31.1964C11.1795 31.1964 8.611 31.4205 6.04255 32.3165C5.10856 32.5405 4.40808 32.9886 3.70759 33.4366C1.83962 35.0047 1.83963 37.2449 3.0071 38.813C3.70759 39.7091 4.64157 39.9331 5.57555 40.3811C6.97653 40.8292 8.3775 40.6051 9.77848 40.157C10.479 39.933 10.946 39.709 11.6464 39.485C12.1134 39.261 12.1134 39.0369 12.1134 38.5889C12.3469 38.5889 12.3469 38.365 12.3469 38.141Z" fill="#77808B"/>
<path d="M23.7882 33.2125C23.7882 35.4527 23.7882 37.4688 23.7882 39.4849C23.7882 39.4849 23.7882 39.4849 24.0217 39.4849C24.7221 39.4849 25.6561 39.485 26.3566 39.261C27.0571 39.261 27.2906 38.8129 27.5241 38.1409C27.5241 37.9169 27.5241 37.4688 27.5241 37.2448C27.5241 37.2448 27.7576 37.2448 27.9911 37.2448C27.9911 37.2448 27.9911 37.2447 27.9911 37.4687V37.6928C27.9911 39.0369 27.9911 40.605 27.9911 41.949V42.1731C27.7576 42.1731 27.7576 42.1731 27.5241 42.1731C27.5241 41.9491 27.5241 41.501 27.5241 41.277C27.5241 40.605 27.0571 40.381 26.3566 40.1569C25.4226 39.9329 24.7221 39.933 23.7882 39.933C23.7882 41.9491 23.7882 43.7412 23.7882 45.7573C24.2551 45.7573 24.7221 45.7573 25.1891 45.7573C25.1891 45.9813 25.1891 45.9814 25.1891 46.2054C23.0877 46.2054 20.7527 46.2054 18.6512 46.2054V45.9814C18.6512 45.9814 18.6512 45.9813 18.6512 45.7573C19.1182 45.7573 19.3517 45.7573 19.8187 45.7573C19.8187 41.501 19.8187 37.2447 19.8187 32.9884C19.3517 32.9884 19.1182 32.9884 18.6512 32.9884C18.6512 32.7644 18.6512 32.7645 18.6512 32.5405C22.6207 32.5405 26.3566 32.5405 30.326 32.5405C30.326 33.8846 30.326 35.2287 30.326 36.5728H30.0925H29.859C29.859 36.1247 29.859 35.9007 29.859 35.4527V35.2286C29.6256 33.8845 28.9251 33.2125 27.2906 32.9884C26.1231 33.4365 24.9556 33.4366 23.7882 33.2125Z" fill="#77808B"/>
<path d="M33.128 13.9472C32.194 13.9472 31.4935 13.9472 30.7931 14.1713C28.4581 14.6193 27.0571 15.9634 26.3566 17.9795C25.8896 19.0996 26.1231 20.2197 26.3566 21.3398C26.3566 21.5638 26.3566 21.7877 26.5901 22.2357C26.3566 22.2357 26.3566 22.0118 26.1231 22.0118C24.9557 20.8917 23.7882 19.7716 23.5547 18.2035C23.0877 16.1874 23.5547 14.3952 25.1892 12.8271C26.3566 11.931 27.5241 11.259 28.9251 11.035C30.3261 10.811 31.2601 11.2591 32.194 12.3792C32.4275 13.0512 32.661 13.2751 33.128 13.9472Z" fill="#77808B"/>
<path d="M15.8493 3.86689C15.8493 3.64287 15.8493 3.41888 15.6158 3.19487C15.6158 3.19487 15.3823 3.19492 15.3823 2.97091C14.6818 2.07485 13.7478 1.85078 12.8139 2.07479C11.4129 2.52282 10.2454 4.09093 10.4789 5.43502C10.7124 6.55509 11.4129 7.45123 12.5804 7.89926C13.5143 8.34729 14.6818 8.34718 15.8493 8.34718C17.2503 8.34718 18.6513 7.89915 20.0522 7.22711C20.2857 7.00309 20.7527 7.00315 20.9862 7.00315C20.9862 7.00315 20.9862 7.00309 20.9862 7.22711C19.5852 8.34718 17.9508 9.01928 16.3163 9.2433C14.9153 9.46731 13.5143 9.24327 12.1134 8.79524C10.9459 8.34721 10.2454 7.89921 9.54492 7.00315C9.31142 6.55512 9.07793 6.3311 9.07793 5.88307C9.07793 6.10709 9.07793 6.33108 9.07793 6.55509C9.77841 8.34721 11.1794 9.46728 13.2808 9.91531C14.4483 10.1393 15.6158 10.1394 16.5498 9.69135C16.7833 9.69135 17.0168 9.69135 17.2503 9.69135L17.0168 9.91531C15.8493 10.5874 14.4483 10.8113 13.0474 10.5873C12.3469 10.5873 11.8799 10.3634 11.4129 10.1394C9.54492 9.69138 8.61094 8.34726 8.37744 6.33113C8.37744 5.43507 8.37744 4.76303 8.84443 4.09098C9.54492 2.52288 10.7124 1.40278 12.3469 1.40278C14.9153 1.17876 16.5498 2.97083 16.3163 4.98696C16.0828 6.10703 15.1488 7.00315 13.9813 7.00315C12.5804 7.00315 11.6464 5.43502 12.1134 4.31494C12.5804 3.19487 13.9813 2.97088 14.9153 3.64293C15.3823 3.41891 15.6158 3.64287 15.8493 3.86689Z" fill="#77808B"/>
<path d="M10.0119 33.4368C10.0119 35.2289 10.0119 37.2452 10.0119 39.2613C10.2454 39.2613 10.7124 39.2613 10.9459 39.2613C10.4789 39.9333 7.20999 40.3813 6.04251 39.9333C6.04251 37.6932 6.04251 35.677 6.04251 33.4368C5.80901 33.4368 5.57551 33.4368 5.10852 33.4368C5.34202 33.2128 5.80901 32.9888 6.276 32.9888H6.5095C9.54494 32.9888 12.8139 32.9888 15.8493 32.9888C16.0828 32.9888 16.0828 32.9888 16.3163 32.9888C16.3163 34.3329 16.3163 35.6771 16.3163 37.0211C16.0828 37.0211 16.0828 37.0211 15.8493 37.0211C15.8493 36.7971 15.8493 36.7971 15.8493 36.5731C15.8493 36.3491 15.8493 36.1251 15.8493 35.9011C15.6158 34.557 14.9153 33.8849 13.2809 33.6609C12.3469 33.4369 11.1794 33.4368 10.0119 33.4368Z" fill="#77808B"/>
<path d="M27.9911 20.4436C27.9911 20.2196 28.2246 20.2196 28.2246 19.9956C28.9251 17.7554 30.5596 16.1873 33.128 15.5153C33.3615 15.5153 33.8285 15.2913 34.2955 15.2913C35.463 15.2913 36.6305 15.2913 38.0314 15.2913C38.2649 15.2913 38.4984 15.2913 38.7319 15.5153H38.4984C37.3309 15.7393 36.1635 15.9634 35.2295 16.4114C33.3615 17.0834 31.727 18.4276 30.7931 20.2197C30.3261 21.3397 30.0926 22.2357 30.0926 23.3558C30.0926 23.5798 30.0926 24.0278 30.0926 24.4759C29.8591 24.4759 29.8591 24.2519 29.6256 24.2519C29.1586 23.8039 28.6916 23.5799 28.2246 23.1318C27.9911 22.9078 27.7576 22.6838 27.7576 22.4598C27.7576 22.0118 27.5241 21.5637 27.2906 21.1156C26.5901 18.4275 28.4581 15.7393 31.0266 15.0672C31.9605 14.8432 32.661 14.8433 33.595 14.8433H33.8285C33.595 14.8433 33.128 14.8432 32.8945 15.0672C30.7931 15.5153 29.1586 16.6353 28.2246 18.4274C27.9911 19.0995 27.7576 19.5476 27.7576 20.2197C27.7576 20.2197 27.7576 20.4436 27.9911 20.4436Z" fill="#77808B"/>
<path d="M4.87512 46.4295V46.2055C4.87512 46.2055 4.87512 46.2056 4.87512 45.9816C5.34211 45.9816 5.57561 45.9816 6.0426 45.9816C6.0426 45.5335 6.0426 45.0854 6.0426 44.6374C6.0426 44.1894 6.0426 43.7414 6.0426 43.2934C6.0426 42.8453 6.0426 42.3973 6.0426 41.7252C7.44357 41.7252 8.61105 41.5013 9.77853 41.0532C9.77853 42.6213 9.77853 44.1894 9.77853 45.7575C10.7125 45.7575 11.88 45.7575 12.814 45.7575C14.9154 45.5335 15.6159 44.1894 15.8494 42.8453C15.8494 42.3973 15.8494 42.1733 16.0829 41.7252C16.3164 41.7252 16.3164 41.7252 16.5499 41.7252C16.5499 43.2933 16.5499 44.8614 16.5499 46.4295C12.814 46.4295 8.84455 46.4295 4.87512 46.4295Z" fill="#77808B"/>
<path d="M18.4179 11.4834C18.1844 11.2594 18.4179 11.2594 18.4179 11.0354C19.1184 10.1393 19.8188 9.01923 20.7528 8.34718C21.9203 7.22711 23.3213 5.88307 24.4887 4.763C24.7222 4.53898 24.7222 4.53896 24.9557 4.31494C25.6562 4.98699 26.3567 5.659 27.0572 6.10703C27.7577 6.55506 28.6917 7.00309 29.6257 7.22711C25.4227 7.67514 21.6868 9.01928 18.4179 11.4834Z" fill="#77808B"/>
<path d="M49.7063 9.69092C49.4728 10.1389 49.2393 10.587 48.7723 11.259C48.5388 10.811 48.3053 10.3629 48.3053 9.91488C48.7723 9.69086 49.0058 9.69092 49.7063 9.69092Z" fill="#77808B"/>
<path d="M9.54492 12.1554C9.77842 12.1554 9.77842 11.9315 10.0119 11.9315C10.7124 11.7074 12.1134 11.4834 12.8139 11.4834C12.5804 11.4834 10.2454 12.1554 9.54492 12.1554Z" fill="#77808B"/>
</svg>
