<svg width="19" height="18" viewBox="0 0 19 18" fill="none" xmlns="http://www.w3.org/2000/svg">
<path fill-rule="evenodd" clip-rule="evenodd" d="M3.8308 2.22029C3.8308 3.11635 4.06426 4.01235 4.29775 4.6844L3.13028 5.80447C2.66328 4.6844 2.42982 3.34028 2.42982 1.99619H3.8308V2.22029ZM13.8711 14.0931C14.8051 14.3171 15.7391 14.5411 16.4396 14.5411V16.1092C15.0386 16.1092 13.8711 15.6611 12.4701 15.4371L13.8711 14.0931ZM4.76477 0.204102H1.26234C0.795346 0.204102 0.328369 0.652186 0.328369 1.10022C0.328369 10.5088 8.26722 17.9013 17.8405 17.9013C18.3075 17.9013 18.7745 17.4532 18.7745 17.0052V13.645C18.7745 13.197 18.3075 12.749 17.8405 12.749C16.6731 12.749 15.2721 12.5249 14.1046 12.0769H13.8711C13.6376 12.0769 13.4041 12.0769 13.1706 12.301L10.8357 14.5411C7.80023 13.197 5.46529 10.7328 4.06431 8.04462L6.39927 5.80447C6.63277 5.58046 6.86621 5.13243 6.63271 4.6844C6.16572 3.56432 5.93225 2.4443 5.93225 1.10022C5.69876 0.652186 5.23176 0.204102 4.76477 0.204102Z" fill="#DFBC8A"/>
</svg>
