<svg width="14" height="16" viewBox="0 0 14 16" fill="none" xmlns="http://www.w3.org/2000/svg">
<path d="M0.903053 7.52606C0.77854 7.40154 0.708591 7.23266 0.708591 7.05656C0.708591 6.88047 0.77854 6.71158 0.903053 6.58706L5.59705 1.89606C6.02632 1.45577 6.53873 1.10509 7.10457 0.864369C7.67041 0.623646 8.27842 0.49767 8.89332 0.493747C9.50823 0.489824 10.1178 0.608033 10.6867 0.841517C11.2555 1.075 11.7724 1.41911 12.2072 1.85389C12.6421 2.28867 12.9863 2.80546 13.2198 3.37429C13.4534 3.94313 13.5717 4.55267 13.5679 5.16758C13.564 5.78248 13.4382 6.39051 13.1975 6.95639C12.9569 7.52226 12.6063 8.03473 12.1661 8.46406L6.06605 14.5641C5.44111 15.1734 4.60122 15.512 3.72837 15.5064C2.85552 15.5008 2.02004 15.1515 1.40296 14.5342C0.785884 13.9168 0.436924 13.0812 0.4317 12.2083C0.426476 11.3355 0.765409 10.4957 1.37505 9.87106L6.53605 4.71006C6.91098 4.34408 7.41506 4.14063 7.939 4.14384C8.46293 4.14705 8.96449 4.35665 9.3349 4.7272C9.70532 5.09775 9.91475 5.59938 9.91777 6.12332C9.9208 6.64725 9.71717 7.15126 9.35105 7.52606L5.59705 11.2791C5.47267 11.4034 5.30396 11.4733 5.12805 11.4733C4.95214 11.4733 4.78344 11.4034 4.65905 11.2791C4.53467 11.1547 4.46479 10.986 4.46479 10.8101C4.46479 10.6342 4.53467 10.4654 4.65905 10.3411L8.41205 6.58706C8.47364 6.52547 8.5225 6.45235 8.55583 6.37188C8.58916 6.29141 8.60632 6.20516 8.60632 6.11806C8.60632 6.03096 8.58916 5.94471 8.55583 5.86424C8.5225 5.78377 8.47364 5.71065 8.41205 5.64906C8.35046 5.58747 8.27734 5.53861 8.19687 5.50528C8.1164 5.47195 8.03015 5.45479 7.94305 5.45479C7.85595 5.45479 7.7697 5.47195 7.68923 5.50528C7.60876 5.53861 7.53564 5.58747 7.47405 5.64906L2.31305 10.8101C1.93976 11.1834 1.73005 11.6896 1.73005 12.2176C1.73005 12.479 1.78153 12.7378 1.88157 12.9793C1.9816 13.2208 2.12822 13.4402 2.31305 13.6251C2.49789 13.8099 2.71732 13.9565 2.95882 14.0565C3.20032 14.1566 3.45916 14.2081 3.72055 14.2081C4.24847 14.2081 4.75476 13.9984 5.12805 13.6251L11.2281 7.52506C11.5483 7.21976 11.8042 6.85349 11.9808 6.4478C12.1574 6.04212 12.2511 5.60522 12.2563 5.1628C12.2615 4.72038 12.1782 4.28138 12.0113 3.87163C11.8443 3.46189 11.5971 3.08967 11.2842 2.77687C10.9713 2.46408 10.599 2.21703 10.1891 2.05027C9.77933 1.8835 9.34029 1.80038 8.89788 1.8058C8.45546 1.81123 8.0186 1.90508 7.61299 2.08184C7.20738 2.2586 6.84122 2.51469 6.53605 2.83506L1.84405 7.52606C1.71957 7.65027 1.5509 7.72002 1.37505 7.72002C1.1992 7.72002 1.03053 7.65027 0.906053 7.52606" fill="black" fill-opacity="0.45"/>
</svg>
