<svg width="61" height="59" viewBox="0 0 61 59" fill="none" xmlns="http://www.w3.org/2000/svg">
<path d="M49.9412 15.478C50.1551 15.674 50.3868 15.8701 50.6364 16.0484C50.8859 16.2444 51.1711 16.3158 51.4742 16.2445C51.8307 16.1732 52.205 16.1197 52.5615 16.0484C52.6328 16.0305 52.7041 15.9771 52.7932 15.9236C52.6685 15.8166 52.5971 15.7453 52.508 15.674C51.1533 14.5511 49.7986 13.4459 48.4617 12.3229C48.1052 12.0199 47.7843 11.7168 47.5883 11.289C47.1961 10.38 46.4831 9.7739 45.5918 9.39957C43.2211 8.40136 40.7612 8.11615 38.23 8.49048C36.8575 8.70439 35.5562 8.52613 34.3798 7.74183C33.845 7.38532 33.239 7.17142 32.5973 7.04664C31.6347 6.85056 30.9217 7.27837 30.6721 8.22311C30.3335 9.50652 30.4939 10.7186 31.3851 11.7703C32.3477 12.9111 33.5777 13.5172 35.0571 13.5885C36.1088 13.642 37.1249 13.4815 38.1409 13.232C38.4974 13.1429 38.8539 13.0894 39.2104 13.0003C39.2104 13.0181 39.2282 13.0359 39.2282 13.0716C39.1569 13.125 39.0678 13.1785 38.9787 13.2142C38.5865 13.4102 38.1766 13.5885 37.7844 13.7667C36.1267 14.5511 34.4154 15.1215 32.5616 15.2462C31.2425 15.3354 29.977 15.6919 28.747 16.1732C26.7506 16.9575 24.9859 18.0983 23.5777 19.7204C22.0804 21.4316 21.2426 24.4084 22.9182 27.1178C23.4351 27.9556 24.0412 28.7399 24.7185 29.4351C25.9306 30.665 27.2853 31.6811 28.747 32.608C31.296 34.2123 34.0055 35.4422 36.804 36.5117C37.624 36.8326 38.4974 36.9573 39.3708 36.9039C41.6346 36.7791 43.3993 35.7274 44.6649 33.8736C46.3583 31.3959 45.6988 28.1339 43.2389 26.4761C42.2229 25.7988 41.0999 25.5136 39.9056 25.8166C38.6757 26.1196 37.7309 26.797 37.2853 28.0447C36.8931 29.1499 37.2853 30.2907 38.2479 30.8968C38.5865 31.1107 38.9609 31.2176 39.4243 31.1107C39.2817 31.0037 39.1748 30.9324 39.0856 30.8611C38.8004 30.6472 38.5865 30.362 38.4618 30.0055C38.1944 29.1677 38.5865 28.4012 39.4065 28.1517C40.1908 27.92 40.9038 28.0626 41.5099 28.6151C42.8289 29.7916 42.7398 31.8237 41.3316 32.911C40.4938 33.5527 39.5313 33.7132 38.4974 33.6419C37.6061 33.5884 36.7684 33.2854 35.9306 33.0002C34.0055 32.3228 32.1516 31.485 30.4404 30.3442C29.05 29.4173 27.8023 28.3478 26.8397 26.9752C26.2693 26.1553 25.8415 25.2818 25.7702 24.2658C25.6633 22.7328 26.0376 21.3781 27.214 20.3264C28.4618 19.1856 29.8878 18.3122 31.403 17.6348C32.7755 17.0288 34.2015 16.9753 35.5919 17.617C35.681 17.6526 35.7702 17.6705 35.8593 17.7061C35.9841 17.2248 36.091 16.7792 36.2514 16.3336C36.8397 14.6224 37.9983 13.6063 39.8165 13.3568C41.3316 13.1607 42.5081 13.7846 43.4885 14.8719C43.5598 14.9432 43.5776 15.0502 43.6311 15.1393C43.3637 15.068 43.1676 14.9432 42.9537 14.8363C42.5081 14.6224 42.0625 14.3728 41.5812 14.2302C40.3156 13.8559 39.1391 14.0876 38.1944 15.0323C37.2318 15.9771 36.8575 17.1179 37.214 18.4191C37.5883 19.756 38.4261 20.7008 39.8165 20.9681C41.0642 21.2177 42.2942 21.0394 43.3459 20.2551C43.3993 20.2195 43.435 20.1838 43.4885 20.166C43.7024 20.059 43.8984 20.0234 44.0767 20.273C43.6489 20.986 42.7755 21.0216 42.1159 21.5385C42.3477 21.592 42.5081 21.6633 42.6685 21.6811C42.9715 21.7168 43.2567 21.7524 43.5598 21.7703C44.7541 21.8594 45.8949 22.1446 46.9644 22.6615C47.1961 22.7685 47.4278 22.8933 47.6596 22.9824C48.3726 23.2676 49.0856 23.2498 49.7451 22.8398C50.5116 22.3585 50.9038 21.6098 51.0464 20.7186C51.0642 20.6473 51.0464 20.5938 51.0285 20.469C50.8681 20.576 50.7433 20.6651 50.6185 20.7542C50.0125 21.1642 49.3351 21.3959 48.6043 21.2533C47.7309 21.0929 46.9109 20.7721 46.1979 20.2016C46.1088 20.1303 46.0375 20.059 45.9305 19.9343C46.3227 19.8273 46.6614 19.9164 46.9644 20.0234C47.2674 20.1303 47.5704 20.2908 47.8735 20.3977C49.3351 20.9325 50.779 20.3443 51.492 18.9717C51.6346 18.7043 51.6702 18.4726 51.5098 18.2052C51.2959 17.8131 51.0998 17.4209 50.8503 17.0466C50.4581 16.4762 50.0303 15.9414 49.6382 15.4067C49.5847 15.3354 49.549 15.2462 49.5134 15.1571C49.549 15.1215 49.6025 15.1036 49.6382 15.068C49.7451 15.2284 49.8342 15.371 49.9412 15.478ZM37.107 12.4299C35.6632 12.4833 34.255 12.3051 33.0251 11.4495C32.3477 10.986 31.8664 10.3978 31.7773 9.56C31.7417 9.29262 31.7595 9.02524 31.813 8.75786C31.9199 8.29441 32.2408 8.06268 32.722 8.09833C33.132 8.13398 33.4885 8.29441 33.8272 8.49048C34.255 8.75786 34.5937 9.11437 34.8789 9.52435C35.1106 9.86303 35.3245 10.2195 35.5919 10.5404C35.8771 10.8969 36.2158 11.1999 36.5188 11.5208C36.5188 11.5386 36.501 11.5742 36.501 11.5921C36.3584 11.5208 36.198 11.4673 36.0554 11.396C35.5562 11.1286 35.1641 10.7365 34.8076 10.3087C34.4867 9.9165 34.1481 9.56 33.8094 9.20349C33.5063 8.88264 33.0964 8.74004 32.6864 8.63309C32.2764 8.54396 32.0803 8.75786 32.1695 9.16784C32.2942 9.72042 32.526 10.2195 32.9003 10.6473C33.7737 11.699 34.9145 12.1268 36.2514 12.1447C36.5723 12.1447 36.8753 12.1447 37.1962 12.1447C37.3031 12.1447 37.4101 12.1803 37.5348 12.1981C37.4279 12.4299 37.2496 12.4299 37.107 12.4299ZM47 14.248C46.9109 14.1946 46.8218 14.1411 46.7327 14.0698C46.4475 13.838 46.1622 13.6063 45.877 13.3746C45.5205 13.0894 45.1284 12.929 44.6471 12.9468C44.1658 12.9646 43.7915 12.7864 43.5598 12.3407C43.3993 12.0377 43.1141 11.9129 42.7933 11.8594C42.5616 11.8238 42.3298 11.7703 42.1159 11.7168C42.1159 11.6812 42.1159 11.6455 42.1159 11.6099C42.2585 11.5742 42.4011 11.5208 42.5437 11.5029C43.132 11.4851 43.7024 11.4851 44.2906 11.5029C44.7362 11.5208 45.1106 11.699 45.3958 12.0555C45.8949 12.6794 46.4118 13.2855 46.9109 13.9093C46.9822 13.9806 47.0179 14.0876 47.0713 14.1767C47.0535 14.2124 47.0179 14.2302 47 14.248Z" fill="#DFBC8A"/>
<path d="M47.5346 52.3048C47.9268 52.3048 48.2833 52.3048 48.6398 52.3048C48.7289 51.9661 48.7645 41.5206 48.6398 41.0215C47.0533 44.9965 45.5204 49.0071 43.9696 53C43.7735 53 43.5952 53 43.3991 53C41.6523 48.8645 39.9232 44.7469 38.1585 40.5758C38.0516 40.9145 38.0159 51.5562 38.1051 52.3048C38.7111 52.3048 39.335 52.3048 39.9767 52.3048C39.9767 52.4831 39.9767 52.6078 39.9767 52.7504C38.7111 52.7504 37.4634 52.7504 36.1978 52.7504C36.1978 52.6257 36.1799 52.5009 36.1621 52.3405C36.6434 52.3405 37.089 52.3405 37.5168 52.3405C37.6238 52.0018 37.6594 40.6471 37.5703 39.8628C37.1247 39.8628 36.6612 39.8628 36.1799 39.8628C36.1799 39.6667 36.1799 39.542 36.1799 39.3815C37.9625 39.3815 39.7093 39.3815 41.4919 39.3815C42.7218 42.3227 43.9517 45.2817 45.2173 48.3298C45.663 47.2781 46.0195 46.2799 46.4116 45.2995C46.8038 44.3191 47.1781 43.3387 47.5524 42.3583C47.9446 41.3601 48.3189 40.3619 48.7111 39.3815C50.3153 39.3815 51.8661 39.3815 53.4704 39.3815C53.4704 39.542 53.4704 39.6667 53.4704 39.845C53.0961 39.845 52.7217 39.845 52.3296 39.845C52.3296 44.0161 52.3296 48.1337 52.3296 52.3048C52.7039 52.3048 53.0604 52.3048 53.4704 52.3048C53.4704 52.4831 53.4704 52.6078 53.4704 52.7683C51.4918 52.7683 49.531 52.7683 47.5702 52.7683C47.5524 52.7148 47.5168 52.6791 47.5168 52.6257C47.5168 52.5187 47.5168 52.4474 47.5346 52.3048Z" fill="#DFBC8A"/>
<path d="M24.2013 16.4226C24.1121 16.6187 24.023 16.7969 23.9339 16.993C23.2744 18.2586 22.3296 19.239 21.0818 19.9164C20.0658 20.4689 19.1746 21.1641 18.4437 22.0554C17.6951 22.9823 17.196 24.034 17.196 25.2639C17.2138 26.7612 17.7842 27.9734 18.9785 28.8824C19.9054 29.5776 20.9571 30.0054 22.0801 30.255C22.7931 30.4154 23.5239 30.4511 24.2369 30.5402C24.3795 30.558 24.5399 30.558 24.6469 30.6293C25.2708 31.0215 25.8947 31.4314 26.572 31.8949C26.4116 31.9484 26.3046 31.984 26.2155 32.0019C23.72 32.5723 21.2423 32.5366 18.818 31.6453C17.6416 31.2175 16.6077 30.5758 15.8234 29.5776C14.2904 27.6169 14.1657 25.4956 15.1995 23.2675C15.6273 22.3406 16.3047 21.5919 17.1247 20.9502C17.5346 20.6294 17.9446 20.3263 18.3546 20.0233C18.4615 19.9342 18.5685 19.8451 18.6398 19.6846C18.5507 19.7025 18.4615 19.6846 18.3902 19.7203C17.802 19.9877 17.1603 20.2194 16.6077 20.5581C14.8252 21.6632 13.7557 23.2853 13.524 25.3887C13.2566 27.7595 14.13 29.6668 15.966 31.1819C17.1603 32.1623 18.515 32.7149 20.0123 32.9822C21.3136 33.214 22.597 33.3922 23.9161 33.2853C24.9677 33.1961 25.9838 33.0001 26.9463 32.6257C27.3207 32.4831 27.5881 32.501 27.8733 32.7505C27.9446 32.8218 28.0337 32.8753 28.1406 32.9466C28.0337 33.0179 27.9624 33.107 27.8554 33.1427C26.3403 33.9983 24.736 34.5152 23.007 34.7113C20.6006 34.9965 18.2655 34.6222 15.966 33.9092C14.1478 33.3566 12.9357 32.0553 12.0266 30.4332C10.4758 27.6703 11.0819 23.2853 14.1122 21.0037C15.1282 20.2372 16.2156 19.6668 17.4812 19.3994C18.9963 19.0786 20.458 18.5973 21.8127 17.8486C22.49 17.4743 23.1317 17.0108 23.7913 16.583C23.8982 16.5117 24.0052 16.4404 24.0943 16.3691C24.1656 16.387 24.1834 16.4048 24.2013 16.4226Z" fill="#DFBC8A"/>
<path d="M17.6238 44.533C17.8021 44.533 17.909 44.533 18.1051 44.533C18.1051 45.4243 18.1229 46.3156 18.0873 47.2425C17.9447 47.2603 17.8199 47.2603 17.6951 47.2603C17.6595 47.2068 17.6417 47.1712 17.6417 47.1355C17.606 47.0107 17.606 46.886 17.5704 46.7612C17.4456 46.4047 17.1069 46.2264 16.7504 46.3334C16.6256 46.369 16.5187 46.4225 16.3939 46.476C14.9857 47.1177 13.524 47.5098 11.9732 47.4564C10.8681 47.4207 9.83421 47.1533 8.92512 46.476C7.58823 45.4956 7.01783 44.1409 7 42.5188C7 40.9858 7.65953 39.7737 8.78252 38.7933C9.79856 37.9021 10.975 37.3138 12.2228 36.8504C15.2709 35.7096 18.4081 35.2461 21.6523 35.3887C23.3992 35.46 25.0926 35.1748 26.6969 34.4974C27.0355 34.3548 27.3742 34.1944 27.6951 34.0162C27.9981 33.8379 28.2655 33.6062 28.5863 33.3745C28.8359 33.5527 29.1033 33.731 29.3528 33.927C29.4241 33.9805 29.4954 34.1053 29.5132 34.2122C29.6558 34.9787 29.6024 35.7274 29.3172 36.4404C28.9607 37.3495 28.2833 37.8842 27.3564 38.1516C26.5543 38.3833 25.7165 38.4012 24.8965 38.2764C22.9179 37.9912 20.9393 37.7773 18.9429 37.7595C16.483 37.7595 14.041 37.9912 11.7059 38.829C10.9037 39.1142 10.1551 39.4885 9.49553 40.0054C7.62388 41.4849 7.74866 43.8557 8.836 45.3173C9.44205 46.1195 10.2977 46.5295 11.2424 46.7612C12.5971 47.0999 13.934 47.0107 15.2531 46.6364C15.8591 46.4582 16.4652 46.2086 17.0534 45.9769C17.4278 45.8343 17.5882 45.5491 17.5882 45.1391C17.606 44.943 17.6238 44.7469 17.6238 44.533Z" fill="#DFBC8A"/>
<path d="M28.4971 39.7915C28.4971 41.9484 28.4971 43.9983 28.4971 46.066C28.5506 46.0838 28.5863 46.1195 28.6219 46.1016C29.3706 46.066 30.1371 46.066 30.8857 45.9769C31.5809 45.8877 31.8661 45.5491 31.9909 44.8539C32.0444 44.5687 32.0622 44.2835 32.0978 43.9804C32.2048 43.9626 32.3296 43.9626 32.4543 43.9448C32.49 43.9983 32.5256 44.0339 32.5256 44.0696C32.5435 44.1409 32.5435 44.2122 32.5435 44.2835C32.5435 45.6738 32.5435 47.0464 32.5435 48.4367C32.5435 48.5259 32.5256 48.5972 32.5256 48.7041C32.383 48.7041 32.2404 48.7041 32.0978 48.7041C32.0622 48.3833 32.0265 48.0981 31.9909 47.795C31.9017 47.189 31.5809 46.8146 30.957 46.7077C30.1549 46.5651 29.3527 46.5829 28.515 46.5829C28.515 48.4902 28.515 50.3619 28.515 52.287C28.9784 52.287 29.424 52.287 29.8875 52.287C29.8875 52.4652 29.8875 52.5722 29.8875 52.7326C27.8376 52.7326 25.7877 52.7326 23.72 52.7326C23.7022 52.6613 23.7022 52.6078 23.6843 52.5365C23.6843 52.4831 23.6843 52.4296 23.7021 52.3048C24.0765 52.3048 24.4508 52.3048 24.8608 52.3048C24.8608 48.1159 24.8608 43.9983 24.8608 39.8272C24.4865 39.8272 24.1121 39.8272 23.72 39.8272C23.7022 39.6489 23.7021 39.5241 23.7021 39.3637C27.3741 39.3637 31.0105 39.3637 34.6825 39.3637C34.6825 40.7184 34.6825 42.0553 34.6825 43.3922C34.6112 43.41 34.5577 43.4279 34.5042 43.4279C34.4329 43.4279 34.3616 43.41 34.2725 43.41C34.2369 43.0357 34.2012 42.6792 34.1656 42.3049C34.1656 42.2157 34.1477 42.1266 34.1299 42.0553C33.8803 40.7541 33.1673 40.0589 31.777 39.9341C30.7075 39.8272 29.6201 39.8272 28.4971 39.7915Z" fill="#DFBC8A"/>
<path d="M37.3386 20.7542C36.5542 20.8433 35.7878 20.8612 35.0569 21.0394C32.9536 21.5207 31.5097 22.7863 30.868 24.8718C30.5293 25.977 30.6363 27.1 30.868 28.2052C30.9215 28.4547 30.975 28.7043 31.0284 29.0251C30.8502 28.936 30.7254 28.8825 30.6363 28.8112C29.442 27.813 28.4794 26.6544 28.1407 25.0857C27.6773 23.018 28.1764 21.2355 29.745 19.756C30.7611 18.8113 31.9019 18.2052 33.2922 18.0448C34.5578 17.9022 35.5917 18.2409 36.3403 19.3282C36.6434 19.756 36.9642 20.166 37.2851 20.5938C37.2851 20.6473 37.3029 20.7007 37.3386 20.7542Z" fill="#DFBC8A"/>
<path d="M21.0637 10.7186C21.0816 10.4512 21.1172 10.1839 20.7964 10.0413C20.7251 10.0056 20.6716 9.93432 20.6181 9.86302C19.9586 9.02523 19.103 8.81133 18.1048 9.04306C16.6966 9.38174 15.6627 10.9504 15.9657 12.3585C16.2153 13.535 16.8748 14.4441 18.0513 14.8719C19.0138 15.2284 20.0121 15.3175 21.0459 15.2462C22.4185 15.1393 23.6841 14.7115 24.914 14.1232C25.1992 13.9806 25.5022 13.8559 25.8409 13.8024C25.8053 13.8559 25.7696 13.9093 25.734 13.945C24.4149 14.9789 22.971 15.7632 21.2955 16.0127C19.9586 16.2088 18.6395 16.1018 17.3739 15.674C16.3757 15.3354 15.5914 14.7115 15.0388 13.8202C14.8249 13.4815 14.7001 13.0716 14.5219 12.6438C14.4862 12.929 14.5575 13.1607 14.6288 13.3568C15.3775 15.1393 16.6966 16.2623 18.6217 16.5831C19.6912 16.7614 20.7429 16.7257 21.7946 16.4583C22.0085 16.4049 22.2224 16.387 22.4363 16.3514C22.4541 16.387 22.4541 16.4049 22.4719 16.4405C22.4006 16.494 22.3293 16.5653 22.258 16.6009C21.0994 17.2248 19.8695 17.4031 18.5682 17.1535C18.0156 17.0466 17.4809 16.9218 16.9461 16.7614C15.1814 16.2266 14.201 14.9076 14.1654 13.0537C14.1476 12.2694 14.2189 11.4851 14.5219 10.7543C15.1458 9.20348 16.2153 8.18745 17.9265 8.0092C20.2794 7.75964 21.8481 9.64911 21.6163 11.6455C21.4737 12.8042 20.529 13.6598 19.406 13.6063C18.1048 13.535 17.1779 12.0555 17.677 10.8612C18.1404 9.77389 19.4595 9.45304 20.3686 10.2195C20.5646 10.3978 20.7429 10.6117 20.9211 10.8078C21.0103 10.7543 21.0281 10.7365 21.0637 10.7186Z" fill="#DFBC8A"/>
<path d="M15.4311 39.8985C15.4311 41.7523 15.4311 43.6418 15.4311 45.5491C15.7164 45.5491 16.0194 45.5491 16.3402 45.5491C15.8055 46.1016 12.9178 46.672 11.8126 46.2621C11.8126 44.1587 11.8126 42.0197 11.8126 39.8628C11.5274 39.8628 11.2957 39.8628 11.0283 39.8628C11.2244 39.6133 11.7413 39.3815 12.08 39.3637C12.1513 39.3637 12.2226 39.3637 12.2939 39.3637C15.2351 39.3637 18.1941 39.3637 21.1352 39.3637C21.2956 39.3637 21.4382 39.3637 21.6165 39.3637C21.6165 40.7362 21.6165 42.0553 21.6165 43.4279C21.4739 43.4279 21.3491 43.4457 21.1709 43.4635C21.153 43.2853 21.153 43.1605 21.153 43.0179C21.1352 42.7683 21.1174 42.5009 21.0817 42.2514C20.8678 40.861 20.2974 40.1658 18.7288 39.9698C17.6771 39.845 16.5898 39.8985 15.5381 39.8806C15.5024 39.845 15.4846 39.8628 15.4311 39.8985Z" fill="#DFBC8A"/>
<path d="M32.4723 27.1713C32.5436 27.0109 32.6328 26.8861 32.6862 26.7256C33.4171 24.4618 34.9857 23.0537 37.2138 22.3406C37.5347 22.2337 37.8734 22.1446 38.212 22.1446C39.3707 22.1089 40.5115 22.0911 41.6701 22.0733C41.8662 22.0733 42.0623 22.1089 42.2762 22.2159C42.1871 22.2515 42.0979 22.2872 41.991 22.305C40.9215 22.4654 39.852 22.6615 38.8538 23.0893C37.0178 23.8558 35.6274 25.1036 34.754 26.9039C34.2727 27.9021 34.1301 28.9716 34.1122 30.059C34.1122 30.3798 34.0944 30.7007 34.0766 31.0928C33.8983 30.9859 33.7736 30.9324 33.6844 30.8611C33.221 30.5224 32.7754 30.1659 32.3297 29.8272C32.098 29.649 31.9554 29.3994 31.8841 29.1142C31.7771 28.6686 31.6524 28.2408 31.5454 27.7952C30.9572 25.2105 32.5436 22.5902 35.1639 21.8415C35.9661 21.6098 36.786 21.5385 37.6238 21.592C37.6951 21.592 37.7664 21.6098 37.8377 21.6098C37.8555 21.6098 37.8912 21.6455 37.9447 21.6811C37.6416 21.7346 37.3743 21.7702 37.1069 21.8237C35.1105 22.2337 33.631 23.3389 32.7219 25.157C32.4367 25.7096 32.2941 26.2978 32.3119 26.9217C32.3119 26.993 32.3297 27.0643 32.3297 27.1356C32.3654 27.1178 32.401 27.1356 32.4723 27.1713Z" fill="#DFBC8A"/>
<path d="M10.6362 52.7327C10.6362 52.6257 10.6184 52.5544 10.6184 52.4831C10.6184 52.4475 10.6362 52.394 10.6541 52.3227C11.0106 52.3227 11.3849 52.3227 11.7949 52.3227C11.8305 51.8236 11.8127 51.3601 11.8127 50.8967C11.8127 50.4332 11.8127 49.9519 11.8127 49.4885C11.8127 49.025 11.8127 48.5616 11.8127 48.0446C13.0426 48.0625 14.2191 47.8664 15.4134 47.4921C15.4134 49.1142 15.4134 50.6828 15.4134 52.2157C15.4669 52.2514 15.4847 52.2871 15.5203 52.2871C16.4829 52.2871 17.4633 52.3227 18.4259 52.2514C20.3688 52.091 21.0996 50.8076 21.3135 49.435C21.367 49.0607 21.4027 48.6685 21.4383 48.2586C21.5631 48.2407 21.7057 48.2407 21.8661 48.2229C21.8661 49.738 21.8661 51.2354 21.8661 52.7505C18.1228 52.7327 14.3974 52.7327 10.6362 52.7327Z" fill="#DFBC8A"/>
<path d="M23.5239 18.3478C23.3279 18.1518 23.4526 18.0626 23.5239 17.9557C24.1835 16.9931 24.8787 16.0484 25.7164 15.2463C26.9107 14.0876 28.0872 12.9111 29.2815 11.7347C29.4241 11.5921 29.5667 11.4673 29.7093 11.3425C30.3688 11.9486 30.9571 12.6259 31.6701 13.1251C32.3653 13.6063 33.203 13.9094 34.0586 14.3193C30.0658 14.4976 26.5542 15.781 23.5239 18.3478Z" fill="#DFBC8A"/>
<path d="M52.9179 16.5296C52.6327 17.0465 52.401 17.4743 52.1336 17.9913C51.9019 17.51 51.7771 17.0822 51.6167 16.6009C52.0445 16.5831 52.4188 16.4761 52.9179 16.5296Z" fill="#DFBC8A"/>
<path d="M15.0212 18.9539C15.146 18.8647 15.2708 18.7221 15.4134 18.6687C16.1086 18.3835 17.3385 18.1517 18.1585 18.1339C17.9446 18.2943 15.6273 18.9717 15.0747 19.0252C15.0569 19.0073 15.0391 18.9717 15.0212 18.9539Z" fill="#DFBC8A"/>
<rect x="0.25" y="0.25" width="60.5" height="58.5" rx="3.75" stroke="#B6B6B6" stroke-width="0.5"/>
</svg>
