<svg width="38" height="33" viewBox="0 0 38 33" fill="none" xmlns="http://www.w3.org/2000/svg">
<g opacity="0.7">
<path d="M0.887588 22.3754C1.08075 21.946 1.45742 21.7313 1.94033 21.5853C3.74641 21.0528 5.53317 20.4945 7.32959 19.9448C8.25677 19.6613 8.71071 19.8589 9.0584 20.6834C9.07772 20.7264 9.09703 20.7607 9.1743 20.8896C9.42541 20.6491 9.69584 20.4687 9.86003 20.2368C12.4098 16.4491 18.1854 15.6417 22.0293 18.519C22.1742 18.6307 22.406 18.708 22.5992 18.708C23.4394 18.7252 24.2893 18.708 25.1296 18.7166C26.4045 18.7252 27.3993 19.2061 28.1043 20.1595C28.1333 20.2024 28.1719 20.2454 28.2202 20.3141C29.2053 19.7301 30.1808 19.1374 31.166 18.562C31.7937 18.2012 32.4022 17.789 33.0783 17.5399C34.7105 16.9215 36.5649 17.5313 37.4341 18.9055C38.2937 20.2626 37.9556 21.9975 36.5359 22.9251C33.9572 24.6 31.3495 26.2405 28.7321 27.8638C27.4958 28.6282 26.1051 29.1435 24.6177 29.3582C23.4201 29.53 22.2032 29.5901 20.9862 29.6331C18.3013 29.7276 15.6163 29.7791 12.9313 29.8564C12.8251 29.8564 12.7188 29.8736 12.6126 29.8822C12.6802 30.6895 12.4774 30.9644 11.6082 31.222C9.79242 31.7717 7.96703 32.33 6.15129 32.8797C6.05471 32.9141 5.95813 32.957 5.86155 33C5.66838 33 5.47522 33 5.28206 33C4.8088 32.7938 4.57701 32.4503 4.41282 32.0122C3.71743 30.1398 2.98341 28.2675 2.26871 26.3951C1.80511 25.2012 1.34152 24.0159 0.87793 22.8221C0.887588 22.6761 0.887588 22.5215 0.887588 22.3754ZM9.84071 22.719C10.4878 24.4196 11.1349 26.0773 11.7627 27.7435C11.84 27.9497 11.9655 27.9668 12.1683 27.9583C15.539 27.8638 18.9097 27.7607 22.2804 27.6748C24.241 27.6233 26.0664 27.1681 27.6794 26.1718C30.1808 24.6257 32.6533 23.0368 35.1355 21.465C35.7922 21.0442 35.9178 20.3141 35.4735 19.7558C35.0389 19.2061 34.2276 19.0773 33.5515 19.4724C31.9386 20.4258 30.3257 21.3877 28.7224 22.3583C28.6162 22.427 28.51 22.5386 28.4713 22.6503C27.9111 24.0331 26.7522 24.7803 25.1006 24.7803C23.1497 24.7889 21.1987 24.7803 19.2478 24.7803C19.0836 24.7803 18.9097 24.7718 18.7552 24.7288C18.2626 24.5914 17.9632 24.1448 18.0308 23.6981C18.1081 23.2172 18.5524 22.865 19.1415 22.8564C20.0687 22.8478 20.9959 22.8564 21.9231 22.8564C23.0145 22.8564 24.1155 22.865 25.2069 22.8564C25.825 22.8478 26.2886 22.5129 26.4141 22.0147C26.588 21.2932 26.0278 20.6834 25.1489 20.6748C24.0769 20.6577 23.0048 20.6662 21.9327 20.6748C21.5657 20.6748 21.2567 20.5632 20.9959 20.3313C18.0212 17.746 13.5108 18.3472 11.5116 21.5767C11.3764 21.7914 11.1542 21.9804 10.9321 22.1264C10.594 22.3325 10.227 22.5043 9.84071 22.719ZM3.35042 23.2C4.33555 25.7509 5.30137 28.276 6.26719 30.8012C7.59036 30.3975 8.87489 30.011 10.1981 29.6073C9.22259 27.065 8.25677 24.5484 7.2813 22.0061C5.95813 22.4098 4.68325 22.7963 3.35042 23.2Z" fill="white"/>
<path d="M25.705 0C26.156 0.0767424 26.6165 0.136431 27.0674 0.238755C31.1641 1.14261 34.0711 4.45959 34.0039 8.15175C33.9367 12.0059 30.953 15.2462 26.7508 16.0392C21.4741 17.0283 16.3125 13.6175 15.852 8.84244C15.4394 4.5278 18.7877 0.733317 23.5944 0.0852694C23.7671 0.0596886 23.9493 0.0341083 24.122 0.00852746C24.6593 5.20316e-07 25.187 0 25.705 0ZM31.8548 8.09206C31.8356 4.66423 28.708 1.91003 24.8608 1.91856C21.0615 1.93561 17.9531 4.72392 17.9626 8.10912C17.9722 11.5284 21.1095 14.2997 24.9567 14.2741C28.7751 14.257 31.874 11.4773 31.8548 8.09206Z" fill="white"/>
<path d="M27.8058 6.18068C27.825 6.85034 27.4319 7.27961 26.8565 7.33112C26.2524 7.38263 25.7634 7.0478 25.6867 6.48117C25.6387 6.13776 25.447 6.01756 25.0922 6.03473C24.9388 6.04332 24.7757 6.00898 24.6319 6.04332C24.4689 6.08625 24.2388 6.16351 24.1908 6.27512C24.1525 6.37815 24.2675 6.60137 24.3922 6.68722C25.2072 7.25385 26.0415 7.78614 26.8565 8.34419C27.71 8.93658 28.036 9.92389 27.71 10.8254C27.4606 11.495 26.962 11.95 26.2428 12.2419C26.1278 12.2849 26.0127 12.4136 25.9839 12.5167C25.8209 13.0232 25.4182 13.3323 24.8812 13.3151C24.3538 13.2979 23.9799 12.9889 23.836 12.4909C23.8073 12.3965 23.6922 12.2849 23.5867 12.2419C22.6662 11.8728 22.1388 11.2546 22.0045 10.3617C21.9182 9.76936 22.3114 9.26282 22.9347 9.18555C23.5292 9.10828 24.047 9.48604 24.1333 10.087C24.1716 10.3617 24.3251 10.4819 24.6319 10.4734C24.8237 10.4648 25.0251 10.4991 25.2072 10.4648C25.3607 10.4304 25.5908 10.3446 25.6196 10.2501C25.6483 10.1214 25.562 9.90672 25.4374 9.82087C24.6607 9.27999 23.8744 8.76487 23.0785 8.24117C22.5319 7.88058 22.158 7.40839 22.0333 6.79883C21.8128 5.73425 22.4169 4.71259 23.5292 4.29191C23.721 4.22323 23.8168 4.13737 23.8552 3.93991C23.9511 3.49347 24.3826 3.19298 24.8812 3.1844C25.3894 3.17581 25.8113 3.45055 25.9264 3.90557C25.9839 4.1202 26.0894 4.21464 26.3004 4.30049C27.2497 4.69542 27.7387 5.37366 27.8058 6.18068Z" fill="white"/>
</g>
</svg>
