<svg width="45" height="39" viewBox="0 0 45 39" fill="none" xmlns="http://www.w3.org/2000/svg">
<g opacity="0.7" clip-path="url(#clip0_372_451)">
<g clip-path="url(#clip1_372_451)">
<path d="M15.0822 34.125C16.0891 34.125 16.9054 33.3975 16.9054 32.5C16.9054 31.6025 16.0891 30.875 15.0822 30.875C14.0753 30.875 13.259 31.6025 13.259 32.5C13.259 33.3975 14.0753 34.125 15.0822 34.125Z" fill="white"/>
<path d="M29.6677 34.125C30.6746 34.125 31.4908 33.3975 31.4908 32.5C31.4908 31.6025 30.6746 30.875 29.6677 30.875C28.6607 30.875 27.8445 31.6025 27.8445 32.5C27.8445 33.3975 28.6607 34.125 29.6677 34.125Z" fill="white"/>
<path d="M39.695 0L5.05475 0C2.53878 0 0.496826 1.82 0.496826 4.0625V13H7.78951V39H36.9602V13H44.2529V4.0625C44.2529 1.82 42.211 0 39.695 0ZM42.4298 11.375H36.9602V4.875H35.1371V37.375H9.61268V4.875H7.78951V11.375H2.32V4.0625C2.32 2.71375 3.54152 1.625 5.05475 1.625H39.695C41.2082 1.625 42.4298 2.71375 42.4298 4.0625V11.375Z" fill="white"/>
<g clip-path="url(#clip2_372_451)">
<mask id="path-4-inside-1_372_451" fill="white">
<path d="M31.8477 17.875C31.8477 22.3553 27.7585 26 22.7318 26C17.7052 26 13.616 22.3553 13.616 17.875C13.616 17.6367 13.6274 17.4017 13.6502 17.1695C13.6676 16.9833 13.8446 16.8397 14.0611 16.8614C14.27 16.877 14.425 17.0415 14.4068 17.2277C14.3863 17.441 14.3756 17.657 14.3756 17.8757C14.3756 21.9822 18.1245 25.3236 22.7318 25.3236C27.3391 25.3236 31.088 21.9822 31.088 17.8757C31.088 13.7692 27.3391 10.4271 22.7318 10.4271C22.4872 10.4271 22.2449 10.4366 22.0048 10.4548C21.9934 10.4555 21.9828 10.4562 21.9722 10.4562C21.7769 10.4562 21.6113 10.3228 21.5939 10.1468C21.5756 9.96057 21.7306 9.79604 21.9395 9.78047C22.2008 9.76016 22.4644 9.75 22.7311 9.75C27.7577 9.75 31.8477 13.3947 31.8477 17.875ZM16.094 13.151C16.2011 13.151 16.3074 13.111 16.3819 13.0325C16.6629 12.7407 16.9714 12.4658 17.2988 12.2159C17.4583 12.0941 17.4765 11.8801 17.3406 11.7386C17.2038 11.5964 16.9645 11.5808 16.805 11.7014C16.448 11.9735 16.1122 12.2735 15.8061 12.5917C15.6693 12.7332 15.6875 12.9472 15.8471 13.0691C15.9185 13.1239 16.0066 13.151 16.094 13.151ZM14.3171 15.7462C14.3566 15.7578 14.3969 15.7632 14.4364 15.7632C14.5959 15.7632 14.7441 15.6731 14.7972 15.5309C14.9332 15.1653 15.1019 14.8078 15.2994 14.4666C15.3951 14.3007 15.3222 14.0962 15.136 14.0109C14.9492 13.9249 14.7213 13.9899 14.6248 14.1565C14.409 14.5282 14.2252 14.9189 14.0771 15.3177C14.011 15.4951 14.1181 15.6873 14.3171 15.7462ZM18.7345 11.2883C18.793 11.2883 18.8523 11.2761 18.9085 11.2504C19.2913 11.0744 19.6924 10.9241 20.1019 10.8029C20.3009 10.744 20.4088 10.5523 20.3427 10.3749C20.2766 10.1976 20.0609 10.1014 19.8626 10.1603C19.4159 10.2923 18.9776 10.4569 18.5606 10.6485C18.3737 10.7338 18.3008 10.9383 18.3972 11.1042C18.4648 11.2206 18.597 11.2883 18.7345 11.2883ZM18.1739 17.875C18.1739 17.6881 18.3441 17.5365 18.5537 17.5365H21.2664C21.4047 17.0632 21.821 16.6921 22.352 16.5689V13.474C22.352 13.2871 22.5222 13.1354 22.7318 13.1354C22.9415 13.1354 23.1116 13.2871 23.1116 13.474V16.5689C23.7649 16.7206 24.2511 17.246 24.2511 17.875C24.2511 18.6218 23.5697 19.2292 22.7318 19.2292C22.0261 19.2292 21.4366 18.7958 21.2664 18.2135H18.5537C18.3441 18.2135 18.1739 18.0619 18.1739 17.875ZM21.9722 17.875C21.9722 18.2481 22.3133 18.5521 22.7318 18.5521C23.1504 18.5521 23.4915 18.2481 23.4915 17.875C23.4915 17.5019 23.1504 17.1979 22.7318 17.1979C22.3133 17.1979 21.9722 17.5019 21.9722 17.875Z"/>
</mask>
<path d="M31.8477 17.875C31.8477 22.3553 27.7585 26 22.7318 26C17.7052 26 13.616 22.3553 13.616 17.875C13.616 17.6367 13.6274 17.4017 13.6502 17.1695C13.6676 16.9833 13.8446 16.8397 14.0611 16.8614C14.27 16.877 14.425 17.0415 14.4068 17.2277C14.3863 17.441 14.3756 17.657 14.3756 17.8757C14.3756 21.9822 18.1245 25.3236 22.7318 25.3236C27.3391 25.3236 31.088 21.9822 31.088 17.8757C31.088 13.7692 27.3391 10.4271 22.7318 10.4271C22.4872 10.4271 22.2449 10.4366 22.0048 10.4548C21.9934 10.4555 21.9828 10.4562 21.9722 10.4562C21.7769 10.4562 21.6113 10.3228 21.5939 10.1468C21.5756 9.96057 21.7306 9.79604 21.9395 9.78047C22.2008 9.76016 22.4644 9.75 22.7311 9.75C27.7577 9.75 31.8477 13.3947 31.8477 17.875ZM16.094 13.151C16.2011 13.151 16.3074 13.111 16.3819 13.0325C16.6629 12.7407 16.9714 12.4658 17.2988 12.2159C17.4583 12.0941 17.4765 11.8801 17.3406 11.7386C17.2038 11.5964 16.9645 11.5808 16.805 11.7014C16.448 11.9735 16.1122 12.2735 15.8061 12.5917C15.6693 12.7332 15.6875 12.9472 15.8471 13.0691C15.9185 13.1239 16.0066 13.151 16.094 13.151ZM14.3171 15.7462C14.3566 15.7578 14.3969 15.7632 14.4364 15.7632C14.5959 15.7632 14.7441 15.6731 14.7972 15.5309C14.9332 15.1653 15.1019 14.8078 15.2994 14.4666C15.3951 14.3007 15.3222 14.0962 15.136 14.0109C14.9492 13.9249 14.7213 13.9899 14.6248 14.1565C14.409 14.5282 14.2252 14.9189 14.0771 15.3177C14.011 15.4951 14.1181 15.6873 14.3171 15.7462ZM18.7345 11.2883C18.793 11.2883 18.8523 11.2761 18.9085 11.2504C19.2913 11.0744 19.6924 10.9241 20.1019 10.8029C20.3009 10.744 20.4088 10.5523 20.3427 10.3749C20.2766 10.1976 20.0609 10.1014 19.8626 10.1603C19.4159 10.2923 18.9776 10.4569 18.5606 10.6485C18.3737 10.7338 18.3008 10.9383 18.3972 11.1042C18.4648 11.2206 18.597 11.2883 18.7345 11.2883ZM18.1739 17.875C18.1739 17.6881 18.3441 17.5365 18.5537 17.5365H21.2664C21.4047 17.0632 21.821 16.6921 22.352 16.5689V13.474C22.352 13.2871 22.5222 13.1354 22.7318 13.1354C22.9415 13.1354 23.1116 13.2871 23.1116 13.474V16.5689C23.7649 16.7206 24.2511 17.246 24.2511 17.875C24.2511 18.6218 23.5697 19.2292 22.7318 19.2292C22.0261 19.2292 21.4366 18.7958 21.2664 18.2135H18.5537C18.3441 18.2135 18.1739 18.0619 18.1739 17.875ZM21.9722 17.875C21.9722 18.2481 22.3133 18.5521 22.7318 18.5521C23.1504 18.5521 23.4915 18.2481 23.4915 17.875C23.4915 17.5019 23.1504 17.1979 22.7318 17.1979C22.3133 17.1979 21.9722 17.5019 21.9722 17.875Z" fill="white"/>
<path d="M13.6502 17.1695L14.6454 17.2671L14.6458 17.2629L13.6502 17.1695ZM14.0611 16.8614L13.9615 17.8564L13.9742 17.8577L13.9868 17.8586L14.0611 16.8614ZM14.4068 17.2277L13.4115 17.1303L13.4114 17.132L14.4068 17.2277ZM22.0048 10.4548L22.0641 11.4531L22.0725 11.4526L22.0808 11.452L22.0048 10.4548ZM21.5939 10.1468L20.5986 10.2442L20.5987 10.2455L21.5939 10.1468ZM21.9395 9.78047L22.0138 10.7777L22.017 10.7775L21.9395 9.78047ZM16.3819 13.0325L15.6616 12.3388L15.6561 12.3446L16.3819 13.0325ZM17.2988 12.2159L17.9054 13.0109L17.9059 13.0106L17.2988 12.2159ZM17.3406 11.7386L18.0616 11.0457L18.0613 11.0454L17.3406 11.7386ZM16.805 11.7014L16.2022 10.9035L16.1987 10.9061L16.805 11.7014ZM15.8061 12.5917L16.5252 13.2866L16.5267 13.285L15.8061 12.5917ZM15.8471 13.0691L16.4562 12.276L16.4542 12.2744L15.8471 13.0691ZM14.3171 15.7462L14.0333 16.7051L14.0374 16.7063L14.3171 15.7462ZM14.7972 15.5309L15.7339 15.8812L15.7345 15.8795L14.7972 15.5309ZM15.2994 14.4666L16.1648 14.9675L16.1655 14.9663L15.2994 14.4666ZM15.136 14.0109L14.718 14.9193L14.7193 14.9199L15.136 14.0109ZM14.6248 14.1565L15.4897 14.6584L15.4901 14.6577L14.6248 14.1565ZM14.0771 15.3177L15.0142 15.6668L15.0145 15.6659L14.0771 15.3177ZM18.9085 11.2504L19.3247 12.1597L19.3262 12.159L18.9085 11.2504ZM20.1019 10.8029L19.8181 9.84398L19.8181 9.84399L20.1019 10.8029ZM19.8626 10.1603L20.1461 11.1193L20.1474 11.1189L19.8626 10.1603ZM18.5606 10.6485L18.9759 11.5582L18.9781 11.5572L18.5606 10.6485ZM18.3972 11.1042L19.2621 10.6021L19.2617 10.6014L18.3972 11.1042ZM21.2664 17.5365V18.5365H22.0161L22.2263 17.8169L21.2664 17.5365ZM22.352 16.5689L22.5781 17.543L23.352 17.3634V16.5689H22.352ZM23.1116 16.5689H22.1116V17.3633L22.8855 17.543L23.1116 16.5689ZM21.2664 18.2135L22.2263 17.933L22.016 17.2135H21.2664V18.2135ZM30.8477 17.875C30.8477 21.6979 27.3175 25 22.7318 25V27C28.1994 27 32.8477 23.0126 32.8477 17.875H30.8477ZM22.7318 25C18.1462 25 14.616 21.6979 14.616 17.875H12.616C12.616 23.0126 17.2642 27 22.7318 27V25ZM14.616 17.875C14.616 17.6686 14.6258 17.4663 14.6454 17.2671L12.6549 17.0718C12.6289 17.3372 12.616 17.6047 12.616 17.875H14.616ZM14.6458 17.2629C14.6056 17.6915 14.2324 17.8835 13.9615 17.8564L14.1607 15.8664C13.4569 15.7959 12.7297 16.2751 12.6545 17.0761L14.6458 17.2629ZM13.9868 17.8586C13.7467 17.8407 13.3648 17.6074 13.4115 17.1303L15.402 17.3252C15.4852 16.4756 14.7933 15.9132 14.1355 15.8642L13.9868 17.8586ZM13.4114 17.132C13.3878 17.3766 13.3756 17.6245 13.3756 17.8757H15.3756C15.3756 17.6895 15.3847 17.5054 15.4022 17.3234L13.4114 17.132ZM13.3756 17.8757C13.3756 22.6396 17.6835 26.3236 22.7318 26.3236V24.3236C18.5655 24.3236 15.3756 21.3248 15.3756 17.8757H13.3756ZM22.7318 26.3236C27.7801 26.3236 32.088 22.6396 32.088 17.8757H30.088C30.088 21.3248 26.8981 24.3236 22.7318 24.3236V26.3236ZM32.088 17.8757C32.088 13.1119 27.7802 9.42708 22.7318 9.42708V11.4271C26.898 11.4271 30.088 14.4264 30.088 17.8757H32.088ZM22.7318 9.42708C22.4613 9.42708 22.1937 9.43757 21.9289 9.45773L22.0808 11.452C22.2961 11.4356 22.5131 11.4271 22.7318 11.4271V9.42708ZM21.9455 9.4566C21.9413 9.45685 21.9405 9.4569 21.9391 9.45698C21.9383 9.45703 21.9393 9.45697 21.9414 9.45687C21.9453 9.45669 21.9567 9.4562 21.9722 9.4562V11.4562C22.0189 11.4562 22.0625 11.4532 22.0641 11.4531L21.9455 9.4566ZM21.9722 9.4562C22.1936 9.4562 22.5466 9.62107 22.589 10.048L20.5987 10.2455C20.6761 11.0246 21.3603 11.4562 21.9722 11.4562V9.4562ZM22.5891 10.0493C22.6358 10.5265 22.2539 10.7598 22.0138 10.7777L21.8652 8.78324C21.2073 8.83228 20.5154 9.39468 20.5986 10.2442L22.5891 10.0493ZM22.017 10.7775C22.2521 10.7592 22.4899 10.75 22.7311 10.75V8.75C22.439 8.75 22.1495 8.76113 21.862 8.78348L22.017 10.7775ZM22.7311 10.75C27.3168 10.75 30.8477 14.0522 30.8477 17.875H32.8477C32.8477 12.7373 28.1986 8.75 22.7311 8.75V10.75ZM16.094 14.151C16.4398 14.151 16.8211 14.0227 17.1076 13.7204L15.6561 12.3446C15.7938 12.1993 15.9623 12.151 16.094 12.151V14.151ZM17.1021 13.7262C17.3477 13.4713 17.6181 13.2302 17.9054 13.0109L16.6921 11.421C16.3247 11.7014 15.9782 12.0101 15.6616 12.3388L17.1021 13.7262ZM17.9059 13.0106C18.5236 12.5386 18.6252 11.6322 18.0616 11.0457L16.6195 12.4315C16.4906 12.2974 16.4164 12.1033 16.4342 11.8981C16.4519 11.6942 16.5561 11.5249 16.6917 11.4213L17.9059 13.0106ZM18.0613 11.0454C17.5602 10.5243 16.7502 10.4895 16.2022 10.9035L17.4078 12.4992C17.2793 12.5963 17.136 12.6275 17.0133 12.6191C16.8905 12.6108 16.7422 12.5591 16.6198 12.4318L18.0613 11.0454ZM16.1987 10.9061C15.8008 11.2095 15.4268 11.5435 15.0854 11.8984L16.5267 13.285C16.7976 13.0034 17.0951 12.7376 17.4113 12.4966L16.1987 10.9061ZM15.0869 11.8968C14.5201 12.4834 14.6219 13.3915 15.24 13.8637L16.4542 12.2744C16.5897 12.378 16.6943 12.5475 16.7118 12.7524C16.7295 12.9586 16.6543 13.153 16.5252 13.2866L15.0869 11.8968ZM15.238 13.8621C15.4982 14.062 15.8048 14.151 16.094 14.151V12.151C16.2084 12.151 16.3388 12.1858 16.4562 12.276L15.238 13.8621ZM14.0374 16.7063C14.1711 16.7453 14.3058 16.7632 14.4364 16.7632V14.7632C14.488 14.7632 14.5421 14.7702 14.5969 14.7862L14.0374 16.7063ZM14.4364 16.7632C14.943 16.7632 15.5114 16.476 15.7339 15.8812L13.8606 15.1806C13.9767 14.8703 14.2489 14.7632 14.4364 14.7632V16.7632ZM15.7345 15.8795C15.8507 15.5671 15.9952 15.2606 16.1648 14.9675L14.4339 13.9656C14.2085 14.3551 14.0157 14.7635 13.86 15.1824L15.7345 15.8795ZM16.1655 14.9663C16.5896 14.2313 16.2107 13.4035 15.5527 13.1018L14.7193 14.9199C14.5791 14.8556 14.4473 14.7282 14.3819 14.5455C14.3151 14.3589 14.3305 14.1448 14.4332 13.9668L16.1655 14.9663ZM15.554 13.1024C14.9479 12.8235 14.141 12.9965 13.7595 13.6552L15.4901 14.6577C15.3931 14.8252 15.2465 14.9148 15.1205 14.9507C14.9941 14.9867 14.8516 14.9808 14.718 14.9193L15.554 13.1024ZM13.7599 13.6545C13.5155 14.0756 13.3074 14.5178 13.1397 14.9695L15.0145 15.6659C15.143 15.32 15.3026 14.9807 15.4897 14.6584L13.7599 13.6545ZM13.14 14.9685C12.8405 15.7723 13.368 16.5082 14.0333 16.7051L14.6009 14.7874C14.8682 14.8665 15.1814 15.2178 15.0142 15.6668L13.14 14.9685ZM18.7345 12.2883C18.9325 12.2883 19.1342 12.2469 19.3247 12.1597L18.4923 10.3411C18.5704 10.3054 18.6535 10.2883 18.7345 10.2883V12.2883ZM19.3262 12.159C19.6649 12.0032 20.0212 11.8696 20.3857 11.7617L19.8181 9.84399C19.3637 9.97849 18.9178 10.1455 18.4907 10.3419L19.3262 12.159ZM20.3857 11.7617C21.0456 11.5664 21.5811 10.8345 21.2798 10.0258L19.4056 10.7241C19.2365 10.2702 19.5563 9.92147 19.8181 9.84398L20.3857 11.7617ZM21.2798 10.0258C21.0035 9.28432 20.204 9.01568 19.5778 9.20172L20.1474 11.1189C20.0102 11.1597 19.8683 11.1474 19.7444 11.0921C19.6209 11.0369 19.4786 10.9199 19.4056 10.7241L21.2798 10.0258ZM19.5791 9.20133C19.0869 9.34681 18.6038 9.52811 18.1431 9.73981L18.9781 11.5572C19.3514 11.3856 19.7449 11.2379 20.1461 11.1193L19.5791 9.20133ZM18.1453 9.7388C17.4863 10.0396 17.104 10.8696 17.5328 11.6069L19.2617 10.6014C19.3652 10.7794 19.3816 10.9947 19.3142 11.1831C19.2482 11.3673 19.1154 11.4945 18.9758 11.5582L18.1453 9.7388ZM17.5324 11.6062C17.8015 12.0698 18.2879 12.2883 18.7345 12.2883V10.2883C18.9061 10.2883 19.1282 10.3715 19.2621 10.6021L17.5324 11.6062ZM19.1739 17.875C19.1739 18.3455 18.785 18.5365 18.5537 18.5365V16.5365C17.9031 16.5365 17.1739 17.0308 17.1739 17.875H19.1739ZM18.5537 18.5365H21.2664V16.5365H18.5537V18.5365ZM22.2263 17.8169C22.2509 17.7328 22.3538 17.5951 22.5781 17.543L22.1259 15.5948C21.2882 15.7892 20.5585 16.3936 20.3066 17.2561L22.2263 17.8169ZM23.352 16.5689V13.474H21.352V16.5689H23.352ZM23.352 13.474C23.352 13.9445 22.9631 14.1354 22.7318 14.1354V12.1354C22.0812 12.1354 21.352 12.6297 21.352 13.474H23.352ZM22.7318 14.1354C22.5005 14.1354 22.1116 13.9445 22.1116 13.474H24.1116C24.1116 12.6297 23.3825 12.1354 22.7318 12.1354V14.1354ZM22.1116 13.474V16.5689H24.1116V13.474H22.1116ZM22.8855 17.543C23.0201 17.5743 23.1194 17.6402 23.1785 17.7068C23.2348 17.7702 23.2511 17.8275 23.2511 17.875H25.2511C25.2511 16.6911 24.3506 15.8299 23.3378 15.5948L22.8855 17.543ZM23.2511 17.875C23.2511 17.9315 23.2274 18.008 23.1403 18.0856C23.0516 18.1647 22.9097 18.2292 22.7318 18.2292V20.2292C24.0107 20.2292 25.2511 19.2792 25.2511 17.875H23.2511ZM22.7318 18.2292C22.421 18.2292 22.2585 18.0433 22.2263 17.933L20.3066 18.494C20.6147 19.5483 21.6312 20.2292 22.7318 20.2292V18.2292ZM21.2664 17.2135H18.5537V19.2135H21.2664V17.2135ZM18.5537 17.2135C18.785 17.2135 19.1739 17.4045 19.1739 17.875H17.1739C17.1739 18.7192 17.9031 19.2135 18.5537 19.2135V17.2135ZM20.9722 17.875C20.9722 18.9054 21.8723 19.5521 22.7318 19.5521V17.5521C22.7641 17.5521 22.812 17.5638 22.8604 17.6069C22.9104 17.6515 22.9722 17.7441 22.9722 17.875H20.9722ZM22.7318 19.5521C23.5914 19.5521 24.4915 18.9054 24.4915 17.875H22.4915C22.4915 17.7441 22.5533 17.6515 22.6032 17.6069C22.6516 17.5638 22.6995 17.5521 22.7318 17.5521V19.5521ZM24.4915 17.875C24.4915 16.8446 23.5914 16.1979 22.7318 16.1979V18.1979C22.6995 18.1979 22.6516 18.1862 22.6032 18.1431C22.5533 18.0985 22.4915 18.0059 22.4915 17.875H24.4915ZM22.7318 16.1979C21.8723 16.1979 20.9722 16.8446 20.9722 17.875H22.9722C22.9722 18.0059 22.9104 18.0985 22.8604 18.1431C22.812 18.1862 22.7641 18.1979 22.7318 18.1979V16.1979Z" fill="white" mask="url(#path-4-inside-1_372_451)"/>
</g>
</g>
</g>
<defs>
<clipPath id="clip0_372_451">
<rect width="39" height="43.7561" fill="white" transform="matrix(0 1 -1 0 44.6099 0)"/>
</clipPath>
<clipPath id="clip1_372_451">
<rect width="43.7561" height="39" fill="white" transform="translate(0.496826)"/>
</clipPath>
<clipPath id="clip2_372_451">
<rect width="18.2317" height="16.25" fill="white" transform="translate(13.616 9.75)"/>
</clipPath>
</defs>
</svg>
