<svg width="37" height="33" viewBox="0 0 37 33" fill="none" xmlns="http://www.w3.org/2000/svg">
<g opacity="0.7" clip-path="url(#clip0_372_423)">
<path d="M1.83499 19.9856L3.32497 18.6106V33H1.83499V19.9856ZM7.7532 14.5241L7.79492 33.0014L9.2849 32.9986L9.2402 13.1519L7.7532 14.5241ZM14.4998 8.2995L13.7101 9.02825L13.7548 33.0014L15.2448 32.9986L15.2001 8.94575L14.4998 8.2995ZM33.8696 0H25.6747V1.375H33.5612L23.4397 10.7154L14.4998 2.46537L0.429932 15.4495L1.48335 16.4216L14.4998 4.40963L23.4397 12.6596L34.6146 2.34713V9.625H36.1046V2.0625C36.1046 0.925375 35.1018 0 33.8696 0ZM36.1046 24.75C36.1046 29.2999 32.095 33 27.1647 33C22.2343 33 18.2248 29.2999 18.2248 24.75C18.2248 20.2001 22.2343 16.5 27.1647 16.5C32.095 16.5 36.1046 20.2001 36.1046 24.75ZM34.6146 24.75C34.6146 20.9591 31.2726 17.875 27.1647 17.875C23.0568 17.875 19.7148 20.9591 19.7148 24.75C19.7148 28.5409 23.0568 31.625 27.1647 31.625C31.2726 31.625 34.6146 28.5409 34.6146 24.75ZM25.8565 22H28.4938C28.6457 22 29.3997 22.033 29.3997 22.6875H30.8896C30.8896 21.4926 29.8809 20.625 28.4938 20.625H27.9097V19.25H26.4197V20.625H25.8565C24.523 20.625 23.4397 21.626 23.4397 22.8552C23.4397 23.8576 24.1713 24.7417 25.2575 25.014L28.6636 25.7001C29.0972 25.806 29.3997 26.1704 29.3997 26.5842C29.3997 27.0889 28.9542 27.5 28.4073 27.5H25.922C25.6896 27.5 24.9297 27.4505 24.9297 26.8125H23.4397C23.4397 28.0266 24.4619 28.875 25.922 28.875H26.4197V30.25H27.9097V28.875H28.4073C29.7766 28.875 30.8896 27.8479 30.8896 26.5842C30.8896 25.5502 30.1327 24.64 29.0152 24.365L25.6121 23.6803C25.2098 23.5785 24.9297 23.2402 24.9297 22.8552C24.9297 22.3836 25.3454 22 25.8565 22Z" fill="white"/>
</g>
<defs>
<clipPath id="clip0_372_423">
<rect width="35.7596" height="33" fill="white" transform="translate(0.344971)"/>
</clipPath>
</defs>
</svg>
