<svg width="24" height="24" viewBox="0 0 24 24" fill="none" xmlns="http://www.w3.org/2000/svg">
<path d="M7.47145 10.2831L5.23799 12.5166C4.40386 13.3507 3.92418 14.4857 3.93294 15.6785C3.94171 16.8713 4.41089 18.0132 5.28461 18.8599C6.13129 19.7337 7.27342 20.2028 8.46604 20.2116C9.68587 20.2206 10.794 19.7679 11.6282 18.9338L13.8616 16.7003M16.7144 13.9021L18.9479 11.6686C19.782 10.8345 20.2617 9.69951 20.2529 8.5067C20.2442 7.31389 19.775 6.172 18.9013 5.32527C18.0548 4.47878 16.9128 4.00957 15.72 4.00081C14.5272 3.99204 13.3921 4.44449 12.5579 5.27865L10.3245 7.5121M8.70604 15.4198L15.4064 8.71941M5.3366 5.2171L4.23029 4.11079M9.1781 3.26835L9.35909 1.44482M1.72217 9.08141L3.61283 8.89376M18.9412 18.5057L20.0475 19.612M15.0997 20.4545L14.9187 22.278M22.5557 14.6414L20.665 14.8291" stroke="#EAD7BC" stroke-width="2" stroke-linecap="round" stroke-linejoin="round"/>
</svg>
