<svg width="24" height="24" viewBox="0 0 24 24" fill="none" xmlns="http://www.w3.org/2000/svg">
<g clip-path="url(#clip0_118_952)">
<path d="M19.5 22H4.5C2.019 22 0 19.981 0 17.5V6.5C0 4.019 2.019 2 4.5 2H19.5C21.981 2 24 4.019 24 6.5V17.5C24 19.981 21.981 22 19.5 22ZM4.5 3C2.57 3 1 4.57 1 6.5V17.5C1 19.43 2.57 21 4.5 21H19.5C21.43 21 23 19.43 23 17.5V6.5C23 4.57 21.43 3 19.5 3H4.5ZM18.5 13H13.5C12.673 13 12 12.327 12 11.5V8.5C12 7.673 12.673 7 13.5 7H18.5C19.327 7 20 7.673 20 8.5V11.5C20 12.327 19.327 13 18.5 13ZM13.5 8C13.224 8 13 8.224 13 8.5V11.5C13 11.776 13.224 12 13.5 12H18.5C18.776 12 19 11.776 19 11.5V8.5C19 8.224 18.776 8 18.5 8H13.5ZM10 12.5C10 12.224 9.776 12 9.5 12H4.5C4.224 12 4 12.224 4 12.5C4 12.776 4.224 13 4.5 13H9.5C9.776 13 10 12.776 10 12.5ZM20 16.5C20 16.224 19.776 16 19.5 16H4.5C4.224 16 4 16.224 4 16.5C4 16.776 4.224 17 4.5 17H19.5C19.776 17 20 16.776 20 16.5Z" fill="#EAD7BC"/>
</g>
<defs>
<clipPath id="clip0_118_952">
<rect width="24" height="24" fill="white"/>
</clipPath>
</defs>
</svg>
