<svg width="15" height="15" viewBox="0 0 15 15" fill="none" xmlns="http://www.w3.org/2000/svg">
<path d="M12.8088 4.97998L6.84625 0.604977C6.38056 0.263967 5.82951 0.0585983 5.25423 0.0116414C4.67894 -0.0353155 4.10189 0.0779748 3.58706 0.33895C3.07223 0.599926 2.63974 0.998388 2.33754 1.49016C2.03534 1.98192 1.87524 2.54778 1.875 3.12498V11.875C1.8751 12.4524 2.03521 13.0186 2.33755 13.5106C2.63989 14.0026 3.07263 14.4011 3.58776 14.6621C4.10289 14.9231 4.68026 15.0362 5.25578 14.9889C5.8313 14.9417 6.38247 14.7359 6.84813 14.3944L12.8106 10.0194C13.2064 9.7291 13.5283 9.3497 13.7501 8.91189C13.972 8.47408 14.0876 7.99017 14.0876 7.49935C14.0876 7.00854 13.972 6.52463 13.7501 6.08681C13.5283 5.649 13.2064 5.2696 12.8106 4.97935L12.8088 4.97998ZM12.0688 9.01123L6.10625 13.3862C5.82689 13.5904 5.49648 13.7132 5.15161 13.7412C4.80674 13.7692 4.46085 13.7012 4.15223 13.5447C3.84361 13.3883 3.5843 13.1495 3.403 12.8548C3.2217 12.5601 3.12549 12.221 3.125 11.875V3.12498C3.12153 2.77832 3.21593 2.43772 3.39736 2.1423C3.57879 1.84689 3.83988 1.60866 4.15062 1.45498C4.41493 1.32053 4.70721 1.2503 5.00375 1.24998C5.40118 1.25149 5.78764 1.38053 6.10625 1.6181L12.0688 5.9931C12.3059 6.16729 12.4988 6.39485 12.6317 6.65739C12.7646 6.91994 12.8339 7.21008 12.8339 7.50435C12.8339 7.79863 12.7646 8.08877 12.6317 8.35131C12.4988 8.61385 12.3059 8.84142 12.0688 9.0156V9.01123Z" fill="#EAD7BC"/>
</svg>
